<?xml version="1.0" ?><!-- Uploaded to: SVG Repo, www.svgrepo.com, Generator: SVG Repo Mixer Tools -->
<svg fill="#fff" width="800px" height="800px" viewBox="0 0 64 64" data-name="Layer 1" id="Layer_1" xmlns="http://www.w3.org/2000/svg"><path d="M24,16H41a3,3,0,0,0,.039-6l-1.069.089a.989.989,0,0,1-1.057-.77A2.945,2.945,0,0,0,35,7.187,1,1,0,0,1,33.73,6.6a3.982,3.982,0,0,0-7.658.708,1,1,0,0,1-1.2.8A3.9,3.9,0,0,0,24,8a4,4,0,0,0,0,8Z"/><path d="M44,18H20v5H44ZM28,22H22V20h6Zm3,0H29V20h2Zm3,0H32V20h2Z"/><path d="M44,25H20v5H44ZM28,29H22V27h6Zm3,0H29V27h2Zm3,0H32V27h2Z"/><path d="M11,41H28.142A4,4,0,0,0,31,43.858V48h2V43.858A4,4,0,0,0,35.858,41H53v7h2V40a1,1,0,0,0-1-1H35.858A4,4,0,0,0,33,36.142V31H31v5.142A4,4,0,0,0,28.142,39H10a1,1,0,0,0-1,1v8h2Z"/><path d="M17,51H9L7.8,49.4A1,1,0,0,0,7,49H3a1,1,0,0,0-1,1V61a1,1,0,0,0,1,1H17a1,1,0,0,0,1-1V52A1,1,0,0,0,17,51Zm-2,5H13V54h2Z"/><path d="M39,51H31l-1.2-1.6A1,1,0,0,0,29,49H25a1,1,0,0,0-1,1V61a1,1,0,0,0,1,1H39a1,1,0,0,0,1-1V52A1,1,0,0,0,39,51Zm-2,5H35V54h2Z"/><path d="M61,51H53l-1.2-1.6A1,1,0,0,0,51,49H47a1,1,0,0,0-1,1V61a1,1,0,0,0,1,1H61a1,1,0,0,0,1-1V52A1,1,0,0,0,61,51Zm-2,5H57V54h2Z"/></svg>