<?xml version="1.0" ?>

<!-- Uploaded to: SVG Repo, www.svgrepo.com, Generator: SVG Repo Mixer Tools -->
<svg fill="#fff" width="800px" height="800px" viewBox="0 0 64 64" xmlns="http://www.w3.org/2000/svg">

<g id="a"/>

<g id="b">

<path d="M53.2676,21.2861c-1.0825-.6357-2.3833-.6509-3.4761-.0396-2.353,1.3145-4.3789,2.7593-6.021,4.2944-.4897,.457-.7705,1.1182-.7705,1.814v26.145c0,.8271,.6729,1.5,1.5,1.5h9c.8271,0,1.5-.6729,1.5-1.5V24.3076c0-1.2554-.6475-2.3848-1.7324-3.0215Zm.7324,32.2139c0,.2759-.2241,.5-.5,.5h-9c-.2759,0-.5-.2241-.5-.5V27.355c0-.4194,.165-.8145,.4531-1.0835,1.5835-1.48,3.5435-2.877,5.8257-4.1519,.3818-.2129,.7988-.3193,1.2153-.3193,.436,0,.8721,.1162,1.2676,.3481,.7754,.4556,1.2383,1.2627,1.2383,2.1592v29.1924Zm-17.7324-22.2139c-1.083-.6357-2.3828-.6509-3.4761-.0396-2.353,1.3145-4.3789,2.7593-6.021,4.2944-.4897,.457-.7705,1.1182-.7705,1.814v16.145c0,.8271,.6729,1.5,1.5,1.5h9c.8271,0,1.5-.6729,1.5-1.5v-19.1924c0-1.2554-.6475-2.3848-1.7324-3.0215Zm.7324,22.2139c0,.2759-.2241,.5-.5,.5h-9c-.2759,0-.5-.2241-.5-.5v-16.145c0-.4194,.165-.8145,.4531-1.0835,1.5835-1.48,3.5435-2.877,5.8257-4.1519,.3818-.2129,.7988-.3193,1.2153-.3193,.436,0,.8721,.1162,1.2676,.3481,.7754,.4556,1.2383,1.2627,1.2383,2.1592v19.1924Zm-17.7324-13.2139c-1.0835-.6357-2.3833-.6509-3.4761-.0396-2.353,1.3145-4.3789,2.7593-6.021,4.2944-.4897,.457-.7705,1.1182-.7705,1.814v7.145c0,.8271,.6729,1.5,1.5,1.5h9c.8271,0,1.5-.6729,1.5-1.5v-10.1924c0-1.2554-.6475-2.3848-1.7324-3.0215Zm.7324,13.2139c0,.2759-.2241,.5-.5,.5H10.5c-.2759,0-.5-.2241-.5-.5v-7.145c0-.4194,.165-.8145,.4531-1.0835,1.5835-1.48,3.5435-2.877,5.8257-4.1519,.3818-.2129,.7988-.3193,1.2153-.3193,.436,0,.8721,.1162,1.2676,.3481,.7754,.4556,1.2383,1.2627,1.2383,2.1592v10.1924ZM43.6836,20.1655c.3647-3.4077,.4043-6.7339,.1177-9.8862-.0664-.7373-.6958-1.2827-1.4419-1.272-3.7036,.1211-7.1143,.7529-10.1372,1.8789-.5161,.1924-.8765,.6313-.9644,1.1743-.0869,.54,.1152,1.0674,.542,1.4097l1.6562,1.3315c-.9927,1.4741-5.3232,7.1528-14.8311,10.1787-1.1265,.3579-2.333,.6167-3.4995,.8667-3.2983,.7065-6.4131,1.3745-6.0996,4.1621,.0684,.6157,.4351,1.4844,1.7964,2.125,1.188,.5591,2.9023,.8423,4.8721,.8423,4.1152,0,9.3442-1.2358,13.21-3.7739,6.1064-4.0073,9.9341-7.9927,11.0273-9.1943l1.4014,1.1226c.4146,.3335,.9805,.4111,1.4722,.2065,.4937-.2056,.8223-.6436,.8784-1.1719Zm-.9941-.1064c-.0244,.23-.1958,.3252-.2686,.3555-.1582,.0654-.3306,.042-.4629-.064l-1.772-1.4199c-.2114-.1699-.5195-.1392-.6943,.0674-.0391,.0464-3.9951,4.6826-11.1362,9.3687-5.3623,3.5215-13.7422,4.4468-17.1074,2.8628-.7568-.356-1.1699-.8037-1.228-1.3315-.2026-1.7969,1.8877-2.3384,5.3149-3.0732,1.1899-.2549,2.4204-.5186,3.5933-.8911,11.3286-3.6055,15.4551-10.6943,15.6255-10.9946,.1206-.2134,.0693-.4829-.1221-.6362l-2.0059-1.6118c-.2051-.165-.1943-.3843-.1807-.4707,.0142-.0884,.0747-.3032,.3257-.3965,2.9219-1.0884,6.2261-1.6997,9.8208-1.8174h.0122c.2046,0,.3833,.1602,.4014,.3628v.0005c.2808,3.0869,.2422,6.3472-.1157,9.6895Z"/>

</g>

</svg>