<svg xmlns="http://www.w3.org/2000/svg" xmlns:xlink="http://www.w3.org/1999/xlink" width="375" height="667" viewBox="0 0 375 667">
  <defs>
    <clipPath id="clip-path">
      <rect id="Retângulo_1388" data-name="Retângulo 1388" width="375" height="667" fill="#b6aa9f"/>
    </clipPath>
    <clipPath id="clip-path-2">
      <rect id="Retângulo_1183" data-name="Retângulo 1183" width="594.008" height="822.542" fill="#eaeaea"/>
    </clipPath>
  </defs>
  <g id="Grupo_de_máscara_78" data-name="Grupo de máscara 78" clip-path="url(#clip-path)">
    <g id="Grupo_1727" data-name="Grupo 1727" transform="translate(-15 177.671)" opacity="0.147">
      <g id="Grupo_1108" data-name="Grupo 1108" transform="translate(0 0)" clip-path="url(#clip-path-2)">
        <path id="Caminho_7781" data-name="Caminho 7781" d="M248.31,259.8A5.113,5.113,0,1,1,242,263.341a5.118,5.118,0,0,1,6.306-3.538m-2.3,8.188a3.393,3.393,0,1,0-2.348-4.185,3.4,3.4,0,0,0,2.348,4.185" transform="translate(268.24 -180.456)" fill="#eaeaea"/>
        <path id="Caminho_7782" data-name="Caminho 7782" d="M144.461,358.808a5.11,5.11,0,1,1-.112-3.912,5.08,5.08,0,0,1,.112,3.912M142.78,355.6a3.394,3.394,0,1,0,.074,2.6,3.386,3.386,0,0,0-.074-2.6" transform="translate(408.179 -244.588)" fill="#eaeaea"/>
        <path id="Caminho_7783" data-name="Caminho 7783" d="M382.577,283.645a5.08,5.08,0,0,1,3.828-.811q.231.043.454.106a5.113,5.113,0,1,1-4.283.7m.095,6.135a3.361,3.361,0,0,0,1.87,1.345q.151.042.307.071a3.393,3.393,0,1,0-2.177-1.416" transform="translate(87.455 -196.537)" fill="#eaeaea"/>
        <path id="Caminho_7784" data-name="Caminho 7784" d="M213.409,604.476q.233.043.459.107a5.136,5.136,0,1,1-.459-.107m-4.271,4.4a3.394,3.394,0,0,0,2.412,3.886q.149.042.3.07a3.393,3.393,0,0,0,3.419-5.255,3.409,3.409,0,0,0-2.177-1.416,3.393,3.393,0,0,0-3.957,2.714" transform="translate(313.198 -420.111)" fill="#eaeaea"/>
        <path id="Caminho_7785" data-name="Caminho 7785" d="M463.022,542.2a5.109,5.109,0,1,1-.111-3.912,5.08,5.08,0,0,1,.111,3.912m-1.681-3.209a3.393,3.393,0,1,0-4.305,4.557c.1.037.2.069.294.1a3.393,3.393,0,0,0,4.012-4.654" transform="translate(-7.51 -372.063)" fill="#eaeaea"/>
        <path id="Caminho_7786" data-name="Caminho 7786" d="M135.376,488.018a5.113,5.113,0,1,1-6.307,3.538,5.119,5.119,0,0,1,6.307-3.538m-2.3,8.189a3.393,3.393,0,1,0-2.348-4.185,3.4,3.4,0,0,0,2.348,4.185" transform="translate(415.608 -339.089)" fill="#eaeaea"/>
        <path id="Caminho_7787" data-name="Caminho 7787" d="M18.252,213.9a17.943,17.943,0,0,0-17.078,4.056L0,216.7a19.805,19.805,0,0,1,32.353,8.981A17.285,17.285,0,0,0,44.419,237.8a17.475,17.475,0,0,0,4.5.652l.157,0,9.6-34.141-.135-.081a17.423,17.423,0,0,0-20.811,2.285A19.805,19.805,0,0,1,5.456,197.3l1.657-.461a18.085,18.085,0,0,0,29.452,8.41,19,19,0,0,1,18.262-4.46c.322.091.64.192.956.3l.617.209-.386-.524c-.132-.179-.262-.359-.388-.543a18.975,18.975,0,0,1-1.655-18.7,18.085,18.085,0,0,0-17.417-25.213l-.1-1.717a19.8,19.8,0,0,1,19.087,27.623,17.375,17.375,0,0,0,4.4,20.293l.119.1.131-.089,29.2-19.957-.054-.149a17.37,17.37,0,0,0-17.4-11.472A19.8,19.8,0,0,1,53.075,143.2l1.568.708A18.085,18.085,0,0,0,71.869,169.23a18.991,18.991,0,0,1,16.88,8.275c.249.363.5.755.738,1.165l.272.463.106-.527c.1-.478.211-.957.343-1.426a18.974,18.974,0,0,1,13.3-13.253,18.084,18.084,0,0,0,8.2-29.526l1.258-1.174a19.8,19.8,0,0,1-8.981,32.352,17.422,17.422,0,0,0-12.772,16.562l0,.157,34.141,9.6.08-.135a17.421,17.421,0,0,0-2.285-20.812,19.805,19.805,0,0,1,9.217-32.271l.462,1.657a18.085,18.085,0,0,0-8.41,29.452,19,19,0,0,1,4.46,18.263c-.15.534-.327,1.069-.542,1.635l-.2.527.492-.276c.526-.3,1.049-.559,1.554-.785a18.974,18.974,0,0,1,18.7,1.721A18.084,18.084,0,0,0,176.8,178.257l1.707.213a19.8,19.8,0,0,1-30.6,13.831,17.364,17.364,0,0,0-21.008.909l-.118.1,13.973,32.345.152-.019a17.41,17.41,0,0,0,15.152-15.175,19.8,19.8,0,0,1,30.684-13.6l-.977,1.416a18.085,18.085,0,0,0-28,12.411A19,19,0,0,1,146.6,225.813c-.191.085-.383.165-.575.245l-.546.225.569.161a18.98,18.98,0,0,1,13.2,13.282,18.084,18.084,0,0,0,29.525,8.2l1.174,1.257a19.8,19.8,0,0,1-32.352-8.981,17.422,17.422,0,0,0-16.562-12.771l-.157,0-9.6,34.141.135.081a17.5,17.5,0,0,0,4.177,1.788,17.308,17.308,0,0,0,16.635-4.073,19.8,19.8,0,0,1,32.271,9.217l-1.657.462a18.084,18.084,0,0,0-29.452-8.41,19,19,0,0,1-18.263,4.459c-.064-.018-.128-.038-.192-.057l-.71-.212.4.554c.077.106.154.212.228.32a18.975,18.975,0,0,1,1.656,18.7,18.085,18.085,0,0,0,17.416,25.213l.1,1.717a19.8,19.8,0,0,1-19.086-27.623,17.365,17.365,0,0,0-4.669-20.516l-.12-.1-29.126,20.085.051.148a17.369,17.369,0,0,0,17.459,11.655A19.8,19.8,0,0,1,137.4,322.731l-1.568-.707A18.084,18.084,0,0,0,118.6,296.7a19,19,0,0,1-16.879-8.275c-.314-.458-.623-.956-.917-1.481l-.276-.492-.1.554c-.11.587-.241,1.151-.389,1.678a18.975,18.975,0,0,1-13.3,13.253,18.084,18.084,0,0,0-8.2,29.526l-1.258,1.174a19.805,19.805,0,0,1,8.981-32.353,17.285,17.285,0,0,0,12.121-12.065,17.5,17.5,0,0,0,.651-4.5l0-.157-34.141-9.6-.08.135A17.422,17.422,0,0,0,67.1,294.908a19.805,19.805,0,0,1-9.217,32.271l-.462-1.657a18.085,18.085,0,0,0,8.41-29.452,19,19,0,0,1-4.46-18.262c.132-.469.284-.938.45-1.4l.184-.5-.473.254c-.415.223-.831.428-1.237.61a18.969,18.969,0,0,1-18.7-1.72,18.084,18.084,0,0,0-27.924,12.62l-1.707-.214a19.8,19.8,0,0,1,30.595-13.831,17.367,17.367,0,0,0,20.808-.743l.123-.1L49.238,240.331l-.155.024A17.429,17.429,0,0,0,34.41,255.468a19.766,19.766,0,0,1-30.684,13.6L4.7,267.65a18.085,18.085,0,0,0,28-12.411,19,19,0,0,1,11.165-15.124c.13-.058.26-.113.391-.167l.606-.252-.706-.185c-.07-.018-.139-.035-.209-.055a18.974,18.974,0,0,1-13.253-13.3A18.045,18.045,0,0,0,18.252,213.9m32.386,25.34.029.067,14.465,32.933,34.6,9.73.08-.054,29.716-20.492,9.783-34.787-.029-.067L125.037,193.6l-34.524-9.709-.079.054L60.419,204.459Z" transform="translate(404.062 -92.606)" fill="#eaeaea"/>
        <path id="Caminho_7788" data-name="Caminho 7788" d="M479.282,391.3a5.113,5.113,0,1,1-6.306,3.538,5.118,5.118,0,0,1,6.306-3.538m-2.3,8.189a3.393,3.393,0,1,0-2.348-4.185,3.4,3.4,0,0,0,2.348,4.185" transform="translate(-33.155 -271.86)" fill="#eaeaea"/>
        <path id="Caminho_7789" data-name="Caminho 7789" d="M353.167,627.4c.155.029.308.064.459.107a5.129,5.129,0,1,1-.459-.107m-4.271,4.4a3.394,3.394,0,0,0,2.412,3.886c.1.027.2.051.3.07a3.393,3.393,0,0,0,3.419-5.255,3.409,3.409,0,0,0-2.177-1.416A3.393,3.393,0,0,0,348.9,631.8" transform="translate(130.829 -436.046)" fill="#eaeaea"/>
        <path id="Caminho_7790" data-name="Caminho 7790" d="M882.063,904.3c-.109.154-.2.266-.3.388-.085.1-.176.212-.285.354l-.1.12c-.138.172-.276.343-.42.51l-.134.156a12.044,12.044,0,0,0,13.54,18.657c.151-.052.3-.114.443-.175l.178-.075,1.095-.513c.087-.042.142-.065.2-.091s.121-.052.217-.1l1.3-.49a16.874,16.874,0,0,1,18.083,27.113l-1.472,1.689,1.974-1.059c.265-.142,6.366-3.477,8.328-9.852l.239.107c-3.009,10.766-13.039,14.243-13.124,14.277a20.27,20.27,0,0,1-14.6-.494c-2.411-.908-6.486-4.352-6.527-4.386l-.128-.109-.167.012c-1.9.141-20.2,6.1-26.777,8.074l-.165-.477,27.846-9.626.326.389a14.86,14.86,0,0,0,3.815,3.234l1.227.6c.421.217.9.434,1.5.679a15.039,15.039,0,1,0,.087-28.388c-.44.152-.875.325-1.294.514l-.1.045a14.191,14.191,0,0,1-1.9.839A13.888,13.888,0,0,1,878.8,905.5l.61-.86c.2-.263.429-.536.663-.8a24.378,24.378,0,0,0,2.275-3.353,24.007,24.007,0,0,0,2.266-18.1L856.3,800.568l1.743-.6,28.318,81.84.021.071a25.833,25.833,0,0,1-2.428,19.514c-.275.49-.587,1-.981,1.6" transform="translate(-592.029 -556.057)" fill="#eaeaea"/>
        <path id="Caminho_7791" data-name="Caminho 7791" d="M959.516,1085.77l-.158-.124h0l.176.1-.018.026" transform="translate(-658.032 -754.633)" fill="#eaeaea"/>
        <path id="Caminho_7792" data-name="Caminho 7792" d="M800.387,963.184a84.2,84.2,0,0,1,21.125-4.3l-.108,1.386c-.507,2.875-1.51,6.852-2.277,9.5a79.716,79.716,0,0,1-19.863,32.615,85.986,85.986,0,0,1-32.494,20.6h0l-.089.032-.091.031-.076.028-.082.028h0l-.152.053a83.372,83.372,0,0,1-10.527,2.865,73.99,73.99,0,0,1,10.867-25.855c7.883-11.631,23.11-26.654,50.883-32.186l.257-.051,1.652-6.891-.559.042a73.763,73.763,0,0,0-18.689,3.815c-15.136,5.237-28.317,15.542-39.361,30.8a76.33,76.33,0,0,1,39.581-32.517h0m16.069,6.9a91.785,91.785,0,0,0-10.8,3c-19.549,6.764-31.027,18.594-37.44,28.02A70.82,70.82,0,0,0,758.2,1023.08l-.16.649.651-.152a68.881,68.881,0,0,0,7.3-2.275c.6-.213,1.224-.431,1.865-.653a78.689,78.689,0,0,0,49.07-50.042l.219-.676Z" transform="translate(-457.931 -666.524)" fill="#eaeaea"/>
        <path id="Caminho_7793" data-name="Caminho 7793" d="M958.359,1086.887Z" transform="translate(-656.553 -755.497)" fill="#eaeaea"/>
        <path id="Caminho_7794" data-name="Caminho 7794" d="M760.262,489.743h0A57.985,57.985,0,0,0,765,515.173a56.988,56.988,0,0,0,15.623,21.305c.014.012.028.026.042.04a46.033,46.033,0,0,1,6.445,8.036l.056.091a47.169,47.169,0,1,1-43.653-20.064l.168-.016a.511.511,0,0,1,.052,0,13.381,13.381,0,0,1,4.281.625,13.03,13.03,0,0,1-2.866,25.427l-.04,0c-12.754.374-23.756,8.524-26.749,19.819-4.206,15.874,3.359,31.022,17.988,36.019a29.547,29.547,0,0,0,22.919-1.7c7.3-3.748,12.5-9.716,14.633-16.8l.652.2a28.986,28.986,0,0,1-14.584,17.974,31.064,31.064,0,0,1-24.118,1.783c-15.415-5.265-23.4-21.19-18.977-37.866,3.164-11.94,14.745-20.559,28.161-20.96a11.493,11.493,0,0,0,2.522-22.428,11.814,11.814,0,0,0-3.733-.557l-.153.014a45.651,45.651,0,1,0,42.141,19.28l-.159-.258a44.162,44.162,0,0,0-6.041-7.5,58.533,58.533,0,0,1-16.031-21.874c-3.156-7.6-4.429-16.12-3.892-26.05Z" transform="translate(-415.382 -340.399)" fill="#eaeaea"/>
        <path id="Caminho_7795" data-name="Caminho 7795" d="M617.7,46.242l-.13.043a7.97,7.97,0,0,1-10.39-7.435h.006l.011-.414a6.441,6.441,0,0,0-.341-2.249,6.515,6.515,0,0,0-.707-1.458l-.56-.86.988-.275a10.115,10.115,0,0,1,12.683,11.053l-.027.206.151.144a325.556,325.556,0,0,1,55.4,69.272l.834,1.4-.073-1.627a120.13,120.13,0,0,0-5.62-31.233,118.821,118.821,0,0,0-25.776-44.455l-.164-.158a180.464,180.464,0,0,1-16.833-22.419l-.128-.2-.33.015c-.119.006-.238.012-.358.01a7.964,7.964,0,0,1-7.866-8.06,6.358,6.358,0,0,1,.461-2.538l.01.01.222-.616a4.178,4.178,0,0,0,.292-1.806,2.1,2.1,0,0,0-.5-1.265c-.039-.049-.072-.089-.1-.124L618,0l1.483.018A10.062,10.062,0,0,1,629.422,10.2a10.13,10.13,0,0,1-1.044,4.334l-.1.207.124.195a179.091,179.091,0,0,0,16.682,22.226l.145.14A120.29,120.29,0,0,1,671.361,82.35a121.748,121.748,0,0,1,5.63,30.493l.109,2.015.685-1.9a121.271,121.271,0,0,0-4.4-92.75l-.093-.2-.216-.032c-.188-.028-.376-.06-.561-.1A7.969,7.969,0,0,1,667.544,7.85l.116-.154a6.433,6.433,0,0,0,.857-2.055,6.5,6.5,0,0,0,.155-1.711l-.043-.983.959.217a9.221,9.221,0,0,1,5.967,4.373,10.54,10.54,0,0,1,1.107,7.7,10.137,10.137,0,0,1-1.856,3.933l-.153.2.106.227A124.37,124.37,0,0,1,680.623,34.5a122.026,122.026,0,0,1,.422,73.431l-1.122,3.648,1.871-3.327a196.271,196.271,0,0,0,25.053-88.39l.011-.292-.385-.147c-.041-.014-.083-.029-.124-.046a7.97,7.97,0,0,1-2.805-12.706l.133-.124a6.462,6.462,0,0,0,1.214-1.885,6.522,6.522,0,0,0,.431-1.524l.147-.951.887.373a9.208,9.208,0,0,1,5.181,5.4,10.412,10.412,0,0,1-.3,7.569,10.108,10.108,0,0,1-2.732,3.744l-.136.117-.006.18A197.354,197.354,0,0,1,677.091,119a9.669,9.669,0,0,0-2.43,9.522,9.239,9.239,0,0,0,8.866,6.376c.327-.016.661-.02,1.034-.012h.072l.157-.054c.075-.026.15-.051.226-.075a21.561,21.561,0,0,1,17.892,38.885l-.347.213.016.026a19.964,19.964,0,0,0-8.416,23.1c3.331,10.4,14.628,16.9,25.047,13.8l.237.74a21.56,21.56,0,0,1-17.333-39.107l.352-.211-.019-.033a20.057,20.057,0,0,0-12.261-36.875l-1.686.119,1.553.667a14.761,14.761,0,0,1-1.3,27.63l-.149.033a.9.9,0,0,1-.18.007,14.761,14.761,0,0,1-7.685-26.988l.739-.5-.859-.236a10.818,10.818,0,0,1-7.386-7.038,11.221,11.221,0,0,1,2.113-10.277l.181-.22-.143-.246A323.89,323.89,0,0,0,618.467,46.2l-.188-.179-.353.138c-.074.03-.148.059-.224.085m10.218-36.061a8.566,8.566,0,0,0-6.489-8.412l-.588-.145.084.6c.011.075.02.153.027.233a6.259,6.259,0,0,1-.539,2.881,5.157,5.157,0,0,0-.439,2.225,6.468,6.468,0,0,0,6.381,6.539c.109,0,.218,0,.327,0l.244-.009.108-.219a8.6,8.6,0,0,0,.883-3.687M675.2,14.9a9.117,9.117,0,0,0-.869-6.507,7.673,7.673,0,0,0-3.669-3.312l-.488-.21-.08.525q-.043.288-.108.573a7.917,7.917,0,0,1-1.128,2.643l-.08.106a6.46,6.46,0,0,0,4.077,9.689q.16.036.321.064l.24.041.151-.191A8.615,8.615,0,0,0,675.2,14.9m31.734,3.088c.1.042.2.081.3.119l.23.083.182-.162a8.607,8.607,0,0,0,2.2-3.084,8.912,8.912,0,0,0,.27-6.479,7.631,7.631,0,0,0-3.075-3.854l-.434-.28-.174.487q-.075.213-.163.422a7.95,7.95,0,0,1-1.517,2.349l-.121.112a6.462,6.462,0,0,0,2.293,10.288m-30.567,135.04a13.317,13.317,0,0,0,11.954,9.2l.078,0,.073-.025a13.26,13.26,0,0,0-3.547-25.813l-.078,0-.073.025a13.309,13.309,0,0,0-8.407,16.611M608.687,38.9a6.463,6.463,0,0,0,8.429,5.956l.1-.034c.083-.028.163-.06.243-.092l.29-.115.029-.242a8.621,8.621,0,0,0-9.3-9.6l-.544.05.2.508c.049.125.1.252.139.38a7.966,7.966,0,0,1,.421,2.366" transform="translate(-310.082 0.002)" fill="#eaeaea"/>
        <path id="Caminho_7796" data-name="Caminho 7796" d="M273.89,812.093a36.871,36.871,0,0,1,8.757-18.841,32.311,32.311,0,0,0,5.07-30.23,22.765,22.765,0,0,1,6.353-24.514l.383-.34-.036-.041a7.6,7.6,0,0,0,1.415-8.527,7.727,7.727,0,0,0-.6-1.058,7.609,7.609,0,0,0-.467-.614A7.3,7.3,0,0,1,305.119,717.7L303.9,718.91a5.581,5.581,0,0,0-7.872,7.851l.268.323c.126.162.246.328.36.5a9.471,9.471,0,0,1,.733,1.294,9.3,9.3,0,0,1,.7,5.824l-.211,1.04.945-.481c.3-.155.612-.3.924-.447a23.1,23.1,0,0,1,3.9-1.367,8.27,8.27,0,0,1,3.284-.107l.073.015a6.395,6.395,0,0,0,6.864-8.406c-.02-.056-.039-.112-.06-.167l1.558-.727c.045.113.086.226.125.339a8.112,8.112,0,0,1-8.673,10.67c-.068-.009-.135-.018-.2-.029l.012-.061-.578-.044a8.338,8.338,0,0,0-2,.188,21.027,21.027,0,0,0-14.712,27.345,33.71,33.71,0,0,1-.883,24.3l-.7,1.642,1.463-1.022a37.35,37.35,0,0,1,5.58-3.223,36.811,36.811,0,0,1,12.581-3.345,10.274,10.274,0,0,1,2.585-.078c.187.019.372.045.556.074l.058.006a8.473,8.473,0,0,0,8.8-7.827h.017a6.208,6.208,0,0,1,4.493-5.345,6.175,6.175,0,0,1,7.595,4.3,6.21,6.21,0,0,1,.217,1.33l-1.724-.054a4.457,4.457,0,0,0-5.629-3.919,4.488,4.488,0,0,0-3.165,3.352l-.038,0-.06.516a10.225,10.225,0,0,1-5.85,8.421c-.047.022-.1.042-.144.061l-.955.412.739.526a10.2,10.2,0,0,1,3.331,3.987,10.66,10.66,0,0,1,.724,2.234,6.674,6.674,0,1,0,12.774-3.742l1.558-.728a8.389,8.389,0,1,1-16.01,4.831,9.02,9.02,0,0,0-.6-1.869,8.5,8.5,0,0,0-6.248-4.769l-.058-.006c-.183-.011-.351-.024-.508-.039l.007-.049-.573-.024a8.4,8.4,0,0,0-1.441.074l-.284.038a35.345,35.345,0,0,0-23.576,11.835l-.111.139-.127.161-.249.263a35.226,35.226,0,0,0-7.9,17.466h0l-.063.456a35.688,35.688,0,0,1-9.277,19.619l-1.8,1.937,20.648-9.708a2.258,2.258,0,0,1,.256-.156,2.152,2.152,0,0,1,.5-.2l.091-.031a32.941,32.941,0,0,1,22.987-1.428l.464.141,0-.008a38.645,38.645,0,0,0,48.426-45.28,8.693,8.693,0,0,1-.2-2.089l.018-.5h-.018a7.653,7.653,0,0,0-1.136-3.842,7.508,7.508,0,0,0-6.768-3.609,6.41,6.41,0,0,1-5.794-3.521c-.028-.06-.055-.12-.081-.181a5.927,5.927,0,0,1,4.378-8.121l.166,1.718a4.205,4.205,0,0,0-2.962,5.737,4.62,4.62,0,0,0,4.233,2.652,9.2,9.2,0,0,1,8.289,4.426c.127.206.253.434.385.695l.374.74.494-.667a8.049,8.049,0,0,1,2.75-2.348,8.294,8.294,0,0,1,1.7-.653,4.971,4.971,0,0,0,1.042-.4,4.925,4.925,0,0,0-4.062-8.959l-.792-1.53a6.641,6.641,0,0,1,5.643,12.013,6.723,6.723,0,0,1-1.4.536,6.558,6.558,0,0,0-1.337.517,6.35,6.35,0,0,0-3.4,5.246,6.873,6.873,0,0,0,.157,1.775,40.309,40.309,0,0,1-1.532,22.266l-.584,1.614,1.372-1.029a26.478,26.478,0,0,1,25.511-3.489,8.682,8.682,0,0,1,1.576.775c.02.012.04.027.06.042s.058.041.088.061a6.953,6.953,0,0,0,7.968-.54,7.211,7.211,0,0,1,11.123,2.684,7.16,7.16,0,0,1,.3,5.032l-1.607-.62a5.493,5.493,0,0,0-3.311-6.615,5.514,5.514,0,0,0-5.433.855,8.749,8.749,0,0,1-5.558,1.916l-.826-.009.36.744a8.663,8.663,0,0,1,.5,6.312c-.467,1.595-.674,4.256.023,5.784l.026.056a6.928,6.928,0,0,0,12.571-.036l1.611.6a8.639,8.639,0,0,1-15.733.157c-.917-1.965-.74-5.116-.109-7.164a6.949,6.949,0,0,0-2.969-7.806,7.087,7.087,0,0,0-1.277-.627,24.935,24.935,0,0,0-19.479.625,24.652,24.652,0,0,0-9.887,8.354l-.044-.029-.281.436a40.327,40.327,0,0,1-45.363,16.847l-.462-.137v0a31.164,31.164,0,0,0-21.995,1.671l-13,6.109,2.605-.135a37.988,37.988,0,0,1,31.38,13.98,21.069,21.069,0,0,0,32.749-.771l.156-.192a7.924,7.924,0,0,1,.7-.766,6.14,6.14,0,0,0,1.02-7,6.543,6.543,0,0,1,8.952-8.724l-.939,1.444a4.828,4.828,0,0,0-6.481,6.506,8.034,8.034,0,0,1,.683,5.126l-.153.76.759-.158a7.834,7.834,0,0,1,6.379,1.446l.144.108a4.21,4.21,0,0,1,.455.374,6.094,6.094,0,0,0,8.892-8.329l1.19-1.243a7.81,7.81,0,0,1-11.271,10.81,2.278,2.278,0,0,0-.252-.207l-.208-.156a6.126,6.126,0,0,0-7.715.224,5.985,5.985,0,0,0-.516.5l-.02-.016-.32.413a22.786,22.786,0,0,1-28.949,6.28l-1.419-.765.854,1.711c.07.136.139.271.205.41.048.1.09.2.135.3l.3.661.017-.008a30.382,30.382,0,0,0,37.788,15l.007.016.455-.192a8.7,8.7,0,0,1,1.4-.47c.246-.058.5-.106.76-.143a6.909,6.909,0,0,0,5.475-5.523,7.447,7.447,0,0,1,4.776-5.554A7.214,7.214,0,0,1,372.1,861.9l-1.628.561-.027-.059a5.5,5.5,0,0,0-6.768-2.866,5.7,5.7,0,0,0-3.65,4.254,8.709,8.709,0,0,1-2.816,4.916l-.621.544.764.315a8.692,8.692,0,0,1,4.582,4.365,7,7,0,0,0,3.822,3.751,6.84,6.84,0,0,0,5.316-.03,6.936,6.936,0,0,0,3.826-8.617l1.581-.677a8.648,8.648,0,0,1-16.1,6.3,7,7,0,0,0-6.928-4l0-.012-.23.037-.078.01-.2.035c-.159.027-.3.051-.437.083a6.954,6.954,0,0,0-1.187.4l-.11.042a32.095,32.095,0,0,1-40.258-15.679l-.227-.433q-.129-.286-.265-.574a36.711,36.711,0,0,0-4.673-7.44l-.111-.139A36.181,36.181,0,0,0,264.9,836.074l-38.741,18.2-.73-1.554,30.409-14.286a34.237,34.237,0,0,0,17.907-25.325" transform="translate(119.58 -497.622)" fill="#eaeaea"/>
        <path id="Caminho_7797" data-name="Caminho 7797" d="M430.8,1211.219a36.869,36.869,0,0,1,18.841,8.757,32.312,32.312,0,0,0,30.23,5.069,22.766,22.766,0,0,1,24.514,6.353l.34.383.041-.036a7.6,7.6,0,0,0,8.528,1.415,7.72,7.72,0,0,0,1.058-.6,7.565,7.565,0,0,0,.614-.467,7.3,7.3,0,0,1,10.232,10.354l-1.214-1.221a5.581,5.581,0,0,0-7.851-7.872l-.323.268c-.162.126-.328.246-.5.36a9.493,9.493,0,0,1-1.294.733,9.294,9.294,0,0,1-5.825.7l-1.04-.211.481.946c.155.3.3.612.447.925a23.1,23.1,0,0,1,1.367,3.9,8.268,8.268,0,0,1,.107,3.284l-.015.073a6.394,6.394,0,0,0,8.406,6.864c.056-.019.112-.039.167-.06l.727,1.559c-.112.045-.226.086-.338.124a8.112,8.112,0,0,1-10.67-8.673c.008-.068.018-.135.029-.2l.061.012.045-.578a8.333,8.333,0,0,0-.188-2,21.026,21.026,0,0,0-27.345-14.712,33.708,33.708,0,0,1-24.3-.883l-1.642-.7,1.022,1.463a37.337,37.337,0,0,1,3.223,5.58,36.812,36.812,0,0,1,3.345,12.581,10.271,10.271,0,0,1,.078,2.585c-.019.188-.045.372-.074.555l-.006.058a8.474,8.474,0,0,0,7.827,8.8l0,.017a6.208,6.208,0,0,1,5.345,4.493,6.175,6.175,0,0,1-4.3,7.595,6.214,6.214,0,0,1-1.33.217l.054-1.724a4.407,4.407,0,0,0,.817-.147,4.455,4.455,0,0,0-.251-8.647l0-.038-.516-.06a10.224,10.224,0,0,1-8.421-5.85c-.022-.047-.042-.1-.061-.144l-.412-.955-.526.739a10.205,10.205,0,0,1-3.987,3.331,10.632,10.632,0,0,1-2.234.724,6.674,6.674,0,1,0,3.742,12.774l.727,1.558a8.389,8.389,0,1,1-4.831-16.01,9.01,9.01,0,0,0,1.869-.6,8.5,8.5,0,0,0,4.769-6.248l.006-.058c.011-.183.024-.351.039-.508l.049.007.024-.573a8.4,8.4,0,0,0-.074-1.441l-.038-.284a35.347,35.347,0,0,0-11.835-23.576l-.14-.111-.161-.127-.263-.25a35.229,35.229,0,0,0-17.466-7.9v0l-.456-.062a35.687,35.687,0,0,1-19.619-9.278l-1.937-1.8,9.708,20.648a2.231,2.231,0,0,1,.156.255,2.155,2.155,0,0,1,.2.5l.031.092a32.94,32.94,0,0,1,1.428,22.986l-.141.464.008,0a38.645,38.645,0,0,0,45.28,48.426,8.691,8.691,0,0,1,2.089-.2l.5.018v-.018a7.654,7.654,0,0,0,3.841-1.136,7.509,7.509,0,0,0,3.609-6.768,6.41,6.41,0,0,1,3.52-5.794c.06-.028.12-.054.181-.08a5.926,5.926,0,0,1,8.121,4.378l-1.717.166a4.205,4.205,0,0,0-5.737-2.962,4.621,4.621,0,0,0-2.652,4.233,9.2,9.2,0,0,1-4.426,8.289c-.206.127-.434.253-.695.385l-.74.374.667.494a8.05,8.05,0,0,1,2.348,2.75,8.282,8.282,0,0,1,.653,1.7,4.984,4.984,0,0,0,.4,1.042,4.925,4.925,0,0,0,8.959-4.062l1.53-.792a6.641,6.641,0,0,1-12.013,5.643,6.733,6.733,0,0,1-.536-1.4,6.553,6.553,0,0,0-.517-1.337,6.351,6.351,0,0,0-5.246-3.4,6.873,6.873,0,0,0-1.775.158,40.31,40.31,0,0,1-22.266-1.532l-1.614-.584,1.029,1.373a26.473,26.473,0,0,1,3.489,25.511,8.687,8.687,0,0,1-.775,1.576c-.012.02-.027.04-.042.061s-.041.058-.061.088a6.953,6.953,0,0,0,.54,7.968,7.21,7.21,0,0,1-2.684,11.122,7.159,7.159,0,0,1-5.032.3l.62-1.607a5.493,5.493,0,0,0,6.615-3.311,5.515,5.515,0,0,0-.855-5.433,8.75,8.75,0,0,1-1.916-5.558l.009-.826-.744.36a8.662,8.662,0,0,1-6.312.5c-1.595-.467-4.256-.673-5.784.023l-.055.026a6.928,6.928,0,0,0,.036,12.571l-.6,1.611a8.64,8.64,0,0,1-.157-15.733c1.965-.917,5.116-.74,7.164-.108a6.948,6.948,0,0,0,7.806-2.969,7.07,7.07,0,0,0,.627-1.277,24.934,24.934,0,0,0-.625-19.479,24.649,24.649,0,0,0-8.354-9.886l.029-.044-.436-.281a40.327,40.327,0,0,1-16.847-45.363l.137-.462h0a31.164,31.164,0,0,0-1.671-22l-6.109-13,.135,2.605a37.989,37.989,0,0,1-13.98,31.38,21.069,21.069,0,0,0,.77,32.749l.192.156a7.906,7.906,0,0,1,.767.7,6.139,6.139,0,0,0,7,1.02,6.543,6.543,0,0,1,8.724,8.951l-1.444-.939a4.827,4.827,0,0,0-6.507-6.481,8.033,8.033,0,0,1-5.126.683l-.76-.153.158.759a7.834,7.834,0,0,1-1.446,6.379l-.108.144a4.155,4.155,0,0,1-.374.455,6.094,6.094,0,0,0,8.329,8.892l1.243,1.19a7.81,7.81,0,0,1-10.81-11.271,2.263,2.263,0,0,0,.207-.252l.156-.208a6.126,6.126,0,0,0-.224-7.715,5.992,5.992,0,0,0-.5-.516l.016-.02-.414-.32a22.786,22.786,0,0,1-6.28-28.949l.765-1.419-1.711.854c-.136.07-.271.139-.41.205-.1.048-.2.091-.3.135l-.661.3.008.017a30.382,30.382,0,0,0-15,37.788l-.016.007.192.455a8.711,8.711,0,0,1,.47,1.4c.058.246.106.5.143.76a6.908,6.908,0,0,0,5.524,5.475,7.446,7.446,0,0,1,5.554,4.776,7.213,7.213,0,0,1-3.985,8.982l-.561-1.628.059-.027a5.5,5.5,0,0,0,2.865-6.768,5.7,5.7,0,0,0-4.254-3.649,8.711,8.711,0,0,1-4.916-2.816l-.544-.621-.315.764a8.692,8.692,0,0,1-4.366,4.582,7,7,0,0,0-3.751,3.822,6.841,6.841,0,0,0,.03,5.316,6.936,6.936,0,0,0,8.617,3.825l.677,1.581a8.648,8.648,0,0,1-6.3-16.1,7,7,0,0,0,4-6.929l.012,0-.037-.23c0-.026-.007-.052-.01-.078l-.034-.2c-.027-.159-.051-.3-.083-.436a6.929,6.929,0,0,0-.4-1.187l-.042-.11a32.095,32.095,0,0,1,15.679-40.258l.433-.226c.19-.086.382-.174.574-.265a36.716,36.716,0,0,0,7.44-4.673l.138-.111a36.18,36.18,0,0,0,10.916-40.775l-18.2-38.741,1.553-.73,14.286,30.409a34.237,34.237,0,0,0,25.325,17.907" transform="translate(-43.661 -808.234)" fill="#eaeaea"/>
        <path id="Caminho_7798" data-name="Caminho 7798" d="M1676.593,2414.639a5.113,5.113,0,1,1,6.306-3.538,5.118,5.118,0,0,1-6.306,3.538m2.3-8.188a3.393,3.393,0,1,0,2.348,4.185,3.4,3.4,0,0,0-2.348-4.185" transform="translate(-1599.136 -1671.444)" fill="#eaeaea"/>
        <path id="Caminho_7799" data-name="Caminho 7799" d="M1780.435,2315.641a5.109,5.109,0,1,1,.112,3.912,5.081,5.081,0,0,1-.112-3.912m1.681,3.209a3.394,3.394,0,1,0-.074-2.6,3.387,3.387,0,0,0,.074,2.6" transform="translate(-1739.067 -1607.319)" fill="#eaeaea"/>
        <path id="Caminho_7800" data-name="Caminho 7800" d="M1542.334,2390.793a5.079,5.079,0,0,1-3.828.811c-.154-.028-.305-.064-.454-.106a5.113,5.113,0,1,1,4.283-.7m-.095-6.135a3.362,3.362,0,0,0-1.87-1.345c-.1-.028-.2-.052-.307-.072a3.394,3.394,0,1,0,2.177,1.417" transform="translate(-1418.359 -1655.359)" fill="#eaeaea"/>
        <path id="Caminho_7801" data-name="Caminho 7801" d="M1711.5,2069.971q-.233-.044-.458-.107a5.13,5.13,0,1,1,.458.107m4.271-4.4a3.393,3.393,0,0,0-2.411-3.886c-.1-.028-.2-.051-.3-.07a3.393,3.393,0,0,0-3.419,5.255,3.409,3.409,0,0,0,2.177,1.416,3.393,3.393,0,0,0,3.956-2.714" transform="translate(-1644.099 -1431.795)" fill="#eaeaea"/>
        <path id="Caminho_7802" data-name="Caminho 7802" d="M1461.871,2132.249a5.109,5.109,0,1,1,.111,3.912,5.081,5.081,0,0,1-.111-3.912m1.681,3.208a3.393,3.393,0,1,0,4.3-4.557c-.1-.037-.2-.069-.293-.1a3.393,3.393,0,0,0-4.011,4.654" transform="translate(-1323.375 -1479.843)" fill="#eaeaea"/>
        <path id="Caminho_7803" data-name="Caminho 7803" d="M1789.527,2186.424a5.113,5.113,0,1,1,6.307-3.538,5.118,5.118,0,0,1-6.307,3.538m2.3-8.188a3.393,3.393,0,1,0,2.348,4.185,3.4,3.4,0,0,0-2.348-4.185" transform="translate(-1746.503 -1512.811)" fill="#eaeaea"/>
        <path id="Caminho_7804" data-name="Caminho 7804" d="M1496.931,2029.253a17.942,17.942,0,0,0,17.078-4.056l1.174,1.258a19.805,19.805,0,0,1-32.353-8.981,17.284,17.284,0,0,0-12.066-12.12,17.469,17.469,0,0,0-4.5-.652l-.157,0-9.6,34.141.135.081a17.423,17.423,0,0,0,20.811-2.285,19.805,19.805,0,0,1,32.271,9.218l-1.657.461a18.084,18.084,0,0,0-29.452-8.41,19,19,0,0,1-18.263,4.46c-.322-.09-.64-.192-.956-.3l-.617-.209.386.524c.132.179.262.36.388.543a18.976,18.976,0,0,1,1.656,18.7,18.085,18.085,0,0,0,17.417,25.213l.1,1.718a19.8,19.8,0,0,1-19.087-27.623,17.372,17.372,0,0,0-4.4-20.293l-.119-.1-.131.089-29.2,19.957.054.149a17.369,17.369,0,0,0,17.4,11.472,19.8,19.8,0,0,1,18.874,27.752l-1.568-.708a18.085,18.085,0,0,0-17.226-25.326,18.991,18.991,0,0,1-16.88-8.275c-.249-.364-.5-.755-.738-1.165l-.272-.463-.106.527c-.1.478-.211.957-.343,1.426a18.975,18.975,0,0,1-13.3,13.253,18.084,18.084,0,0,0-8.2,29.526l-1.258,1.174a19.8,19.8,0,0,1,8.981-32.352,17.288,17.288,0,0,0,12.12-12.066,17.462,17.462,0,0,0,.651-4.5l0-.157-34.141-9.6-.08.135a17.421,17.421,0,0,0,2.284,20.812,19.8,19.8,0,0,1-9.217,32.271l-.462-1.657a18.085,18.085,0,0,0,8.41-29.452,19,19,0,0,1-4.46-18.262c.15-.534.327-1.069.542-1.635l.2-.527-.492.276c-.526.3-1.049.559-1.554.785a18.974,18.974,0,0,1-18.7-1.72,18.084,18.084,0,0,0-27.924,12.619l-1.708-.213a19.8,19.8,0,0,1,30.595-13.831,17.363,17.363,0,0,0,21.008-.908l.118-.1-13.973-32.345-.152.019a17.409,17.409,0,0,0-15.152,15.175,19.805,19.805,0,0,1-30.684,13.6l.977-1.416a18.086,18.086,0,0,0,28-12.411,19,19,0,0,1,11.164-15.125c.19-.085.383-.165.575-.244l.546-.225-.569-.162a18.98,18.98,0,0,1-13.2-13.281,18.084,18.084,0,0,0-29.525-8.2l-1.174-1.258a19.8,19.8,0,0,1,32.352,8.981,17.286,17.286,0,0,0,12.066,12.12,17.484,17.484,0,0,0,4.5.652l.157,0,9.6-34.141-.135-.08a17.491,17.491,0,0,0-4.177-1.788,17.309,17.309,0,0,0-16.635,4.072,19.8,19.8,0,0,1-32.271-9.217l1.657-.462a18.084,18.084,0,0,0,29.452,8.41,19,19,0,0,1,18.263-4.459c.064.018.128.038.192.057l.709.212-.4-.554c-.077-.106-.154-.212-.229-.32a18.975,18.975,0,0,1-1.656-18.7,18.085,18.085,0,0,0-17.416-25.213l-.1-1.718a19.8,19.8,0,0,1,19.086,27.623,17.365,17.365,0,0,0,4.669,20.516l.12.1,29.125-20.085-.051-.148a17.369,17.369,0,0,0-17.459-11.655,19.8,19.8,0,0,1-18.874-27.752l1.568.707a18.084,18.084,0,0,0,17.226,25.326,19,19,0,0,1,16.879,8.275c.314.458.623.956.917,1.481l.276.492.1-.554c.11-.587.241-1.151.389-1.679a18.976,18.976,0,0,1,13.3-13.253,18.084,18.084,0,0,0,8.2-29.526l1.258-1.173a19.805,19.805,0,0,1-8.981,32.353,17.284,17.284,0,0,0-12.121,12.065,17.5,17.5,0,0,0-.651,4.5l0,.157,34.141,9.6.08-.135a17.42,17.42,0,0,0-2.284-20.812,19.805,19.805,0,0,1,9.217-32.271l.462,1.657a18.084,18.084,0,0,0-8.41,29.452,19,19,0,0,1,4.46,18.262c-.132.469-.284.938-.45,1.4l-.184.5.473-.254c.415-.223.831-.428,1.237-.61a18.971,18.971,0,0,1,18.7,1.72,18.084,18.084,0,0,0,27.924-12.62l1.707.214a19.8,19.8,0,0,1-30.595,13.831,17.367,17.367,0,0,0-20.808.743l-.123.1,14.254,32.452.155-.024a17.428,17.428,0,0,0,14.672-15.113,19.767,19.767,0,0,1,30.684-13.6l-.977,1.416a18.085,18.085,0,0,0-28,12.411,19,19,0,0,1-11.165,15.125c-.13.058-.26.112-.391.167l-.606.252.706.185c.07.018.139.035.209.055a18.975,18.975,0,0,1,13.253,13.3,18.046,18.046,0,0,0,12.448,12.256m-32.385-25.34-.03-.067-14.465-32.933-34.6-9.73-.08.054-29.716,20.492-9.783,34.787.029.067,14.243,32.971,34.525,9.71.079-.054,30.014-20.515Z" transform="translate(-1325.237 -1328.005)" fill="#eaeaea"/>
        <path id="Caminho_7805" data-name="Caminho 7805" d="M1445.62,2283.14a5.113,5.113,0,1,1,6.307-3.537,5.118,5.118,0,0,1-6.307,3.537m2.3-8.188a3.393,3.393,0,1,0,2.348,4.185,3.4,3.4,0,0,0-2.348-4.185" transform="translate(-1297.74 -1580.039)" fill="#eaeaea"/>
        <path id="Caminho_7806" data-name="Caminho 7806" d="M1571.741,2047.047q-.233-.044-.458-.107a5.13,5.13,0,1,1,.458.107m4.271-4.4a3.394,3.394,0,0,0-2.412-3.886c-.1-.028-.2-.051-.3-.07a3.393,3.393,0,0,0-3.419,5.255,3.409,3.409,0,0,0,2.177,1.416,3.393,3.393,0,0,0,3.957-2.714" transform="translate(-1461.728 -1415.86)" fill="#eaeaea"/>
        <path id="Caminho_7807" data-name="Caminho 7807" d="M909.654,1432.224c.109-.154.2-.266.3-.389.085-.1.176-.212.284-.354l.1-.12c.138-.172.276-.343.42-.51l.134-.156a12.044,12.044,0,0,0-13.539-18.657c-.151.052-.3.114-.443.175l-.178.075-1.095.513c-.087.042-.142.064-.2.091s-.121.052-.218.1l-1.3.49a16.874,16.874,0,0,1-18.083-27.113l1.472-1.689-1.975,1.059c-.265.142-6.366,3.477-8.328,9.852l-.239-.107c3.009-10.766,13.039-14.243,13.124-14.277a20.271,20.271,0,0,1,14.6.494c2.411.908,6.486,4.352,6.528,4.386l.128.109.167-.012c1.9-.141,20.2-6.1,26.777-8.074l.165.478-27.846,9.626-.326-.389a14.862,14.862,0,0,0-3.815-3.234l-1.227-.6c-.42-.217-.9-.434-1.5-.679a15.039,15.039,0,1,0-.087,28.388c.44-.152.875-.325,1.294-.514l.1-.045a14.1,14.1,0,0,1,1.9-.839,13.888,13.888,0,0,1,16.165,20.729l-.61.86c-.2.264-.429.536-.663.8a24.393,24.393,0,0,0-2.275,3.353,24.007,24.007,0,0,0-2.265,18.1l28.312,81.824-1.743.6-28.318-81.84-.021-.071a25.832,25.832,0,0,1,2.428-19.514c.275-.49.587-1,.982-1.6" transform="translate(-605.68 -957.923)" fill="#eaeaea"/>
        <path id="Caminho_7808" data-name="Caminho 7808" d="M988.3,1611.7l.158.124h0l-.176-.1.018-.025" transform="translate(-695.779 -1120.298)" fill="#eaeaea"/>
        <path id="Caminho_7809" data-name="Caminho 7809" d="M997.912,1581.522a84.232,84.232,0,0,1-21.125,4.3l.108-1.386c.507-2.875,1.51-6.852,2.277-9.5a79.718,79.718,0,0,1,19.863-32.616,85.987,85.987,0,0,1,32.494-20.6h0l.089-.032.091-.031.076-.028.082-.028h0l.152-.053a83.328,83.328,0,0,1,10.528-2.865,73.982,73.982,0,0,1-10.868,25.855c-7.883,11.63-23.109,26.654-50.883,32.186l-.257.051-1.652,6.891.559-.042a73.781,73.781,0,0,0,18.689-3.815c15.136-5.237,28.317-15.542,39.361-30.8a76.331,76.331,0,0,1-39.582,32.517h0m-16.069-6.9a91.806,91.806,0,0,0,10.8-3c19.549-6.764,31.027-18.594,37.44-28.02a70.822,70.822,0,0,0,10.014-21.979l.16-.649-.651.152a68.907,68.907,0,0,0-7.3,2.275c-.6.212-1.224.43-1.865.652a78.69,78.69,0,0,0-49.07,50.042l-.219.676Z" transform="translate(-746.359 -1055.639)" fill="#eaeaea"/>
        <path id="Caminho_7810" data-name="Caminho 7810" d="M989.86,1610.871Z" transform="translate(-697.658 -1119.719)" fill="#eaeaea"/>
        <path id="Caminho_7811" data-name="Caminho 7811" d="M972.783,1913.952h0a57.984,57.984,0,0,0-4.741-25.43,57,57,0,0,0-15.623-21.305c-.014-.012-.029-.025-.042-.04a46.044,46.044,0,0,1-6.445-8.036l-.056-.091a47.169,47.169,0,1,1,43.653,20.064l-.168.016-.052,0a13.383,13.383,0,0,1-4.281-.625,13.03,13.03,0,0,1,2.866-25.427l.04,0c12.755-.374,23.757-8.524,26.749-19.819,4.206-15.874-3.359-31.022-17.988-36.019a29.547,29.547,0,0,0-22.92,1.7c-7.3,3.748-12.5,9.716-14.633,16.8l-.652-.2a28.986,28.986,0,0,1,14.583-17.974,31.063,31.063,0,0,1,24.119-1.783c15.414,5.265,23.4,21.19,18.977,37.866-3.164,11.94-14.745,20.559-28.161,20.96a11.493,11.493,0,0,0-2.522,22.428,11.816,11.816,0,0,0,3.733.557l.152-.014a45.651,45.651,0,1,0-42.141-19.28l.159.258a44.21,44.21,0,0,0,6.041,7.5,58.531,58.531,0,0,1,16.031,21.874c3.157,7.6,4.429,16.12,3.892,26.05Z" transform="translate(-723.655 -1240.754)" fill="#eaeaea"/>
        <path id="Caminho_7812" data-name="Caminho 7812" d="M1070.952,2167.237l.13-.043a7.972,7.972,0,0,1,10.39,7.435h-.006l-.011.414a6.449,6.449,0,0,0,.341,2.25,6.515,6.515,0,0,0,.707,1.458l.56.86-.989.274a10.114,10.114,0,0,1-12.682-11.053l.027-.206-.151-.144a325.555,325.555,0,0,1-55.4-69.273l-.834-1.4.073,1.627a120.111,120.111,0,0,0,5.62,31.233,118.821,118.821,0,0,0,25.776,44.455l.164.157A180.525,180.525,0,0,1,1061.5,2197.7l.127.2.33-.015c.119-.006.238-.012.358-.01a7.963,7.963,0,0,1,7.866,8.06,6.357,6.357,0,0,1-.461,2.538l-.01-.01-.221.616a4.177,4.177,0,0,0-.292,1.806,2.1,2.1,0,0,0,.5,1.265c.039.048.072.089.1.124l.863,1.206-1.483-.018a10.062,10.062,0,0,1-9.938-10.184,10.129,10.129,0,0,1,1.044-4.334l.1-.207-.123-.195a179.049,179.049,0,0,0-16.683-22.226l-.145-.14a120.288,120.288,0,0,1-26.134-45.05,121.735,121.735,0,0,1-5.629-30.493l-.109-2.015-.685,1.9a121.273,121.273,0,0,0,4.4,92.75l.093.2.216.033c.188.028.376.06.561.1a7.968,7.968,0,0,1,4.976,12.026l-.117.155a6.5,6.5,0,0,0-1.011,3.766l.043.982-.959-.217a9.222,9.222,0,0,1-5.967-4.372,10.539,10.539,0,0,1-1.107-7.7,10.14,10.14,0,0,1,1.856-3.933l.153-.2-.106-.227a124.268,124.268,0,0,1-5.864-14.908,122.024,122.024,0,0,1-.422-73.431l1.123-3.648-1.871,3.327a196.272,196.272,0,0,0-25.053,88.389l-.011.292.385.147c.042.015.083.03.124.047a7.97,7.97,0,0,1,2.805,12.707l-.133.124a6.481,6.481,0,0,0-1.645,3.409l-.147.951-.887-.373a9.209,9.209,0,0,1-5.181-5.4,10.412,10.412,0,0,1,.3-7.57,10.1,10.1,0,0,1,2.731-3.744l.136-.117.006-.18a197.36,197.36,0,0,1,31.27-99.431,9.668,9.668,0,0,0,2.43-9.521,9.239,9.239,0,0,0-8.866-6.376c-.327.016-.661.02-1.034.012h-.072l-.157.054c-.074.026-.15.051-.226.075a21.56,21.56,0,0,1-17.892-38.884l.346-.213-.015-.026a19.964,19.964,0,0,0,8.416-23.1c-3.331-10.4-14.628-16.9-25.047-13.8l-.237-.74a21.56,21.56,0,0,1,17.333,39.107l-.352.212.02.033a20.057,20.057,0,0,0,12.261,36.875l1.686-.119-1.554-.666a14.762,14.762,0,0,1,1.3-27.63l.149-.033a.864.864,0,0,1,.18-.008,14.761,14.761,0,0,1,7.685,26.989l-.738.5.859.236a10.819,10.819,0,0,1,7.386,7.038,11.219,11.219,0,0,1-2.113,10.276l-.181.22.143.247a323.906,323.906,0,0,0,56.915,72.04l.188.179.353-.138c.074-.03.148-.059.224-.085m-10.218,36.061a8.567,8.567,0,0,0,6.489,8.412l.588.145-.084-.6c-.011-.075-.02-.153-.027-.232a6.261,6.261,0,0,1,.539-2.88,5.158,5.158,0,0,0,.439-2.225,6.467,6.467,0,0,0-6.381-6.539c-.109,0-.218,0-.327,0l-.244.009-.108.219a8.6,8.6,0,0,0-.883,3.687m-47.276-4.723a9.117,9.117,0,0,0,.869,6.507,7.672,7.672,0,0,0,3.669,3.313l.488.21.08-.525q.043-.287.108-.573a7.917,7.917,0,0,1,1.128-2.644l.08-.106a6.461,6.461,0,0,0-4.077-9.689c-.107-.024-.214-.045-.321-.064l-.24-.042-.151.191a8.616,8.616,0,0,0-1.633,3.421m-31.734-3.088c-.1-.042-.2-.082-.3-.119l-.23-.083-.182.162a8.6,8.6,0,0,0-2.2,3.084,8.914,8.914,0,0,0-.271,6.479,7.633,7.633,0,0,0,3.075,3.854l.434.28.174-.487q.075-.213.163-.422a7.959,7.959,0,0,1,1.517-2.349l.121-.112a6.461,6.461,0,0,0-2.293-10.288m30.567-135.04a13.318,13.318,0,0,0-11.954-9.2l-.077,0-.073.025a13.26,13.26,0,0,0,3.547,25.813l.077,0,.073-.025a13.309,13.309,0,0,0,8.407-16.612m67.676,114.136a6.463,6.463,0,0,0-8.429-5.956l-.1.034c-.083.028-.163.06-.243.092l-.29.115-.029.242a8.621,8.621,0,0,0,9.3,9.6l.544-.05-.2-.509c-.049-.125-.1-.252-.139-.38a7.966,7.966,0,0,1-.421-2.367" transform="translate(-784.564 -1390.939)" fill="#eaeaea"/>
        <path id="Caminho_7813" data-name="Caminho 7813" d="M1263.356,1511.717a36.87,36.87,0,0,1-8.757,18.841,32.312,32.312,0,0,0-5.069,30.23,22.765,22.765,0,0,1-6.353,24.514l-.383.34.036.041a7.6,7.6,0,0,0-1.415,8.528,7.769,7.769,0,0,0,.6,1.058,7.533,7.533,0,0,0,.467.614,7.3,7.3,0,0,1-10.354,10.232l1.221-1.214a5.582,5.582,0,0,0,7.872-7.852l-.268-.323q-.189-.243-.36-.5a9.446,9.446,0,0,1-.733-1.294,9.3,9.3,0,0,1-.7-5.825l.211-1.04-.945.481q-.456.233-.924.447a23.152,23.152,0,0,1-3.9,1.367,8.273,8.273,0,0,1-3.284.107l-.073-.015a6.394,6.394,0,0,0-6.864,8.406c.019.056.039.112.06.168l-1.558.727c-.045-.113-.086-.226-.125-.338a8.112,8.112,0,0,1,8.673-10.67l.2.029-.012.061.578.045a8.362,8.362,0,0,0,2-.187,21.027,21.027,0,0,0,14.712-27.345,33.709,33.709,0,0,1,.883-24.3l.7-1.642-1.463,1.022a37.36,37.36,0,0,1-5.58,3.223,36.8,36.8,0,0,1-12.581,3.345,10.264,10.264,0,0,1-2.586.078c-.187-.019-.372-.046-.556-.074l-.058-.006a8.473,8.473,0,0,0-8.8,7.827h-.017a6.208,6.208,0,0,1-4.493,5.345,6.175,6.175,0,0,1-7.595-4.3,6.215,6.215,0,0,1-.217-1.33l1.724.054a4.455,4.455,0,0,0,8.794.566l.038,0,.06-.516a10.224,10.224,0,0,1,5.849-8.421c.047-.022.1-.042.144-.061l.955-.412-.739-.526a10.207,10.207,0,0,1-3.331-3.987,10.663,10.663,0,0,1-.724-2.234,6.674,6.674,0,1,0-12.774,3.742l-1.558.728a8.39,8.39,0,1,1,16.01-4.831,9.024,9.024,0,0,0,.6,1.869,8.5,8.5,0,0,0,6.248,4.769l.057.006c.183.011.351.024.508.039l-.007.049.573.024a8.445,8.445,0,0,0,1.441-.074l.284-.039a35.344,35.344,0,0,0,23.576-11.834l.111-.14.127-.161.249-.263a35.224,35.224,0,0,0,7.9-17.466h0l.063-.456a35.686,35.686,0,0,1,9.277-19.619l1.8-1.937-20.648,9.708a2.239,2.239,0,0,1-.255.156,2.138,2.138,0,0,1-.5.2l-.091.031a32.941,32.941,0,0,1-22.987,1.428l-.464-.141,0,.008a38.645,38.645,0,0,0-48.426,45.28,8.705,8.705,0,0,1,.2,2.089l-.018.5h.018a7.653,7.653,0,0,0,1.136,3.841,7.508,7.508,0,0,0,6.768,3.609,6.409,6.409,0,0,1,5.794,3.52c.028.06.054.12.08.181a5.927,5.927,0,0,1-4.378,8.121l-.167-1.718a4.206,4.206,0,0,0,2.963-5.737,4.621,4.621,0,0,0-4.233-2.652,9.2,9.2,0,0,1-8.289-4.426c-.127-.206-.253-.434-.385-.695l-.374-.74-.494.667a8.054,8.054,0,0,1-2.75,2.348,8.27,8.27,0,0,1-1.7.653,4.981,4.981,0,0,0-1.042.4,4.925,4.925,0,0,0,4.062,8.959l.792,1.53a6.641,6.641,0,0,1-5.644-12.013,6.757,6.757,0,0,1,1.4-.536,6.556,6.556,0,0,0,1.337-.517,6.35,6.35,0,0,0,3.4-5.246,6.873,6.873,0,0,0-.157-1.775,40.309,40.309,0,0,1,1.532-22.266l.584-1.614-1.373,1.029a26.476,26.476,0,0,1-25.511,3.489,8.691,8.691,0,0,1-1.576-.775c-.02-.013-.04-.028-.06-.042s-.058-.041-.088-.061a6.955,6.955,0,0,0-7.968.54,7.211,7.211,0,0,1-11.123-2.684,7.159,7.159,0,0,1-.3-5.032l1.606.619a5.493,5.493,0,0,0,3.311,6.615,5.515,5.515,0,0,0,5.433-.854,8.749,8.749,0,0,1,5.558-1.916l.826.009-.36-.744a8.664,8.664,0,0,1-.5-6.312c.467-1.595.674-4.256-.023-5.784l-.026-.055a6.928,6.928,0,0,0-12.57.036l-1.612-.6a8.639,8.639,0,0,1,15.733-.157c.917,1.965.74,5.116.108,7.164a6.949,6.949,0,0,0,2.969,7.806,7.07,7.07,0,0,0,1.277.627,24.934,24.934,0,0,0,19.479-.625,24.65,24.65,0,0,0,9.887-8.354l.043.029.281-.436a40.327,40.327,0,0,1,45.362-16.847l.462.137v0a31.165,31.165,0,0,0,22-1.671l13-6.109-2.605.135a37.99,37.99,0,0,1-31.38-13.98,21.069,21.069,0,0,0-32.749.771l-.156.192a7.911,7.911,0,0,1-.7.767,6.141,6.141,0,0,0-1.019,7,6.543,6.543,0,0,1-8.952,8.724l.939-1.444a4.828,4.828,0,0,0,6.481-6.507,8.036,8.036,0,0,1-.683-5.126l.153-.76-.76.158a7.834,7.834,0,0,1-6.378-1.446l-.144-.108a4.188,4.188,0,0,1-.455-.374,6.094,6.094,0,0,0-8.892,8.329l-1.19,1.243a7.81,7.81,0,0,1,11.271-10.81,2.237,2.237,0,0,0,.252.207l.208.156a6.126,6.126,0,0,0,7.715-.224,5.953,5.953,0,0,0,.516-.5l.02.016.32-.413a22.785,22.785,0,0,1,28.949-6.281l1.419.765-.854-1.711c-.07-.136-.139-.271-.205-.41-.048-.1-.09-.2-.135-.3l-.3-.661-.017.009a30.382,30.382,0,0,0-37.787-15l-.007-.015-.455.192a8.721,8.721,0,0,1-1.4.47c-.246.058-.5.106-.76.143a6.908,6.908,0,0,0-5.475,5.524,7.446,7.446,0,0,1-4.776,5.554,7.214,7.214,0,0,1-8.982-3.985l1.628-.562.027.059a5.5,5.5,0,0,0,6.768,2.865,5.7,5.7,0,0,0,3.65-4.254,8.706,8.706,0,0,1,2.816-4.916l.622-.544-.764-.314a8.694,8.694,0,0,1-4.582-4.366,7,7,0,0,0-3.822-3.751,6.84,6.84,0,0,0-5.316.03,6.936,6.936,0,0,0-3.826,8.617l-1.581.677a8.648,8.648,0,0,1,16.1-6.3,7,7,0,0,0,6.929,4l0,.011.229-.037.078-.01.2-.034c.159-.027.3-.051.437-.083a6.928,6.928,0,0,0,1.188-.4l.11-.042a32.094,32.094,0,0,1,40.258,15.679l.227.433c.086.191.174.383.265.574a36.7,36.7,0,0,0,4.672,7.44l.111.138a36.181,36.181,0,0,0,40.775,10.916l38.741-18.2.729,1.554-30.409,14.286A34.235,34.235,0,0,0,1263.5,1510.7" transform="translate(-1062.818 -1003.647)" fill="#eaeaea"/>
        <path id="Caminho_7814" data-name="Caminho 7814" d="M1143.465,1075.566a36.867,36.867,0,0,1-18.84-8.757,32.313,32.313,0,0,0-30.23-5.069,22.765,22.765,0,0,1-24.514-6.353l-.34-.383-.041.036a7.6,7.6,0,0,0-8.527-1.415,7.718,7.718,0,0,0-1.058.6,7.507,7.507,0,0,0-.615.467,7.3,7.3,0,0,1-10.232-10.354l1.214,1.221a5.582,5.582,0,0,0,7.852,7.872l.323-.268q.243-.189.5-.36a9.454,9.454,0,0,1,1.294-.733,9.3,9.3,0,0,1,5.824-.7l1.04.211-.481-.946q-.232-.456-.447-.924a23.091,23.091,0,0,1-1.367-3.9,8.274,8.274,0,0,1-.107-3.284l.015-.073a6.394,6.394,0,0,0-8.406-6.864c-.056.02-.112.039-.167.06l-.727-1.558c.113-.045.226-.086.339-.125a8.112,8.112,0,0,1,10.67,8.673c-.008.068-.018.135-.029.2l-.06-.012-.045.578a8.368,8.368,0,0,0,.188,2,21.027,21.027,0,0,0,27.345,14.712,33.71,33.71,0,0,1,24.3.883l1.641.7-1.022-1.463a37.323,37.323,0,0,1-3.223-5.58,36.813,36.813,0,0,1-3.345-12.581,10.281,10.281,0,0,1-.078-2.586c.019-.187.046-.372.074-.555l.006-.058a8.473,8.473,0,0,0-7.827-8.8v-.017a6.208,6.208,0,0,1-5.346-4.493,6.175,6.175,0,0,1,4.3-7.595,6.2,6.2,0,0,1,1.33-.217l-.054,1.724a4.455,4.455,0,0,0-.566,8.794l0,.038.516.06a10.225,10.225,0,0,1,8.421,5.85c.022.047.042.1.061.144l.412.955.526-.739a10.2,10.2,0,0,1,3.987-3.331,10.663,10.663,0,0,1,2.234-.724,6.674,6.674,0,1,0-3.742-12.774l-.727-1.558a8.389,8.389,0,1,1,4.83,16.01,9.019,9.019,0,0,0-1.869.6,8.5,8.5,0,0,0-4.769,6.248l-.006.057c-.011.183-.024.351-.039.508l-.049-.007-.024.573a8.444,8.444,0,0,0,.074,1.441l.038.284a35.345,35.345,0,0,0,11.835,23.576l.14.111.161.127.262.249a35.226,35.226,0,0,0,17.466,7.9v0l.456.063a35.688,35.688,0,0,1,19.619,9.277l1.937,1.8-9.709-20.648a2.229,2.229,0,0,1-.156-.255,2.162,2.162,0,0,1-.2-.5l-.031-.091a32.941,32.941,0,0,1-1.428-22.987l.141-.464-.008,0a38.645,38.645,0,0,0-45.28-48.426,8.684,8.684,0,0,1-2.089.2l-.5-.018v.018a7.652,7.652,0,0,0-3.841,1.136,7.508,7.508,0,0,0-3.609,6.768,6.411,6.411,0,0,1-3.521,5.794c-.06.028-.12.055-.181.08a5.927,5.927,0,0,1-8.12-4.378l1.717-.167a4.246,4.246,0,0,0,.23.719,4.2,4.2,0,0,0,5.507,2.243,4.621,4.621,0,0,0,2.652-4.233,9.2,9.2,0,0,1,4.426-8.289c.206-.127.434-.253.695-.385l.74-.374-.667-.494a8.046,8.046,0,0,1-2.348-2.75,8.289,8.289,0,0,1-.653-1.7,4.968,4.968,0,0,0-.4-1.042,4.925,4.925,0,0,0-8.959,4.062l-1.53.792a6.641,6.641,0,0,1,12.013-5.643,6.7,6.7,0,0,1,.536,1.4,6.552,6.552,0,0,0,.517,1.337,6.35,6.35,0,0,0,5.246,3.4,6.877,6.877,0,0,0,1.775-.157A40.308,40.308,0,0,1,1131,991.5l1.614.584-1.029-1.373a26.474,26.474,0,0,1-3.489-25.511,8.716,8.716,0,0,1,.775-1.576c.013-.02.027-.04.042-.06s.041-.058.061-.088a6.953,6.953,0,0,0-.54-7.968,7.211,7.211,0,0,1,2.684-11.123,7.159,7.159,0,0,1,5.032-.3l-.62,1.606a5.494,5.494,0,0,0-6.615,3.311,5.515,5.515,0,0,0,.854,5.433,8.749,8.749,0,0,1,1.917,5.558l-.009.826.744-.36a8.662,8.662,0,0,1,6.312-.5c1.595.467,4.256.674,5.784-.024l.055-.026a6.928,6.928,0,0,0-.036-12.571l.6-1.611a8.639,8.639,0,0,1,.157,15.733c-1.965.917-5.116.74-7.164.109a6.948,6.948,0,0,0-7.806,2.969,7.1,7.1,0,0,0-.627,1.277,24.934,24.934,0,0,0,.625,19.479,24.649,24.649,0,0,0,8.354,9.886l-.029.044.436.281a40.327,40.327,0,0,1,16.847,45.363l-.137.462h0a31.163,31.163,0,0,0,1.671,21.995l6.109,13-.135-2.605a37.988,37.988,0,0,1,13.98-31.38,21.069,21.069,0,0,0-.771-32.749l-.191-.156a7.88,7.88,0,0,1-.767-.7,6.14,6.14,0,0,0-7-1.02,6.543,6.543,0,0,1-8.724-8.951l1.444.939a4.828,4.828,0,0,0,6.507,6.481,8.033,8.033,0,0,1,5.126-.683l.76.153-.157-.76a7.833,7.833,0,0,1,1.446-6.378l.108-.144a4.164,4.164,0,0,1,.374-.455,6.094,6.094,0,0,0-8.329-8.892l-1.243-1.19a7.81,7.81,0,0,1,10.81,11.271,2.3,2.3,0,0,0-.207.252l-.155.208a6.126,6.126,0,0,0,.224,7.715,5.951,5.951,0,0,0,.5.516l-.016.02.413.32a22.787,22.787,0,0,1,6.281,28.949l-.765,1.419,1.711-.854c.136-.07.271-.139.41-.205.1-.048.2-.09.3-.135l.661-.3-.008-.017a30.381,30.381,0,0,0,15-37.787l.016-.007-.192-.455a8.686,8.686,0,0,1-.47-1.4c-.058-.246-.107-.5-.143-.76a6.909,6.909,0,0,0-5.524-5.475,7.447,7.447,0,0,1-5.554-4.776,7.214,7.214,0,0,1,3.985-8.983l.561,1.628-.059.027a5.5,5.5,0,0,0-2.865,6.768,5.7,5.7,0,0,0,4.254,3.65,8.71,8.71,0,0,1,4.916,2.816l.543.621.315-.764a8.691,8.691,0,0,1,4.366-4.582,7,7,0,0,0,3.752-3.822,6.841,6.841,0,0,0-.03-5.316,6.936,6.936,0,0,0-8.617-3.826l-.677-1.581a8.648,8.648,0,0,1,6.3,16.1,7,7,0,0,0-4,6.928l-.012,0,.037.23c0,.026.007.052.01.078l.034.2c.027.159.051.3.083.436a6.931,6.931,0,0,0,.4,1.188l.042.11a32.094,32.094,0,0,1-15.679,40.258l-.433.227c-.19.086-.382.174-.574.265a36.708,36.708,0,0,0-7.44,4.672l-.138.111a36.181,36.181,0,0,0-10.916,40.775l18.2,38.741-1.553.73-14.286-30.409a34.237,34.237,0,0,0-25.325-17.907" transform="translate(-936.6 -656.009)" fill="#eaeaea"/>
      </g>
    </g>
  </g>
</svg>
