<svg xmlns="http://www.w3.org/2000/svg" xmlns:xlink="http://www.w3.org/1999/xlink" width="22" height="22" viewBox="0 0 22 22">
    <defs>
      <clipPath id="clip-path">
        <rect id="Retângulo_864" data-name="Retângulo 864" width="22" height="22" transform="translate(-0.327)" fill="#313131"/>
      </clipPath>
    </defs>
    <g id="Grupo_596" data-name="Grupo 596" transform="translate(0.327)">
      <g id="Grupo_595" data-name="Grupo 595" clip-path="url(#clip-path)">
        <path id="Caminho_7209" data-name="Caminho 7209" d="M7.434,76.724c-.235-.157-.391-.235-.626-.391a2.7,2.7,0,0,0,.548-1.565A2.623,2.623,0,0,0,4.7,72.185a2.623,2.623,0,0,0-2.661,2.583,2.911,2.911,0,0,0,.548,1.565A4.644,4.644,0,0,0,0,80.559a.739.739,0,0,0,.782.783H8.608a.739.739,0,0,0,.782-.783,4.783,4.783,0,0,0-1.956-3.835" transform="translate(0 -59.341)" fill="#313131"/>
        <path id="Caminho_7210" data-name="Caminho 7210" d="M37.012,0H25.273a3.14,3.14,0,0,0-3.13,3.13v8.139a2.668,2.668,0,0,1,.783-.078,4.192,4.192,0,0,1,4.226,4.148,4.578,4.578,0,0,1-.157,1.017,6.362,6.362,0,0,1,2.191,4.7,2.314,2.314,0,0,1-.156.782h7.982a3.139,3.139,0,0,0,3.13-3.13V3.13A3.139,3.139,0,0,0,37.012,0M35.447,14.869H29.969a.783.783,0,1,1,0-1.565h5.478a.783.783,0,1,1,0,1.565m0-3.13H28.4a.783.783,0,1,1,0-1.565h7.043a.783.783,0,1,1,0,1.565m0-3.13H26.839a.739.739,0,0,1-.783-.782.74.74,0,0,1,.783-.783h8.608a.74.74,0,0,1,.783.783.739.739,0,0,1-.783.782m0-3.13H26.839a.739.739,0,0,1-.783-.783.739.739,0,0,1,.783-.782h8.608a.739.739,0,0,1,.783.782.739.739,0,0,1-.783.783" transform="translate(-18.23 0.088)" fill="#313131"/>
      </g>
    </g>
  </svg>
  