<svg xmlns="http://www.w3.org/2000/svg" xmlns:xlink="http://www.w3.org/1999/xlink" width="1920" height="1080" viewBox="0 0 1920 1080">
  <defs>
    <clipPath id="clip-path">
      <rect id="Retângulo_1339" data-name="Retângulo 1339" width="1920" height="1080" transform="translate(0 245)" fill="#f3f3f0"/>
    </clipPath>
    <clipPath id="clip-path-2">
      <rect id="Retângulo_1183" data-name="Retângulo 1183" width="2086.306" height="2888.975" fill="#b6aa9f"/>
    </clipPath>
  </defs>
  <g id="Grupo_1906" data-name="Grupo 1906" transform="translate(0)">
    <rect id="Retângulo_1182" data-name="Retângulo 1182" width="1920" height="1080" fill="#f3f3f0"/>
    <g id="Grupo_de_máscara_72" data-name="Grupo de máscara 72" transform="translate(0 -245)" clip-path="url(#clip-path)">
      <g id="Grupo_1109" data-name="Grupo 1109" transform="translate(195.347 -698.604)" opacity="0.04">
        <g id="Grupo_1108" data-name="Grupo 1108" transform="translate(0 -0.002)" clip-path="url(#clip-path-2)">
          <path id="Caminho_7781" data-name="Caminho 7781" d="M254.912,260.285A17.958,17.958,0,1,0,277.06,272.71a17.977,17.977,0,0,0-22.148-12.425M263,289.043a11.916,11.916,0,1,1,8.246-14.7,11.931,11.931,0,0,1-8.246,14.7" transform="translate(17.139 18.403)" fill="#b6aa9f"/>
          <path id="Caminho_7782" data-name="Caminho 7782" d="M135.756,376.227a17.947,17.947,0,1,0,.393-13.739,17.843,17.843,0,0,0-.393,13.739m5.906-11.27a11.919,11.919,0,1,1-.259,9.117,11.894,11.894,0,0,1,.259-9.117" transform="translate(9.538 24.942)" fill="#b6aa9f"/>
          <path id="Caminho_7783" data-name="Caminho 7783" d="M408.473,285.9a17.841,17.841,0,0,0-13.446-2.847q-.81.151-1.6.374a17.959,17.959,0,1,0,15.042,2.474m-.332,21.549a11.8,11.8,0,0,1-6.569,4.725q-.53.149-1.077.25a11.917,11.917,0,1,1,7.646-4.974" transform="translate(26.959 20.043)" fill="#b6aa9f"/>
          <path id="Caminho_7784" data-name="Caminho 7784" d="M222.03,604.7q-.818.153-1.611.375a18.039,18.039,0,1,0,1.611-.375m15,15.464a11.919,11.919,0,0,1-8.471,13.65q-.524.146-1.062.247A11.917,11.917,0,0,1,215.49,615.6a11.975,11.975,0,0,1,7.645-4.973,11.916,11.916,0,0,1,13.9,9.533" transform="translate(14.697 42.84)" fill="#b6aa9f"/>
          <path id="Caminho_7785" data-name="Caminho 7785" d="M454.317,559.621a17.944,17.944,0,1,0,.391-13.741,17.842,17.842,0,0,0-.391,13.741m5.9-11.27a11.917,11.917,0,1,1,15.121,16.006c-.341.13-.685.243-1.031.341a11.916,11.916,0,0,1-14.09-16.347" transform="translate(32.117 37.941)" fill="#b6aa9f"/>
          <path id="Caminho_7786" data-name="Caminho 7786" d="M141.976,488.5a17.958,17.958,0,1,0,22.15,12.425,17.978,17.978,0,0,0-22.15-12.425m8.088,28.761a11.917,11.917,0,1,1,8.247-14.7,11.931,11.931,0,0,1-8.247,14.7" transform="translate(9.135 34.578)" fill="#b6aa9f"/>
          <path id="Caminho_7787" data-name="Caminho 7787" d="M603.031,416.57a63.019,63.019,0,0,1,59.983,14.245l4.123-4.418A69.562,69.562,0,0,0,553.5,457.94a60.709,60.709,0,0,1-42.378,42.57,61.375,61.375,0,0,1-15.793,2.288l-.553.006L461.058,382.893l.475-.283a61.193,61.193,0,0,1,73.095,8.025,69.561,69.561,0,0,0,113.345-32.374l-5.82-1.62A63.519,63.519,0,0,1,538.711,386.18a66.722,66.722,0,0,0-64.142-15.666c-1.132.318-2.248.676-3.357,1.051l-2.166.734,1.356-1.841c.465-.629.921-1.263,1.364-1.908a66.646,66.646,0,0,0,5.814-65.688,63.518,63.518,0,0,1,61.173-88.553l.336-6.032a69.558,69.558,0,0,0-67.038,97.017,61.025,61.025,0,0,1-15.47,71.274l-.419.367-.46-.314-102.552-70.1.19-.525a61.009,61.009,0,0,1,61.1-40.293,69.559,69.559,0,0,0,66.29-97.472l-5.509,2.487a63.52,63.52,0,0,1-60.5,88.953,66.7,66.7,0,0,0-59.287,29.064c-.875,1.276-1.748,2.653-2.592,4.093l-.954,1.627-.373-1.849c-.337-1.677-.742-3.36-1.206-5.007a66.641,66.641,0,0,0-46.71-46.548,63.516,63.516,0,0,1-28.8-103.7l-4.418-4.123a69.56,69.56,0,0,0,31.544,113.63,61.191,61.191,0,0,1,44.857,58.171l.007.553L226.872,339.3l-.283-.474a61.187,61.187,0,0,1,8.024-73.1A69.561,69.561,0,0,0,202.242,152.39l-1.621,5.82A63.519,63.519,0,0,1,230.16,261.653,66.723,66.723,0,0,0,214.494,325.8c.527,1.876,1.15,3.753,1.905,5.742l.7,1.852-1.727-.969c-1.848-1.038-3.684-1.964-5.457-2.759a66.641,66.641,0,0,0-65.665,6.043,63.515,63.515,0,0,1-98.077-44.322l-6,.75A69.559,69.559,0,0,0,147.636,340.71a60.985,60.985,0,0,1,73.786,3.191l.415.343-49.076,113.6-.534-.065a61.147,61.147,0,0,1-53.218-53.3A69.56,69.56,0,0,0,11.239,356.724L14.67,361.7a63.521,63.521,0,0,1,98.351,43.591,66.721,66.721,0,0,0,39.213,53.122c.669.3,1.344.58,2.021.859l1.919.79-2,.566a66.664,66.664,0,0,0-46.354,46.649,63.515,63.515,0,0,1-103.7,28.8L0,540.492a69.557,69.557,0,0,0,113.629-31.543A61.191,61.191,0,0,1,171.8,464.093l.553-.008L206.076,584l-.474.283a61.443,61.443,0,0,1-14.67,6.28,60.791,60.791,0,0,1-58.426-14.3A69.56,69.56,0,0,0,19.16,608.627l5.821,1.621a63.515,63.515,0,0,1,103.441-29.537,66.732,66.732,0,0,0,64.143,15.663c.226-.063.45-.133.675-.2l2.492-.743-1.408,1.946c-.27.372-.541.744-.8,1.124a66.645,66.645,0,0,0-5.815,65.686,63.518,63.518,0,0,1-61.171,88.553l-.336,6.032a69.557,69.557,0,0,0,67.036-97.018,60.99,60.99,0,0,1,16.4-72.058l.421-.353,102.3,70.543-.18.518a61,61,0,0,1-61.322,40.936,69.559,69.559,0,0,0-66.288,97.472l5.509-2.484a63.517,63.517,0,0,1,60.5-88.953,66.748,66.748,0,0,0,59.284-29.065c1.1-1.609,2.188-3.357,3.222-5.2l.969-1.727.364,1.946c.388,2.062.847,4.044,1.367,5.9a66.645,66.645,0,0,0,46.71,46.548,63.516,63.516,0,0,1,28.8,103.7l4.418,4.122a69.561,69.561,0,0,0-31.544-113.631A60.709,60.709,0,0,1,321.6,677.587a61.448,61.448,0,0,1-2.287-15.794l-.006-.553,119.912-33.723.282.475a61.189,61.189,0,0,1-8.024,73.1,69.561,69.561,0,0,0,32.373,113.345l1.621-5.82a63.518,63.518,0,0,1-29.538-103.444,66.726,66.726,0,0,0,15.664-64.141c-.464-1.646-1-3.3-1.582-4.9l-.647-1.772,1.662.891c1.457.783,2.919,1.5,4.346,2.142a66.623,66.623,0,0,0,65.666-6.042,63.516,63.516,0,0,1,98.077,44.324l6-.751a69.557,69.557,0,0,0-107.456-48.578,61,61,0,0,1-73.082-2.611l-.432-.346L494.2,509.4l.545.083a61.214,61.214,0,0,1,51.532,53.08,69.424,69.424,0,0,0,107.769,47.759l-3.431-4.973a63.519,63.519,0,0,1-98.351-43.591,66.717,66.717,0,0,0-39.213-53.121c-.455-.2-.915-.4-1.374-.586l-2.129-.886,2.479-.649c.245-.063.489-.124.735-.194a66.643,66.643,0,0,0,46.548-46.71,63.378,63.378,0,0,1,43.72-43.045m-113.747,89-.1.236-50.8,115.67-121.52,34.175-.279-.191L212.207,583.487l-34.361-122.18.1-.235,50.026-115.8,121.259-34.1.278.188,105.416,72.053Z" transform="translate(0 9.445)" fill="#b6aa9f"/>
          <path id="Caminho_7788" data-name="Caminho 7788" d="M485.883,391.782a17.958,17.958,0,1,0,22.149,12.425,17.976,17.976,0,0,0-22.149-12.425m8.088,28.761a11.917,11.917,0,1,1,8.247-14.7,11.929,11.929,0,0,1-8.247,14.7" transform="translate(33.51 27.723)" fill="#b6aa9f"/>
          <path id="Caminho_7789" data-name="Caminho 7789" d="M361.788,627.622c-.545.1-1.082.226-1.611.376a18.015,18.015,0,1,0,1.611-.376m15,15.465a11.921,11.921,0,0,1-8.471,13.65c-.349.1-.7.18-1.062.247a11.917,11.917,0,0,1-12.009-18.457,11.974,11.974,0,0,1,7.645-4.973,11.917,11.917,0,0,1,13.9,9.532" transform="translate(24.603 44.465)" fill="#b6aa9f"/>
          <path id="Caminho_7790" data-name="Caminho 7790" d="M1006.939,1166.409c.381.542.708.935,1.063,1.364.3.361.619.746,1,1.244l.341.423c.485.6.969,1.2,1.475,1.792l.471.548a42.3,42.3,0,0,1-47.555,65.528c-.529-.183-1.041-.4-1.554-.615l-.626-.263-3.844-1.8c-.307-.147-.5-.227-.714-.32s-.426-.183-.764-.339l-4.562-1.72a59.265,59.265,0,0,0-63.512,95.228l5.171,5.933-6.935-3.719c-.93-.5-22.359-12.211-29.25-34.6l-.84.376c10.568,37.814,45.8,50.024,46.095,50.146a71.193,71.193,0,0,0,51.274-1.736c8.467-3.189,22.782-15.285,22.926-15.406l.449-.381.587.042c6.661.494,70.933,21.41,94.047,28.359l.579-1.676-97.8-33.81-1.147,1.368a52.2,52.2,0,0,1-13.4,11.36l-4.308,2.111c-1.477.763-3.154,1.524-5.254,2.385a52.82,52.82,0,1,1-.306-99.707c1.545.534,3.073,1.143,4.546,1.807l.346.159a49.742,49.742,0,0,0,6.68,2.947,48.779,48.779,0,0,0,56.777-72.8l-2.144-3.02c-.711-.925-1.506-1.883-2.329-2.8a85.621,85.621,0,0,1-7.991-11.775,84.318,84.318,0,0,1-7.957-63.558l99.44-287.387-6.122-2.118-99.461,287.444-.074.248a90.73,90.73,0,0,0,8.526,68.539c.966,1.722,2.062,3.5,3.447,5.607" transform="translate(60.694 56.702)" fill="#b6aa9f"/>
          <path id="Caminho_7791" data-name="Caminho 7791" d="M959.42,1086.083l.555-.437h0l-.617.348c.02.029.041.06.062.09" transform="translate(67.998 76.951)" fill="#b6aa9f"/>
          <path id="Caminho_7792" data-name="Caminho 7792" d="M829.948,973.976a295.769,295.769,0,0,0-74.2-15.088l.378,4.868c1.782,10.1,5.3,24.067,8,33.367,12.729,41.786,36.856,81.406,69.765,114.554a302.008,302.008,0,0,0,114.128,72.339v0l.314.111c.116.036.225.077.32.108.077.027.169.059.268.1l.288.1v0c.177.061.353.124.534.186a292.716,292.716,0,0,0,36.975,10.064c-1.854-9.6-11-50.728-38.169-90.808-27.688-40.85-81.167-93.617-178.716-113.044l-.9-.178-5.8-24.2,1.965.146a259.091,259.091,0,0,1,65.64,13.4c53.163,18.392,99.456,54.589,138.246,108.194-45.416-75.23-111.927-104.833-139.02-114.207l-.011,0M773.509,998.2a322.416,322.416,0,0,1,37.937,10.533c68.663,23.758,108.974,65.309,131.5,98.415,22.8,33.52,32.192,65.152,35.171,77.2l.563,2.28-2.286-.534a241.955,241.955,0,0,1-25.656-7.99c-2.12-.746-4.3-1.512-6.552-2.292a276.377,276.377,0,0,1-172.345-175.759l-.771-2.374Z" transform="translate(53.567 67.967)" fill="#b6aa9f"/>
          <path id="Caminho_7793" data-name="Caminho 7793" d="M958.359,1086.887Z" transform="translate(67.927 77.039)" fill="#b6aa9f"/>
          <path id="Caminho_7794" data-name="Caminho 7794" d="M825.3,489.82h0c1.565,28.9-4.038,58.946-16.652,89.316-11.776,28.348-30.237,53.523-54.871,74.829-.05.044-.1.09-.148.139a161.711,161.711,0,0,0-22.635,28.224l-.2.32a164.818,164.818,0,0,0-21.987,143.715c27.2,87.223,120.293,136.054,207.516,108.854S1052.378,814.926,1025.177,727.7A165.653,165.653,0,0,0,884.114,612.179l-.591-.056c-.063-.008-.125-.011-.182-.012a47,47,0,0,0-15.037,2.194,45.764,45.764,0,0,0,10.067,89.306l.141.008c44.8,1.314,83.439,29.938,93.949,69.609,14.774,55.754-11.8,108.958-63.18,126.508a103.777,103.777,0,0,1-80.5-5.957c-25.635-13.163-43.888-34.125-51.4-59.02l-2.292.691c8.6,28.507,26.309,50.338,51.221,63.129a109.1,109.1,0,0,0,84.71,6.264c54.14-18.491,82.172-74.425,66.651-133-11.112-41.937-51.787-72.208-98.909-73.617a40.365,40.365,0,0,1-8.858-78.773,41.5,41.5,0,0,1,13.111-1.958l.535.048a160.241,160.241,0,0,1,136.468,111.762c26.315,84.382-20.926,174.442-105.308,200.757S740.276,909.14,713.96,824.758a159.366,159.366,0,0,1,21.589-139.494l.559-.9a155.138,155.138,0,0,1,21.217-26.325c25.292-21.9,44.216-47.726,56.3-76.827,11.086-26.686,15.557-56.618,13.67-91.495Z" transform="translate(49.701 34.712)" fill="#b6aa9f"/>
          <path id="Caminho_7795" data-name="Caminho 7795" d="M962.944,162.418l.455.151a27.994,27.994,0,0,0,36.491-26.113h-.021l-.04-1.453a22.619,22.619,0,0,1,1.2-7.9,22.872,22.872,0,0,1,2.482-5.122l1.968-3.019-3.472-.965a35.525,35.525,0,0,0-44.544,38.823l.094.725-.53.505a1143.437,1143.437,0,0,0-194.587,243.3l-2.93,4.912.257-5.713a421.914,421.914,0,0,1,19.74-109.7A417.332,417.332,0,0,1,870.04,134.714l.577-.554a633.889,633.889,0,0,0,59.121-78.742l.448-.7,1.161.052c.418.02.837.042,1.258.035A27.972,27.972,0,0,0,960.234,26.5a22.325,22.325,0,0,0-1.618-8.913l-.034.035-.779-2.164a14.674,14.674,0,0,1-1.027-6.344,7.374,7.374,0,0,1,1.75-4.442c.137-.171.253-.314.338-.435L961.894,0,956.685.06A35.34,35.34,0,0,0,921.779,35.83a35.574,35.574,0,0,0,3.667,15.223l.36.726-.435.684a628.931,628.931,0,0,1-58.593,78.063l-.51.49A422.5,422.5,0,0,0,774.479,289.24a427.6,427.6,0,0,0-19.772,107.1l-.384,7.076-2.4-6.665A425.929,425.929,0,0,1,767.356,70.988l.327-.7.759-.114c.66-.1,1.319-.211,1.969-.359a27.989,27.989,0,0,0,17.476-42.241l-.409-.541a22.6,22.6,0,0,1-3.008-7.219,22.848,22.848,0,0,1-.544-6.009l.151-3.451-3.368.761A32.388,32.388,0,0,0,759.75,26.475a37.019,37.019,0,0,0-3.888,27.041,35.6,35.6,0,0,0,6.517,13.812l.536.695-.374.8a436.774,436.774,0,0,0-20.6,52.362,428.582,428.582,0,0,0-1.481,257.907l3.942,12.813-6.57-11.686C684.329,285.04,653.9,177.689,649.847,69.768l-.039-1.026,1.354-.516c.146-.05.291-.1.435-.162a27.992,27.992,0,0,0,9.853-44.628L660.982,23a22.682,22.682,0,0,1-4.262-6.621,22.882,22.882,0,0,1-1.514-5.353l-.515-3.341L651.576,9a32.34,32.34,0,0,0-18.2,18.967,36.566,36.566,0,0,0,1.048,26.586A35.5,35.5,0,0,0,644.022,67.7l.479.41.023.631c4.412,123.381,42.388,244.133,109.829,349.225,8.713,8.745,12.142,22.176,8.534,33.442a32.451,32.451,0,0,1-31.14,22.4c-1.149-.056-2.322-.07-3.633-.043l-.252,0-.553-.19c-.262-.09-.527-.18-.794-.264a75.726,75.726,0,0,0-62.841,136.573l1.218.749-.055.091a70.119,70.119,0,0,1,29.558,81.116c-11.7,36.531-51.376,59.364-87.971,48.452l-.833,2.6A75.725,75.725,0,0,0,666.47,605.537l-1.235-.742.068-.117a70.446,70.446,0,0,1,43.063-129.513l5.922.417-5.456,2.341a51.845,51.845,0,0,0,4.568,97.044l.524.116a3.164,3.164,0,0,0,.632.026,51.844,51.844,0,0,0,26.991-94.79l-2.594-1.751,3.018-.83a38,38,0,0,0,25.941-24.718c3.789-11.832.876-26-7.422-36.094l-.635-.772.5-.864a1137.6,1137.6,0,0,1,199.9-253.024l.661-.63,1.239.484c.26.1.522.208.787.3M927.057,35.763A30.088,30.088,0,0,1,949.846,6.218l2.065-.51-.3,2.105c-.038.263-.07.538-.094.817a21.992,21.992,0,0,0,1.892,10.118,18.111,18.111,0,0,1,1.542,7.813,22.716,22.716,0,0,1-22.414,22.967c-.381.005-.765,0-1.147-.013l-.857-.032-.38-.769a30.192,30.192,0,0,1-3.1-12.951M761.011,52.352A32.018,32.018,0,0,1,764.064,29.5a26.949,26.949,0,0,1,12.887-11.634l1.712-.739.281,1.844q.151,1.012.378,2.012a27.805,27.805,0,0,0,3.962,9.283l.282.374a22.69,22.69,0,0,1-14.318,34.031q-.564.127-1.129.226l-.843.146-.53-.671a30.262,30.262,0,0,1-5.736-12.017M649.553,63.2c-.352.149-.711.286-1.07.418l-.806.291-.639-.569a30.229,30.229,0,0,1-7.742-10.833,31.3,31.3,0,0,1-.949-22.755,26.8,26.8,0,0,1,10.8-13.536l1.524-.983.612,1.709q.263.749.573,1.482a27.925,27.925,0,0,0,5.328,8.25l.425.392A22.7,22.7,0,0,1,649.553,63.2M756.911,537.492a46.773,46.773,0,0,1-41.986,32.316l-.272.016-.258-.087a46.573,46.573,0,0,1,12.458-90.662l.272-.014.258.087a46.744,46.744,0,0,1,29.528,58.344M994.606,136.617A22.7,22.7,0,0,1,965,157.538l-.365-.12c-.29-.1-.573-.211-.855-.323l-1.02-.4-.1-.851a30.28,30.28,0,0,1,32.653-33.725l1.911.176-.7,1.785c-.172.438-.336.885-.489,1.334a27.969,27.969,0,0,0-1.48,8.311" transform="translate(42.923 0.002)" fill="#b6aa9f"/>
          <path id="Caminho_7796" data-name="Caminho 7796" d="M688.361,1053.759A129.5,129.5,0,0,0,657.6,987.586c-23.384-29.912-30.181-70.566-17.806-106.175a79.957,79.957,0,0,0-22.312-86.1l-1.344-1.2.126-.142a26.683,26.683,0,0,1-4.971-29.95,27.143,27.143,0,0,1,2.1-3.717,26.739,26.739,0,0,1,1.641-2.158A25.632,25.632,0,0,0,578.68,722.21l4.288,4.265a19.6,19.6,0,0,1,27.65,27.576l-.941,1.135c-.442.57-.865,1.152-1.265,1.742a33.283,33.283,0,0,0-2.575,4.545,32.652,32.652,0,0,0-2.461,20.457l.742,3.652-3.321-1.691q-1.6-.816-3.247-1.57a81.113,81.113,0,0,0-13.707-4.8c-.687-.154-7.247-1.568-11.535-.376l-.255.051a22.459,22.459,0,0,1-24.108-29.523c.069-.2.137-.392.211-.588l-5.473-2.555c-.157.4-.3.792-.438,1.19a28.491,28.491,0,0,0,30.462,37.474q.357-.045.712-.1l-.042-.213,2.029-.156a29.284,29.284,0,0,1,7.03.659,74.376,74.376,0,0,1,12.618,4.424c34.421,15.669,51.575,55.913,39.054,91.618a118.4,118.4,0,0,0,3.1,85.349l2.452,5.766-5.138-3.589a131.142,131.142,0,0,0-19.6-11.32,129.292,129.292,0,0,0-44.187-11.749,36.068,36.068,0,0,0-9.081-.274c-.658.065-1.305.16-1.951.261l-.2.02A29.761,29.761,0,0,1,528.6,916.4l-.061.005A21.805,21.805,0,0,0,512.76,897.63a21.689,21.689,0,0,0-26.675,15.093,21.8,21.8,0,0,0-.762,4.671l6.055-.191a15.648,15.648,0,0,1,30.887-1.989l.135-.013.211,1.813a35.912,35.912,0,0,0,20.546,29.577c.166.077.336.146.505.214l3.354,1.448-2.6,1.847a35.834,35.834,0,0,0-11.7,14,37.437,37.437,0,0,0-2.544,7.845A23.441,23.441,0,1,1,485.313,958.8l-5.473-2.555a29.466,29.466,0,1,0,56.231,16.966,31.681,31.681,0,0,1,2.113-6.563A29.841,29.841,0,0,1,560.128,949.9l.2-.022c.644-.039,1.234-.084,1.785-.138l-.025-.171,2.013-.085a29.52,29.52,0,0,1,5.061.26l1,.135a124.14,124.14,0,0,1,82.806,41.567l.39.489c.148.188.3.379.447.567l.875.922a123.723,123.723,0,0,1,27.74,61.346h.015l.221,1.6a125.346,125.346,0,0,0,32.585,68.907l6.331,6.8-72.52-34.1a7.933,7.933,0,0,0-.9-.547,7.572,7.572,0,0,0-1.77-.7l-.321-.108a115.7,115.7,0,0,0-80.735-5.017l-1.631.5-.01-.028A135.731,135.731,0,0,1,393.6,933.049a30.532,30.532,0,0,0,.688-7.336l-.062-1.757.064,0a26.878,26.878,0,0,1,3.991-13.492,26.369,26.369,0,0,1,23.771-12.676c8.323.254,16.888-4.946,20.35-12.365.1-.21.192-.42.283-.635a20.817,20.817,0,0,0-15.376-28.522l-.585,6.032a14.77,14.77,0,0,1,10.4,20.151c-2.317,5.513-8.717,9.5-14.868,9.315A32.3,32.3,0,0,0,393.15,907.3c-.447.724-.889,1.524-1.353,2.441l-1.314,2.6L388.749,910a28.272,28.272,0,0,0-9.66-8.246,29.1,29.1,0,0,0-5.955-2.295,17.482,17.482,0,0,1-3.659-1.4,17.3,17.3,0,0,1,14.267-31.467l2.783-5.374A23.326,23.326,0,0,0,366.7,903.411a23.581,23.581,0,0,0,4.92,1.883,23.033,23.033,0,0,1,4.7,1.815,22.3,22.3,0,0,1,11.945,18.426,24.148,24.148,0,0,1-.553,6.235,141.575,141.575,0,0,0,5.382,78.2l2.051,5.667-4.82-3.615a92.994,92.994,0,0,0-89.6-12.254,30.535,30.535,0,0,0-5.535,2.723c-.071.044-.141.1-.212.148-.1.072-.2.145-.308.213a24.422,24.422,0,0,1-27.986-1.9,25.325,25.325,0,0,0-39.066,9.428,25.15,25.15,0,0,0-1.068,17.675l5.642-2.176a19.294,19.294,0,0,1,11.63-23.233,19.369,19.369,0,0,1,19.081,3,30.73,30.73,0,0,0,19.521,6.73l2.9-.031-1.265,2.612a30.426,30.426,0,0,0-1.761,22.169c1.64,5.6,2.366,14.95-.082,20.313l-.09.195a24.333,24.333,0,0,1-44.151-.126l-5.659,2.114a30.343,30.343,0,0,0,55.258.553c3.221-6.9,2.6-17.968.381-25.161a24.407,24.407,0,0,1,10.428-27.417,24.909,24.909,0,0,1,4.484-2.2,87.575,87.575,0,0,1,68.415,2.2,86.578,86.578,0,0,1,34.724,29.341l.153-.1.986,1.53a141.639,141.639,0,0,0,159.325,59.17l1.622-.482,0,.01a109.456,109.456,0,0,1,77.252,5.868l45.671,21.456-9.151-.473a133.426,133.426,0,0,0-110.214,49.1,74,74,0,0,1-115.023-2.706l-.548-.674a27.817,27.817,0,0,0-2.447-2.692,21.567,21.567,0,0,1-3.581-24.6,22.981,22.981,0,0,0-31.44-30.641l3.3,5.073a16.956,16.956,0,0,1,22.763,22.853,28.217,28.217,0,0,0-2.4,18l.539,2.67-2.666-.554a27.515,27.515,0,0,0-22.4,5.078l-.505.379a14.714,14.714,0,0,0-1.6,1.313c-8.751,8.383-22.491,8.289-30.633-.208a21.5,21.5,0,0,1-.6-29.047l-4.18-4.365a27.53,27.53,0,0,0,.426,37.585c10.44,10.894,28.006,11.066,39.16.382a7.993,7.993,0,0,1,.886-.726l.73-.546a21.517,21.517,0,0,1,27.1.787,21,21,0,0,1,1.812,1.766l.071-.055,1.124,1.452a80.031,80.031,0,0,0,101.678,22.058l4.985-2.686-3,6.009c-.245.477-.489.953-.721,1.44-.169.347-.317.694-.473,1.042l-1.056,2.322-.061-.029c-24.077,48.87-81.749,71.768-132.719,52.687l-.026.055-1.6-.675a30.563,30.563,0,0,0-4.908-1.651c-.865-.2-1.764-.374-2.671-.5a24.267,24.267,0,0,1-19.231-19.4,26.155,26.155,0,0,0-16.773-19.506,25.337,25.337,0,0,0-31.549,14l5.718,1.972c.032-.069.062-.138.094-.207A19.321,19.321,0,0,1,373,1220.408a20.021,20.021,0,0,1,12.818,14.941,30.59,30.59,0,0,0,9.892,17.265l2.182,1.909-2.683,1.105a30.53,30.53,0,0,0-16.092,15.333,24.587,24.587,0,0,1-13.423,13.176,24.026,24.026,0,0,1-18.67-.1,24.361,24.361,0,0,1-13.436-30.265l-5.552-2.379a30.375,30.375,0,0,0,56.548,22.112,24.571,24.571,0,0,1,24.335-14.051l.006-.041.806.128c.091.011.183.024.273.035l.714.121c.56.094,1.046.179,1.534.292a24.387,24.387,0,0,1,4.17,1.416l.388.148a112.724,112.724,0,0,0,141.4-55.07l.8-1.522q.453-1,.932-2.016a128.957,128.957,0,0,1,16.411-26.132l.39-.486a127.076,127.076,0,0,1,143.212-38.339L856.012,1201.9l2.563-5.456-106.8-50.177c-33.97-17.671-57.18-50.992-62.894-88.948" transform="translate(15.978 50.744)" fill="#b6aa9f"/>
          <path id="Caminho_7797" data-name="Caminho 7797" d="M700.833,1332.97a129.488,129.488,0,0,0-66.173,30.758c-29.912,23.383-70.565,30.179-106.175,17.8a79.958,79.958,0,0,0-86.1,22.312l-1.2,1.344-.142-.126a26.685,26.685,0,0,1-29.951,4.971,27.205,27.205,0,0,1-3.716-2.1,26.506,26.506,0,0,1-2.158-1.641,25.632,25.632,0,0,0-35.939,36.364l4.265-4.288a19.6,19.6,0,0,1,27.576-27.65l1.135.942c.57.442,1.152.864,1.742,1.264a33.272,33.272,0,0,0,4.545,2.575A32.644,32.644,0,0,0,429,1417.956l3.652-.742-1.691,3.321c-.544,1.069-1.071,2.15-1.57,3.247a81.153,81.153,0,0,0-4.8,13.707c-.154.688-1.568,7.248-.376,11.535l.051.255a22.459,22.459,0,0,1-29.523,24.108c-.2-.067-.392-.137-.588-.211l-2.555,5.474c.4.156.792.3,1.189.437a28.491,28.491,0,0,0,37.475-30.462c-.03-.238-.063-.474-.1-.712l-.213.042-.156-2.029a29.285,29.285,0,0,1,.659-7.03,74.477,74.477,0,0,1,4.423-12.618c15.67-34.421,55.914-51.575,91.619-39.054a118.4,118.4,0,0,0,85.349-3.1l5.766-2.452-3.588,5.138a131.154,131.154,0,0,0-11.32,19.6,129.29,129.29,0,0,0-11.749,44.187,36.07,36.07,0,0,0-.274,9.081c.065.658.16,1.305.261,1.951l.02.2a29.762,29.762,0,0,1-27.489,30.9l.005.061a21.8,21.8,0,0,0-18.775,15.781,21.69,21.69,0,0,0,15.093,26.675,21.8,21.8,0,0,0,4.671.762l-.191-6.055a15.655,15.655,0,0,1-13.763-19.771,15.764,15.764,0,0,1,11.774-11.116l-.013-.135,1.813-.211a35.909,35.909,0,0,0,29.576-20.546c.078-.166.147-.336.215-.505l1.447-3.354,1.847,2.6a35.844,35.844,0,0,0,14,11.7,37.367,37.367,0,0,0,7.845,2.544,23.441,23.441,0,1,1-13.144,44.865l-2.555,5.473a29.466,29.466,0,1,0,16.966-56.231,31.677,31.677,0,0,1-6.563-2.113,29.841,29.841,0,0,1-16.751-21.945l-.022-.2c-.039-.643-.084-1.233-.138-1.785l-.171.024-.085-2.012a29.529,29.529,0,0,1,.26-5.062l.135-1a124.146,124.146,0,0,1,41.566-82.806l.49-.39c.188-.148.379-.3.566-.446l.922-.876a123.721,123.721,0,0,1,61.346-27.74v-.015l1.6-.221a125.338,125.338,0,0,0,68.907-32.585l6.8-6.331-34.1,72.52a7.919,7.919,0,0,0-.547.9,7.569,7.569,0,0,0-.695,1.77l-.108.322A115.692,115.692,0,0,0,738.689,1456l.5,1.631-.028.01a135.731,135.731,0,0,1-159.034,170.084,30.519,30.519,0,0,0-7.335-.687l-1.757.062,0-.064a26.877,26.877,0,0,1-13.492-3.991,26.372,26.372,0,0,1-12.677-23.771c.255-8.323-4.945-16.888-12.364-20.35-.21-.1-.42-.192-.635-.282a20.817,20.817,0,0,0-28.522,15.375l6.032.585a14.77,14.77,0,0,1,20.151-10.4c5.513,2.317,9.5,8.718,9.315,14.868a32.3,32.3,0,0,0,15.544,29.113c.724.447,1.524.889,2.441,1.353l2.6,1.314-2.341,1.735a28.274,28.274,0,0,0-8.246,9.66,29.1,29.1,0,0,0-2.295,5.955,17.491,17.491,0,0,1-1.4,3.659,17.3,17.3,0,0,1-31.467-14.267l-5.374-2.783a23.326,23.326,0,0,0,42.194,19.821,23.642,23.642,0,0,0,1.883-4.919,23.035,23.035,0,0,1,1.815-4.7,22.3,22.3,0,0,1,18.426-11.945,24.143,24.143,0,0,1,6.235.553,141.566,141.566,0,0,0,78.2-5.382l5.667-2.051-3.615,4.821a92.989,92.989,0,0,0-12.254,89.6,30.546,30.546,0,0,0,2.723,5.535c.044.071.1.141.148.212.072.1.144.2.213.31a24.42,24.42,0,0,1-1.9,27.986,25.324,25.324,0,0,0,9.428,39.064,25.145,25.145,0,0,0,17.675,1.068l-2.176-5.643a19.294,19.294,0,0,1-23.233-11.63,19.37,19.37,0,0,1,3-19.081,30.73,30.73,0,0,0,6.731-19.521l-.031-2.9,2.612,1.265a30.425,30.425,0,0,0,22.169,1.76c5.6-1.639,14.95-2.365,20.313.083l.195.09a24.333,24.333,0,0,1-.126,44.151l2.114,5.66a30.344,30.344,0,0,0,.553-55.26c-6.9-3.221-17.968-2.6-25.161-.381a24.406,24.406,0,0,1-27.417-10.428,24.863,24.863,0,0,1-2.2-4.484,87.575,87.575,0,0,1,2.2-68.415,86.581,86.581,0,0,1,29.341-34.724l-.1-.153,1.53-.986a141.639,141.639,0,0,0,59.17-159.325l-.482-1.622.01,0a109.456,109.456,0,0,1,5.868-77.252l21.456-45.671-.473,9.151a133.426,133.426,0,0,0,49.1,110.214,74,74,0,0,1-2.706,115.023l-.674.548a27.809,27.809,0,0,0-2.692,2.447,21.56,21.56,0,0,1-24.6,3.581,22.981,22.981,0,0,0-30.641,31.44l5.073-3.3a16.955,16.955,0,0,1,22.852-22.762,28.218,28.218,0,0,0,18,2.4l2.67-.539-.554,2.667a27.514,27.514,0,0,0,5.078,22.4l.379.505a14.69,14.69,0,0,0,1.313,1.6c8.383,8.751,8.289,22.49-.208,30.633a21.5,21.5,0,0,1-29.047.6l-4.365,4.18a27.53,27.53,0,0,0,37.585-.426c10.894-10.439,11.065-28.005.382-39.16a8,8,0,0,1-.726-.886l-.546-.73a21.516,21.516,0,0,1,.787-27.1,20.977,20.977,0,0,1,1.766-1.812l-.056-.071,1.453-1.125a80.031,80.031,0,0,0,22.058-101.678l-2.686-4.985,6.009,3c.477.245.953.49,1.44.721.347.169.694.317,1.042.474l2.322,1.055-.029.061c48.87,24.076,71.768,81.749,52.687,132.719l.055.026-.675,1.6a30.563,30.563,0,0,0-1.651,4.908c-.2.865-.374,1.764-.5,2.671a24.263,24.263,0,0,1-19.4,19.231,26.153,26.153,0,0,0-19.506,16.773,25.337,25.337,0,0,0,14,31.549l1.971-5.719-.207-.094a19.321,19.321,0,0,1-10.064-23.771,20.022,20.022,0,0,1,14.941-12.818,30.59,30.59,0,0,0,17.265-9.892l1.909-2.183,1.105,2.683a30.53,30.53,0,0,0,15.333,16.092,24.587,24.587,0,0,1,13.176,13.424,24.026,24.026,0,0,1-.1,18.67,24.361,24.361,0,0,1-30.265,13.436l-2.379,5.552a30.375,30.375,0,0,0,22.113-56.548,24.57,24.57,0,0,1-14.051-24.334l-.041-.007.129-.806c.011-.091.023-.183.035-.273l.121-.714c.094-.56.179-1.046.292-1.532a24.371,24.371,0,0,1,1.416-4.171l.148-.388a112.724,112.724,0,0,0-55.07-141.4l-1.522-.8c-.669-.3-1.343-.611-2.016-.932a128.96,128.96,0,0,1-26.132-16.411l-.486-.39a127.076,127.076,0,0,1-38.34-143.212l63.919-136.067-5.456-2.563-50.177,106.8c-17.671,33.97-50.992,57.179-88.948,62.894" transform="translate(25.727 82.417)" fill="#b6aa9f"/>
          <path id="Caminho_7798" data-name="Caminho 7798" d="M1695.684,2439.851a17.958,17.958,0,1,0-22.148-12.426,17.977,17.977,0,0,0,22.148,12.426m-8.087-28.758a11.916,11.916,0,1,1-8.246,14.7,11.93,11.93,0,0,1,8.246-14.7" transform="translate(118.57 170.437)" fill="#b6aa9f"/>
          <path id="Caminho_7799" data-name="Caminho 7799" d="M1814.842,2323.907a17.946,17.946,0,1,0-.393,13.739,17.848,17.848,0,0,0,.393-13.739m-5.906,11.27a11.919,11.919,0,1,1,.259-9.117,11.893,11.893,0,0,1-.259,9.117" transform="translate(126.17 163.898)" fill="#b6aa9f"/>
          <path id="Caminho_7800" data-name="Caminho 7800" d="M1542.123,2414.234a17.841,17.841,0,0,0,13.446,2.846q.81-.151,1.6-.373a17.959,17.959,0,1,0-15.042-2.474m.332-21.551a11.8,11.8,0,0,1,6.569-4.723q.53-.149,1.077-.251a11.918,11.918,0,1,1-7.646,4.974" transform="translate(108.751 168.796)" fill="#b6aa9f"/>
          <path id="Caminho_7801" data-name="Caminho 7801" d="M1728.565,2095.437q.818-.153,1.611-.375a18.033,18.033,0,1,0-1.611.375m-15-15.465a11.916,11.916,0,0,1,8.47-13.649q.523-.146,1.062-.247a11.917,11.917,0,0,1,12.009,18.456,11.975,11.975,0,0,1-7.645,4.973,11.914,11.914,0,0,1-13.9-9.533" transform="translate(121.012 146)" fill="#b6aa9f"/>
          <path id="Caminho_7802" data-name="Caminho 7802" d="M1496.281,2140.514a17.945,17.945,0,1,0-.391,13.74,17.844,17.844,0,0,0,.391-13.74m-5.9,11.269a11.917,11.917,0,1,1-15.121-16.006c.34-.129.685-.242,1.031-.339a11.916,11.916,0,0,1,14.089,16.346" transform="translate(103.591 150.899)" fill="#b6aa9f"/>
          <path id="Caminho_7803" data-name="Caminho 7803" d="M1808.62,2211.636a17.958,17.958,0,1,0-22.15-12.425,17.978,17.978,0,0,0,22.15,12.425m-8.088-28.76a11.917,11.917,0,1,1-8.247,14.7,11.931,11.931,0,0,1,8.247-14.7" transform="translate(126.575 154.261)" fill="#b6aa9f"/>
          <path id="Caminho_7804" data-name="Caminho 7804" d="M1389.343,2327.543a63.019,63.019,0,0,1-59.983-14.245l-4.123,4.419a69.562,69.562,0,0,0,113.632-31.544,60.707,60.707,0,0,1,42.378-42.57,61.361,61.361,0,0,1,15.793-2.289l.553-.006,33.723,119.911-.475.283a61.193,61.193,0,0,1-73.095-8.025,69.561,69.561,0,0,0-113.345,32.374l5.82,1.62a63.518,63.518,0,0,1,103.442-29.539,66.725,66.725,0,0,0,64.144,15.666c1.132-.318,2.248-.676,3.357-1.051l2.167-.734-1.357,1.841c-.464.629-.92,1.263-1.363,1.908a66.649,66.649,0,0,0-5.815,65.688,63.517,63.517,0,0,1-61.172,88.553l-.336,6.032a69.558,69.558,0,0,0,67.038-97.017,61.021,61.021,0,0,1,15.47-71.274l.419-.367.46.314,102.552,70.1-.19.525a61.008,61.008,0,0,1-61.1,40.293,69.559,69.559,0,0,0-66.29,97.472l5.509-2.487a63.52,63.52,0,0,1,60.5-88.953,66.7,66.7,0,0,0,59.287-29.063c.875-1.277,1.748-2.653,2.592-4.093l.954-1.627.373,1.849c.337,1.677.742,3.36,1.2,5.008a66.643,66.643,0,0,0,46.711,46.548,63.516,63.516,0,0,1,28.8,103.7l4.418,4.123a69.56,69.56,0,0,0-31.544-113.63,61.191,61.191,0,0,1-44.857-58.171l-.008-.553,119.912-33.723.283.474a61.187,61.187,0,0,1-8.024,73.1,69.561,69.561,0,0,0,32.372,113.344l1.621-5.82a63.519,63.519,0,0,1-29.539-103.442,66.723,66.723,0,0,0,15.666-64.143c-.527-1.876-1.15-3.753-1.905-5.742l-.7-1.852,1.727.969c1.848,1.038,3.684,1.964,5.457,2.759a66.641,66.641,0,0,0,65.665-6.043,63.514,63.514,0,0,1,98.076,44.322l6-.75a69.558,69.558,0,0,0-107.457-48.577,60.986,60.986,0,0,1-73.786-3.191l-.416-.343,49.075-113.6.535.065a61.146,61.146,0,0,1,53.218,53.3,69.56,69.56,0,0,0,107.769,47.759l-3.431-4.973a63.522,63.522,0,0,1-98.352-43.591,66.718,66.718,0,0,0-39.212-53.122c-.669-.3-1.344-.58-2.021-.859l-1.919-.789,2-.567a66.663,66.663,0,0,0,46.354-46.649,63.515,63.515,0,0,1,103.7-28.8l4.122-4.416a69.558,69.558,0,0,0-113.629,31.543,60.713,60.713,0,0,1-42.379,42.568,61.345,61.345,0,0,1-15.792,2.289l-.554.007L1786.3,2160.116l.474-.282a61.443,61.443,0,0,1,14.67-6.28,60.791,60.791,0,0,1,58.426,14.3,69.56,69.56,0,0,0,113.345-32.372l-5.822-1.621a63.515,63.515,0,0,1-103.441,29.537,66.732,66.732,0,0,0-64.144-15.663c-.226.063-.45.133-.675.2l-2.492.743,1.408-1.946c.27-.371.541-.744.8-1.125a66.644,66.644,0,0,0,5.815-65.685,63.518,63.518,0,0,1,61.171-88.553l.336-6.032a69.556,69.556,0,0,0-67.036,97.019,60.994,60.994,0,0,1-16.4,72.058l-.421.354-102.3-70.543.18-.518a61,61,0,0,1,61.322-40.937,69.559,69.559,0,0,0,66.288-97.472l-5.509,2.484a63.517,63.517,0,0,1-60.5,88.952,66.748,66.748,0,0,0-59.284,29.065c-1.1,1.609-2.188,3.357-3.222,5.2l-.969,1.727-.364-1.946c-.388-2.062-.847-4.043-1.368-5.9a66.645,66.645,0,0,0-46.71-46.548,63.516,63.516,0,0,1-28.8-103.7l-4.418-4.122a69.561,69.561,0,0,0,31.544,113.631,60.708,60.708,0,0,1,42.571,42.377,61.426,61.426,0,0,1,2.287,15.794l.007.553L1553.161,2116.6l-.281-.476a61.188,61.188,0,0,1,8.024-73.1,69.561,69.561,0,0,0-32.373-113.345l-1.621,5.82a63.518,63.518,0,0,1,29.538,103.444,66.726,66.726,0,0,0-15.664,64.141c.463,1.646,1,3.295,1.582,4.9l.646,1.772-1.661-.891c-1.457-.783-2.919-1.5-4.346-2.142a66.628,66.628,0,0,0-65.667,6.042,63.516,63.516,0,0,1-98.076-44.324l-6,.751a69.557,69.557,0,0,0,107.456,48.578,60.994,60.994,0,0,1,73.082,2.611l.432.346-50.062,113.98-.545-.083a61.214,61.214,0,0,1-51.532-53.08,69.426,69.426,0,0,0-107.77-47.759l3.432,4.973a63.52,63.52,0,0,1,98.351,43.591,66.72,66.72,0,0,0,39.213,53.122c.455.2.915.394,1.374.585l2.129.886-2.48.649c-.244.063-.488.124-.734.194a66.643,66.643,0,0,0-46.548,46.71,63.38,63.38,0,0,1-43.72,43.045m113.747-89,.1-.237,50.8-115.669,121.52-34.175.28.19,104.371,71.974,34.36,122.18-.1.234-50.026,115.8-121.26,34.1-.277-.189L1537.444,2360.7Z" transform="translate(93.931 135.417)" fill="#b6aa9f"/>
          <path id="Caminho_7805" data-name="Caminho 7805" d="M1464.714,2308.353a17.958,17.958,0,1,0-22.15-12.426,17.978,17.978,0,0,0,22.15,12.426m-8.088-28.76a11.917,11.917,0,1,1-8.247,14.7,11.931,11.931,0,0,1,8.247-14.7" transform="translate(102.199 161.116)" fill="#b6aa9f"/>
          <path id="Caminho_7806" data-name="Caminho 7806" d="M1588.807,2072.512c.545-.1,1.082-.227,1.611-.376a18.009,18.009,0,1,0-1.611.376m-15-15.465a11.919,11.919,0,0,1,8.471-13.65c.349-.1.7-.18,1.062-.247a11.917,11.917,0,0,1,12.009,18.456,11.974,11.974,0,0,1-7.645,4.973,11.916,11.916,0,0,1-13.9-9.533" transform="translate(111.106 144.375)" fill="#b6aa9f"/>
          <path id="Caminho_7807" data-name="Caminho 7807" d="M957.238,1568.184c-.382-.542-.708-.935-1.064-1.364-.3-.361-.619-.746-1-1.244l-.341-.423c-.485-.6-.969-1.2-1.475-1.792l-.471-.548a42.3,42.3,0,0,1,47.554-65.528c.529.183,1.042.4,1.555.615l.625.263,3.844,1.8c.307.147.5.227.714.32s.426.183.765.338l4.562,1.72a59.265,59.265,0,0,0,63.511-95.228l-5.171-5.933,6.935,3.719c.93.5,22.359,12.211,29.25,34.6l.84-.376c-10.568-37.814-45.8-50.024-46.095-50.146a71.193,71.193,0,0,0-51.273,1.736c-8.468,3.189-22.782,15.285-22.927,15.406l-.449.381-.586-.042c-6.662-.494-70.934-21.41-94.048-28.359l-.579,1.677,97.8,33.809,1.146-1.368a52.2,52.2,0,0,1,13.4-11.36l4.309-2.111c1.476-.762,3.154-1.524,5.254-2.385a52.82,52.82,0,1,1,.305,99.707c-1.545-.534-3.073-1.143-4.546-1.807l-.346-.157a49.553,49.553,0,0,0-6.68-2.948,48.778,48.778,0,0,0-56.776,72.8l2.143,3.02c.711.925,1.506,1.883,2.33,2.8a85.7,85.7,0,0,1,7.99,11.775,84.318,84.318,0,0,1,7.957,63.558l-99.439,287.387,6.121,2.118,99.461-287.444.075-.249A90.729,90.729,0,0,0,963.9,1578.4c-.966-1.722-2.061-3.505-3.447-5.607" transform="translate(61.435 97.68)" fill="#b6aa9f"/>
          <path id="Caminho_7808" data-name="Caminho 7808" d="M988.84,1611.7l-.555.437h0l.617-.348c-.021-.03-.041-.06-.062-.09" transform="translate(70.048 114.237)" fill="#b6aa9f"/>
          <path id="Caminho_7809" data-name="Caminho 7809" d="M1133.557,1739.389a295.762,295.762,0,0,0,74.2,15.088l-.378-4.868c-1.782-10.1-5.3-24.067-8-33.367-12.729-41.786-36.856-81.406-69.765-114.554a302.01,302.01,0,0,0-114.128-72.339v0l-.314-.112c-.116-.035-.225-.076-.32-.107-.077-.027-.169-.059-.268-.1l-.288-.1v0l-.534-.186a292.692,292.692,0,0,0-36.975-10.064c1.854,9.6,11,50.727,38.169,90.808,27.687,40.849,81.167,93.616,178.716,113.044l.9.178,5.8,24.2-1.965-.146a259.14,259.14,0,0,1-65.64-13.4c-53.163-18.392-99.456-54.589-138.246-108.194,45.416,75.23,111.926,104.832,139.02,114.207l.011,0M1190,1715.162a322.434,322.434,0,0,1-37.937-10.533c-68.663-23.759-108.974-65.309-131.5-98.415-22.8-33.52-32.192-65.152-35.171-77.2l-.563-2.28,2.286.534a242.008,242.008,0,0,1,25.656,7.99c2.12.746,4.3,1.512,6.552,2.292a276.377,276.377,0,0,1,172.345,175.759l.771,2.374Z" transform="translate(69.233 107.644)" fill="#b6aa9f"/>
          <path id="Caminho_7810" data-name="Caminho 7810" d="M989.86,1610.871Z" transform="translate(70.16 114.178)" fill="#b6aa9f"/>
          <path id="Caminho_7811" data-name="Caminho 7811" d="M1144.862,2237.923h0c-1.566-28.9,4.038-58.947,16.651-89.316,11.778-28.348,30.237-53.525,54.871-74.83a1.971,1.971,0,0,0,.149-.139,161.667,161.667,0,0,0,22.635-28.223l.2-.32a164.818,164.818,0,0,0,21.987-143.715c-27.2-87.223-120.292-136.055-207.516-108.854S917.781,1912.817,944.982,2000.04a165.653,165.653,0,0,0,141.062,115.524l.591.056c.064.007.126.011.182.012a47,47,0,0,0,15.037-2.194,45.764,45.764,0,0,0-10.067-89.306l-.14-.008c-44.8-1.314-83.439-29.937-93.949-69.609-14.774-55.754,11.8-108.959,63.179-126.508a103.779,103.779,0,0,1,80.5,5.957c25.635,13.163,43.887,34.125,51.395,59.02l2.292-.691c-8.6-28.507-26.309-50.338-51.22-63.129a109.105,109.105,0,0,0-84.711-6.264c-54.139,18.491-82.17,74.425-66.65,133,11.113,41.937,51.787,72.208,98.91,73.617a40.365,40.365,0,0,1,8.858,78.773,41.509,41.509,0,0,1-13.112,1.958l-.535-.048a160.244,160.244,0,0,1-136.468-111.763c-26.315-84.382,20.927-174.442,105.308-200.756s174.442,20.926,200.759,105.308a159.371,159.371,0,0,1-21.589,139.494l-.559.9a155.225,155.225,0,0,1-21.217,26.326c-25.292,21.9-44.217,47.726-56.3,76.827-11.087,26.686-15.557,56.618-13.67,91.495Z" transform="translate(66.445 126.52)" fill="#b6aa9f"/>
          <path id="Caminho_7812" data-name="Caminho 7812" d="M1011.742,2584.721l-.455-.151a28,28,0,0,0-36.491,26.114h.021l.039,1.453a22.645,22.645,0,0,1-1.2,7.9,22.9,22.9,0,0,1-2.483,5.121l-1.968,3.02,3.472.965a35.525,35.525,0,0,0,44.544-38.823l-.094-.725.53-.5a1143.454,1143.454,0,0,0,194.587-243.3l2.93-4.912-.257,5.713a421.871,421.871,0,0,1-19.74,109.7,417.343,417.343,0,0,1-90.533,156.136l-.577.553a634.126,634.126,0,0,0-59.121,78.742l-.448.7-1.161-.052c-.418-.021-.837-.041-1.258-.035a27.97,27.97,0,0,0-27.629,28.31,22.32,22.32,0,0,0,1.618,8.913l.035-.035.777,2.164a14.678,14.678,0,0,1,1.027,6.344,7.375,7.375,0,0,1-1.75,4.442c-.137.17-.253.314-.338.435l-3.03,4.237,5.209-.062a35.34,35.34,0,0,0,34.906-35.769,35.577,35.577,0,0,0-3.667-15.223l-.359-.726.434-.684a629,629,0,0,1,58.593-78.064l.51-.49a422.479,422.479,0,0,0,91.788-158.225,427.576,427.576,0,0,0,19.772-107.1l.384-7.075,2.405,6.664a425.931,425.931,0,0,1-15.438,325.763l-.327.7-.759.115c-.66.1-1.319.21-1.969.36a27.987,27.987,0,0,0-17.476,42.239l.409.542a22.84,22.84,0,0,1,3.552,13.229l-.151,3.45,3.368-.761a32.389,32.389,0,0,0,20.958-15.357,37.014,37.014,0,0,0,3.888-27.041,35.6,35.6,0,0,0-6.517-13.812l-.537-.7.374-.795a436.655,436.655,0,0,0,20.6-52.362,428.582,428.582,0,0,0,1.481-257.907l-3.942-12.813,6.57,11.687c53.508,95.174,83.935,202.525,87.991,310.447l.039,1.026-1.354.515c-.146.051-.291.1-.435.163a27.992,27.992,0,0,0-9.853,44.628l.468.435a22.766,22.766,0,0,1,5.776,11.974l.515,3.34,3.115-1.309a32.34,32.34,0,0,0,18.2-18.967,36.565,36.565,0,0,0-1.048-26.586,35.5,35.5,0,0,0-9.593-13.151l-.48-.41-.022-.631c-4.412-123.381-42.387-244.134-109.829-349.226-8.713-8.743-12.142-22.176-8.534-33.441a32.45,32.45,0,0,1,31.141-22.4c1.149.056,2.321.07,3.632.043l.252,0,.552.188c.262.09.527.18.793.266a75.726,75.726,0,0,0,62.841-136.573l-1.218-.749.055-.091a70.119,70.119,0,0,1-29.558-81.116c11.7-36.532,51.376-59.364,87.97-48.453l.833-2.6a75.725,75.725,0,0,0-60.88,137.355l1.236.744-.07.115a70.446,70.446,0,0,1-43.063,129.514l-5.922-.417,5.457-2.34a51.846,51.846,0,0,0-4.569-97.044l-.524-.115a3.061,3.061,0,0,0-.632-.027,51.845,51.845,0,0,0-26.99,94.791l2.593,1.751-3.018.829a38,38,0,0,0-25.941,24.719c-3.789,11.832-.876,26,7.422,36.094l.635.772-.5.865a1137.621,1137.621,0,0,1-199.9,253.023l-.661.63-1.239-.484c-.26-.1-.521-.208-.787-.3m35.887,126.654a30.088,30.088,0,0,1-22.789,29.546l-2.065.51.3-2.105c.037-.264.07-.536.094-.817a21.987,21.987,0,0,0-1.892-10.117,18.12,18.12,0,0,1-1.542-7.815,22.714,22.714,0,0,1,22.414-22.966c.381-.005.765,0,1.147.013l.857.031.38.77a30.191,30.191,0,0,1,3.1,12.95m166.046-16.589a32.019,32.019,0,0,1-3.053,22.856,26.943,26.943,0,0,1-12.887,11.634l-1.712.738-.281-1.843q-.151-1.012-.378-2.012a27.817,27.817,0,0,0-3.962-9.284l-.282-.373a22.69,22.69,0,0,1,14.318-34.031q.564-.127,1.129-.226l.843-.146.53.671a30.267,30.267,0,0,1,5.735,12.016m111.458-10.845c.352-.149.711-.287,1.07-.417l.806-.291.639.569a30.214,30.214,0,0,1,7.742,10.833,31.306,31.306,0,0,1,.95,22.754,26.8,26.8,0,0,1-10.8,13.537l-1.524.983-.611-1.709q-.263-.749-.572-1.482a27.969,27.969,0,0,0-5.329-8.251l-.425-.392a22.694,22.694,0,0,1,8.054-36.133m-107.359-474.295a46.775,46.775,0,0,1,41.986-32.316l.272-.015.258.088a46.572,46.572,0,0,1-12.458,90.659l-.272.015-.258-.087a46.745,46.745,0,0,1-29.528-58.344M980.081,2610.521a22.7,22.7,0,0,1,29.605-20.92c.122.039.243.079.365.12.291.1.573.212.855.323l1.019.4.1.851a30.28,30.28,0,0,1-32.653,33.725l-1.91-.176.7-1.785c.172-.438.336-.885.49-1.334a27.972,27.972,0,0,0,1.48-8.311" transform="translate(68.696 141.834)" fill="#b6aa9f"/>
          <path id="Caminho_7813" data-name="Caminho 7813" d="M1301.764,1682.13a129.5,129.5,0,0,0,30.758,66.174c23.383,29.911,30.18,70.564,17.8,106.174a79.957,79.957,0,0,0,22.312,86.1l1.344,1.2-.126.142a26.684,26.684,0,0,1,4.971,29.951,27.19,27.19,0,0,1-2.1,3.716,26.445,26.445,0,0,1-1.641,2.158,25.632,25.632,0,0,0,36.364,35.939l-4.288-4.265a19.6,19.6,0,0,1-27.65-27.576l.942-1.135c.442-.57.864-1.152,1.264-1.742a33.283,33.283,0,0,0,2.576-4.545,32.653,32.653,0,0,0,2.461-20.457l-.742-3.652,3.321,1.691c1.069.544,2.15,1.071,3.247,1.57a81.251,81.251,0,0,0,13.707,4.8c.688.153,7.247,1.567,11.535.375l.255-.051a22.459,22.459,0,0,1,24.108,29.523c-.068.2-.137.392-.211.589l5.473,2.554c.157-.4.3-.792.438-1.189a28.491,28.491,0,0,0-30.462-37.475c-.238.03-.474.063-.712.1l.042.213-2.029.156a29.243,29.243,0,0,1-7.03-.659,74.479,74.479,0,0,1-12.618-4.423c-34.421-15.67-51.575-55.914-39.054-91.619a118.4,118.4,0,0,0-3.1-85.349l-2.452-5.766,5.138,3.589a131.126,131.126,0,0,0,19.6,11.32,129.292,129.292,0,0,0,44.187,11.749,36.076,36.076,0,0,0,9.081.274c.657-.065,1.305-.16,1.951-.261l.2-.02a29.761,29.761,0,0,1,30.9,27.49l.061-.005a21.805,21.805,0,0,0,15.782,18.775,21.689,21.689,0,0,0,26.674-15.093,21.8,21.8,0,0,0,.763-4.671l-6.055.191a15.648,15.648,0,0,1-30.887,1.989l-.135.013-.211-1.813a35.908,35.908,0,0,0-20.546-29.575c-.166-.078-.336-.147-.505-.215l-3.354-1.447,2.6-1.847a35.846,35.846,0,0,0,11.7-14,37.44,37.44,0,0,0,2.544-7.845,23.441,23.441,0,1,1,44.865,13.144l5.473,2.555a29.466,29.466,0,1,0-56.231-16.966,31.662,31.662,0,0,1-2.113,6.563A29.841,29.841,0,0,1,1430,1785.988l-.2.022c-.643.039-1.233.084-1.785.138l.025.171-2.012.085a29.537,29.537,0,0,1-5.062-.26l-1-.135a124.146,124.146,0,0,1-82.806-41.566l-.39-.49c-.148-.188-.3-.379-.446-.567l-.876-.922a123.722,123.722,0,0,1-27.74-61.346h-.015l-.221-1.6a125.337,125.337,0,0,0-32.585-68.907l-6.331-6.8,72.52,34.1a7.936,7.936,0,0,0,.9.547,7.527,7.527,0,0,0,1.77.695l.321.108a115.7,115.7,0,0,0,80.735,5.017l1.631-.5.01.028a135.731,135.731,0,0,1,170.084,159.034,30.544,30.544,0,0,0-.688,7.335l.062,1.757-.064,0a26.876,26.876,0,0,1-3.991,13.492,26.37,26.37,0,0,1-23.771,12.677c-8.323-.255-16.888,4.945-20.35,12.364-.1.21-.192.42-.283.635a20.817,20.817,0,0,0,15.376,28.522l.585-6.032a14.77,14.77,0,0,1-10.4-20.151c2.317-5.513,8.718-9.5,14.868-9.315a32.3,32.3,0,0,0,29.113-15.544c.447-.724.889-1.524,1.353-2.441l1.314-2.6,1.735,2.341a28.27,28.27,0,0,0,9.66,8.246,29.1,29.1,0,0,0,5.955,2.295,17.488,17.488,0,0,1,3.659,1.4,17.3,17.3,0,0,1-14.267,31.467l-2.783,5.374a23.326,23.326,0,0,0,19.821-42.194,23.642,23.642,0,0,0-4.92-1.883,22.981,22.981,0,0,1-4.7-1.815,22.3,22.3,0,0,1-11.944-18.426,24.149,24.149,0,0,1,.552-6.235,141.575,141.575,0,0,0-5.382-78.2l-2.051-5.667,4.821,3.615a92.988,92.988,0,0,0,89.6,12.254,30.546,30.546,0,0,0,5.535-2.723c.071-.044.141-.1.212-.148.1-.072.2-.144.308-.213a24.422,24.422,0,0,1,27.986,1.9,25.325,25.325,0,0,0,39.066-9.428,25.141,25.141,0,0,0,1.068-17.674l-5.642,2.175a19.295,19.295,0,0,1-11.63,23.233,19.37,19.37,0,0,1-19.081-3,30.73,30.73,0,0,0-19.521-6.731l-2.9.031,1.265-2.612a30.427,30.427,0,0,0,1.761-22.169c-1.64-5.6-2.366-14.949.082-20.313l.09-.195a24.333,24.333,0,0,1,44.151.126l5.66-2.113a30.343,30.343,0,0,0-55.259-.554c-3.221,6.9-2.6,17.968-.381,25.161a24.405,24.405,0,0,1-10.428,27.417,24.862,24.862,0,0,1-4.484,2.2,87.574,87.574,0,0,1-68.415-2.2,86.579,86.579,0,0,1-34.724-29.341l-.153.1-.986-1.53a141.643,141.643,0,0,0-159.325-59.17l-1.622.482,0-.01a109.456,109.456,0,0,1-77.252-5.868L1299.1,1611.5l9.151.473a133.426,133.426,0,0,0,110.214-49.1,74,74,0,0,1,115.023,2.706l.548.673a27.777,27.777,0,0,0,2.447,2.692,21.564,21.564,0,0,1,3.581,24.6,22.981,22.981,0,0,0,31.44,30.641l-3.3-5.073a16.956,16.956,0,0,1-22.763-22.853,28.216,28.216,0,0,0,2.4-18l-.539-2.67,2.667.554a27.514,27.514,0,0,0,22.4-5.078l.505-.379a14.738,14.738,0,0,0,1.6-1.313c8.751-8.383,22.491-8.289,30.632.208a21.5,21.5,0,0,1,.6,29.047l4.18,4.365a27.53,27.53,0,0,0-.426-37.584c-10.44-10.894-28.006-11.065-39.16-.382a7.981,7.981,0,0,1-.885.726l-.73.546a21.516,21.516,0,0,1-27.1-.787,20.965,20.965,0,0,1-1.812-1.766l-.071.056-1.125-1.452a80.029,80.029,0,0,0-101.678-22.059l-4.985,2.686,3-6.009c.245-.477.489-.953.721-1.44.169-.347.317-.694.473-1.042l1.056-2.322.061.029c24.076-48.87,81.749-71.768,132.719-52.687l.026-.055,1.6.675a30.568,30.568,0,0,0,4.908,1.651c.865.2,1.764.374,2.671.5a24.264,24.264,0,0,1,19.231,19.4,26.153,26.153,0,0,0,16.773,19.506,25.337,25.337,0,0,0,31.549-14l-5.718-1.971c-.032.068-.062.138-.094.207a19.321,19.321,0,0,1-23.771,10.064,20.022,20.022,0,0,1-12.819-14.941,30.588,30.588,0,0,0-9.892-17.265l-2.182-1.909,2.682-1.1a30.533,30.533,0,0,0,16.092-15.334,24.587,24.587,0,0,1,13.423-13.176,24.025,24.025,0,0,1,18.67.1,24.361,24.361,0,0,1,13.436,30.265l5.552,2.38a30.375,30.375,0,0,0-56.548-22.113,24.571,24.571,0,0,1-24.335,14.051l-.006.041-.806-.129c-.091-.011-.183-.023-.273-.035l-.714-.121c-.56-.094-1.046-.179-1.532-.292a24.378,24.378,0,0,1-4.171-1.416l-.388-.148a112.724,112.724,0,0,0-141.4,55.07l-.8,1.522c-.3.669-.61,1.343-.932,2.016a128.95,128.95,0,0,1-16.411,26.132l-.39.486a127.076,127.076,0,0,1-143.212,38.34l-136.067-63.919-2.562,5.456,106.8,50.177c33.97,17.671,57.18,50.992,62.894,88.948" transform="translate(80.203 102.342)" fill="#b6aa9f"/>
          <path id="Caminho_7814" data-name="Caminho 7814" d="M1285.516,1406.694a129.489,129.489,0,0,0,66.173-30.758c29.912-23.383,70.566-30.179,106.175-17.8a79.957,79.957,0,0,0,86.1-22.312l1.2-1.344.143.126a26.683,26.683,0,0,1,29.95-4.971,27.142,27.142,0,0,1,3.717,2.1,26.473,26.473,0,0,1,2.158,1.641,25.632,25.632,0,0,0,35.939-36.364l-4.265,4.288a19.6,19.6,0,0,1-27.576,27.65l-1.136-.942c-.569-.442-1.151-.864-1.741-1.264a33.271,33.271,0,0,0-4.545-2.575,32.654,32.654,0,0,0-20.457-2.461l-3.652.742,1.691-3.321q.816-1.6,1.57-3.247a81.148,81.148,0,0,0,4.8-13.707c.154-.687,1.568-7.247.376-11.536l-.051-.255a22.459,22.459,0,0,1,29.523-24.108c.2.069.392.137.588.211l2.555-5.473c-.4-.157-.792-.3-1.19-.438a28.49,28.49,0,0,0-37.474,30.462c.03.238.063.474.1.712l.213-.042.156,2.029a29.35,29.35,0,0,1-.659,7.03,74.378,74.378,0,0,1-4.424,12.618c-15.669,34.421-55.913,51.575-91.618,39.054a118.4,118.4,0,0,0-85.349,3.1l-5.766,2.452,3.589-5.138a131.152,131.152,0,0,0,11.32-19.6,129.293,129.293,0,0,0,11.749-44.187,36.08,36.08,0,0,0,.274-9.081c-.065-.658-.16-1.305-.261-1.951l-.02-.2a29.761,29.761,0,0,1,27.489-30.9l-.005-.061a21.8,21.8,0,0,0,18.775-15.782,21.689,21.689,0,0,0-15.093-26.674,21.8,21.8,0,0,0-4.671-.762l.191,6.055a15.648,15.648,0,0,1,1.989,30.887l.013.135-1.813.211a35.912,35.912,0,0,0-29.577,20.546c-.077.166-.146.336-.214.505l-1.448,3.354-1.847-2.6a35.833,35.833,0,0,0-14-11.7,37.458,37.458,0,0,0-7.845-2.544,23.441,23.441,0,1,1,13.144-44.865l2.554-5.473a29.465,29.465,0,1,0-16.965,56.231,31.676,31.676,0,0,1,6.563,2.113,29.841,29.841,0,0,1,16.751,21.944l.022.2c.039.643.083,1.234.137,1.785l.172-.025.085,2.012a29.635,29.635,0,0,1-.26,5.062l-.135,1a124.141,124.141,0,0,1-41.567,82.806l-.49.39c-.187.148-.378.3-.566.445l-.922.876a123.721,123.721,0,0,1-61.346,27.74v.015l-1.6.221A125.346,125.346,0,0,0,1214,1433.572l-6.8,6.331,34.1-72.52a7.928,7.928,0,0,0,.547-.9,7.576,7.576,0,0,0,.695-1.77l.108-.321a115.7,115.7,0,0,0,5.017-80.735l-.5-1.631.028-.01a135.731,135.731,0,0,1,159.034-170.084,30.533,30.533,0,0,0,7.336.688l1.757-.062,0,.064a26.878,26.878,0,0,1,13.492,3.991,26.369,26.369,0,0,1,12.676,23.771c-.254,8.323,4.946,16.888,12.365,20.35.21.1.42.192.635.283a20.817,20.817,0,0,0,28.522-15.376l-6.032-.585a14.77,14.77,0,0,1-20.151,10.4c-5.513-2.318-9.5-8.718-9.314-14.868a32.3,32.3,0,0,0-15.544-29.113c-.725-.447-1.524-.889-2.441-1.352l-2.6-1.314,2.341-1.735a28.269,28.269,0,0,0,8.246-9.66,29.1,29.1,0,0,0,2.295-5.955,17.425,17.425,0,0,1,1.4-3.659,17.3,17.3,0,0,1,31.467,14.267l5.374,2.783a23.326,23.326,0,0,0-42.194-19.821,23.519,23.519,0,0,0-1.883,4.92,23.027,23.027,0,0,1-1.815,4.7,22.3,22.3,0,0,1-18.426,11.945,24.149,24.149,0,0,1-6.235-.553,141.577,141.577,0,0,0-78.2,5.382l-5.667,2.051,3.615-4.821a92.988,92.988,0,0,0,12.254-89.6,30.533,30.533,0,0,0-2.723-5.535c-.044-.071-.1-.141-.148-.212-.072-.1-.145-.2-.213-.308a24.422,24.422,0,0,1,1.9-27.986,25.326,25.326,0,0,0-9.428-39.066,25.144,25.144,0,0,0-17.675-1.068l2.176,5.642a19.294,19.294,0,0,1,23.233,11.63,19.369,19.369,0,0,1-3,19.081,30.73,30.73,0,0,0-6.73,19.521l.031,2.9-2.613-1.265a30.423,30.423,0,0,0-22.168-1.76c-5.6,1.64-14.949,2.366-20.313-.083l-.195-.09a24.333,24.333,0,0,1,.126-44.151l-2.114-5.66a30.344,30.344,0,0,0-.553,55.26c6.9,3.221,17.967,2.6,25.161.381a24.405,24.405,0,0,1,27.417,10.428,24.868,24.868,0,0,1,2.2,4.484,87.575,87.575,0,0,1-2.2,68.415,86.578,86.578,0,0,1-29.341,34.724l.1.153-1.53.986a141.639,141.639,0,0,0-59.17,159.325l.482,1.622-.01,0a109.456,109.456,0,0,1-5.868,77.252l-21.456,45.671.473-9.151a133.426,133.426,0,0,0-49.1-110.214,74,74,0,0,1,2.706-115.023l.672-.548a27.8,27.8,0,0,0,2.693-2.447,21.567,21.567,0,0,1,24.6-3.581,22.981,22.981,0,0,0,30.641-31.44l-5.073,3.3a16.956,16.956,0,0,1-22.853,22.763,28.217,28.217,0,0,0-18-2.4l-2.67.539.554-2.667a27.513,27.513,0,0,0-5.078-22.4l-.379-.506a14.721,14.721,0,0,0-1.313-1.6c-8.383-8.751-8.289-22.49.208-30.632a21.5,21.5,0,0,1,29.047-.6l4.365-4.18a27.53,27.53,0,0,0-37.585.426c-10.894,10.44-11.066,28.006-.382,39.16a7.978,7.978,0,0,1,.726.885l.546.73a21.516,21.516,0,0,1-.787,27.1,20.966,20.966,0,0,1-1.766,1.812l.054.071-1.452,1.125a80.032,80.032,0,0,0-22.059,101.678l2.687,4.985-6.009-3c-.477-.245-.953-.49-1.44-.721-.347-.169-.694-.317-1.042-.473l-2.322-1.056.029-.061c-48.87-24.077-71.768-81.749-52.687-132.719l-.055-.026.675-1.6a30.575,30.575,0,0,0,1.651-4.908c.2-.865.374-1.764.5-2.671a24.264,24.264,0,0,1,19.4-19.231,26.155,26.155,0,0,0,19.506-16.773,25.337,25.337,0,0,0-14-31.549l-1.972,5.719.207.094a19.322,19.322,0,0,1,10.064,23.771,20.022,20.022,0,0,1-14.941,12.818,30.59,30.59,0,0,0-17.265,9.892l-1.909,2.182-1.105-2.683a30.53,30.53,0,0,0-15.333-16.092,24.588,24.588,0,0,1-13.176-13.423,24.026,24.026,0,0,1,.1-18.67,24.36,24.36,0,0,1,30.265-13.436l2.38-5.552a30.375,30.375,0,0,0-22.113,56.548,24.571,24.571,0,0,1,14.051,24.335l.041.006-.129.807c-.011.091-.024.183-.036.273l-.12.714c-.094.56-.179,1.046-.292,1.532a24.382,24.382,0,0,1-1.416,4.171l-.148.388a112.724,112.724,0,0,0,55.07,141.4l1.522.8c.669.3,1.343.61,2.015.932a128.923,128.923,0,0,1,26.133,16.411l.486.39a127.076,127.076,0,0,1,38.34,143.212l-63.919,136.067,5.456,2.563L1193,1470.1c17.671-33.97,50.992-57.18,88.948-62.894" transform="translate(74.229 66.894)" fill="#b6aa9f"/>
        </g>
      </g>
    </g>
  </g>
</svg>
