<svg xmlns="http://www.w3.org/2000/svg" xmlnsXlink="http://www.w3.org/1999/xlink" width="22.05"
    height="22" viewBox="0 0 22.05 22" fill="#ffffff">
    <g id="Grupo_550" data-name="Grupo 550" clipPath="url(#clipPath)">
        <path id="Caminho_7197" data-name="Caminho 7197"
            d="M.364,7.3H4.939V22H.364ZM2.652,0A2.649,2.649,0,1,1,0,2.647,2.649,2.649,0,0,1,2.652,0M7.805,22h4.566V14.73c0-1.917.363-3.773,2.741-3.773,2.341,0,2.374,2.192,2.374,3.9V22H22.05V13.94c0-3.958-.853-7-5.478-7a4.8,4.8,0,0,0-4.326,2.374h-.06V7.3H7.805Z"
            transform="translate(0 0)" />
    </g>
</svg>