<svg xmlns="http://www.w3.org/2000/svg" xmlns:xlink="http://www.w3.org/1999/xlink" width="220.213" height="133.56" viewBox="0 0 220.213 133.56">
  <defs>
    <clipPath id="clip-path">
      <rect id="Retângulo_1410" data-name="Retângulo 1410" width="220.213" height="133.56" fill="#e30713"/>
    </clipPath>
  </defs>
  <g id="Grupo_1945" data-name="Grupo 1945" opacity="0.105">
    <g id="Grupo_1945-2" data-name="Grupo 1945" clip-path="url(#clip-path)">
      <path id="Caminho_8734" data-name="Caminho 8734" d="M315.379,37.938A55.285,55.285,0,0,0,290.9,43.575a45.558,45.558,0,0,1,58.107-29.524V3.024a77.5,77.5,0,0,0-86.5,76.969c0,.5.017.98.042,1.456-.025.646-.042,1.294-.042,1.947a50.488,50.488,0,0,0,50.488,50.488c.383,0,.765-.006,1.145-.015.413.009.827.015,1.243.015,28.726,0,52.013-21.478,52.013-47.973S344.1,37.938,315.379,37.938Z" transform="translate(-148.268 -1.412)" fill="#e30713"/>
      <path id="Caminho_8735" data-name="Caminho 8735" d="M55.375,37.938A55.285,55.285,0,0,0,30.9,43.575,45.558,45.558,0,0,1,89,14.051V3.024A77.5,77.5,0,0,0,2.5,79.994c0,.5.017.98.042,1.456C2.517,82.1,2.5,82.744,2.5,83.4a50.488,50.488,0,0,0,50.488,50.488c.383,0,.765-.006,1.145-.015.413.009.827.015,1.242.015,28.726,0,52.013-21.478,52.013-47.973S84.1,37.938,55.375,37.938Z" transform="translate(-1.412 -1.412)" fill="#e30713"/>
    </g>
  </g>
</svg>
