<?xml version="1.0" encoding="utf-8"?>
<!-- Uploaded to: SVG Repo, www.svgrepo.com, Generator: SVG Repo Mixer Tools -->
<svg width="800px" height="800px" viewBox="0 0 1024 1024" class="icon"  version="1.1" xmlns="http://www.w3.org/2000/svg"><path d="M326.5625 301.0625l-1.21875-93.28125c-0.1875-14.25 11.34375-25.875 25.59375-25.875h322.125c14.15625 0 25.59375 11.4375 25.59375 25.59375v93.1875h-65.625v-53.15625H391.53125l0.65625 52.78125-65.625 0.75z" fill="#8E6620" /><path d="M404.09375 335.75h-91.59375c-1.59375 0-3-1.3125-3-3v-30.1875c0-1.59375 1.3125-3 3-3h91.59375c1.59375 0 3 1.3125 3 3v30.1875c0 1.6875-1.40625 3-3 3zM711.40625 335.75h-91.125c-1.78125 0-3.1875-1.40625-3.1875-3.1875V302.9375c0-1.78125 1.40625-3.1875 3.1875-3.1875h91.125c1.78125 0 3.1875 1.40625 3.1875 3.1875v29.625c0.09375 1.78125-1.40625 3.1875-3.1875 3.1875z" fill="#FFB000" /><path d="M862.90625 932.1875H162.96875c-38.71875 0-70.125-31.40625-70.125-70.125V402.3125c0-38.71875 31.40625-70.125 70.125-70.125h699.84375c38.71875 0 70.125 31.40625 70.125 70.125v459.75c0.09375 38.71875-31.3125 70.125-70.03125 70.125z" fill="#8E6620" /><path d="M234.575 332.298125l75-0.215625 1.726875 599.34375-75 0.215625zM714.670625 332.298125l75-0.215625 1.726875 599.34375-75 0.215625z" fill="#FFB000" /></svg>