<svg xmlns="http://www.w3.org/2000/svg" xmlns:xlink="http://www.w3.org/1999/xlink" width="570.755" height="790.343" viewBox="0 0 570.755 790.343">
    <defs>
      <clipPath id="clip-path">
        <rect id="Retângulo_1183" data-name="Retângulo 1183" width="570.755" height="790.343" fill="#e5e5df"/>
      </clipPath>
    </defs>
    <g id="Grupo_1108" data-name="Grupo 1108" clip-path="url(#clip-path)">
      <path id="Caminho_7781" data-name="Caminho 7781" d="M245.4,259.8a4.913,4.913,0,1,0,6.059,3.4,4.918,4.918,0,0,0-6.059-3.4m2.212,7.867a3.26,3.26,0,1,1,2.256-4.021,3.264,3.264,0,0,1-2.256,4.021" transform="translate(-170.971 -183.555)" fill="#e5e5df"/>
      <path id="Caminho_7782" data-name="Caminho 7782" d="M134.893,358.537a4.91,4.91,0,1,0,.108-3.759,4.881,4.881,0,0,0-.108,3.759m1.616-3.083a3.261,3.261,0,1,1-.071,2.494,3.254,3.254,0,0,1,.071-2.494" transform="translate(-95.145 -248.788)" fill="#e5e5df"/>
      <path id="Caminho_7783" data-name="Caminho 7783" d="M388.05,283.61a4.881,4.881,0,0,0-3.678-.779q-.222.041-.436.1a4.913,4.913,0,1,0,4.115.677m-.091,5.9a3.229,3.229,0,0,1-1.8,1.293q-.145.041-.295.068a3.26,3.26,0,1,1,2.092-1.361" transform="translate(-268.928 -199.912)" fill="#e5e5df"/>
      <path id="Caminho_7784" data-name="Caminho 7784" d="M211.374,604.473q-.224.042-.441.1a4.936,4.936,0,1,0,.441-.1m4.1,4.231a3.261,3.261,0,0,1-2.317,3.734c-.1.027-.192.049-.291.068a3.26,3.26,0,0,1-3.285-5.049,3.276,3.276,0,0,1,2.091-1.36,3.26,3.26,0,0,1,3.8,2.608" transform="translate(-146.612 -427.324)" fill="#e5e5df"/>
      <path id="Caminho_7785" data-name="Caminho 7785" d="M453.454,541.928a4.909,4.909,0,1,0,.107-3.759,4.881,4.881,0,0,0-.107,3.759m1.615-3.083a3.26,3.26,0,1,1,4.137,4.379c-.093.035-.187.067-.282.093a3.26,3.26,0,0,1-3.855-4.472" transform="translate(-320.379 -378.452)" fill="#e5e5df"/>
      <path id="Caminho_7786" data-name="Caminho 7786" d="M132.461,488.011a4.913,4.913,0,1,0,6.06,3.4,4.918,4.918,0,0,0-6.06-3.4m2.213,7.868a3.26,3.26,0,1,1,2.256-4.022,3.264,3.264,0,0,1-2.256,4.022" transform="translate(-91.122 -344.911)" fill="#e5e5df"/>
      <path id="Caminho_7787" data-name="Caminho 7787" d="M164.972,210.742a17.24,17.24,0,0,1,16.41,3.9l1.128-1.209a19.03,19.03,0,0,0-31.087,8.629,16.608,16.608,0,0,1-11.593,11.646,16.79,16.79,0,0,1-4.321.626l-.151,0-9.226-32.8.13-.077a16.741,16.741,0,0,1,20,2.2,19.03,19.03,0,0,0,31.008-8.857l-1.592-.443a17.377,17.377,0,0,1-28.3,8.081,18.253,18.253,0,0,0-17.548-4.286c-.31.087-.615.185-.918.287l-.593.2.371-.5c.127-.172.252-.345.373-.522a18.233,18.233,0,0,0,1.59-17.97,17.377,17.377,0,0,1,16.735-24.226l.092-1.65A19.029,19.029,0,0,0,129.14,180.3a16.695,16.695,0,0,1-4.232,19.5l-.115.1-.126-.086L96.612,180.638l.052-.144a16.69,16.69,0,0,1,16.714-11.023,19.029,19.029,0,0,0,18.135-26.666l-1.507.68a17.377,17.377,0,0,1-16.551,24.335,18.248,18.248,0,0,0-16.219,7.951c-.239.349-.478.726-.709,1.12l-.261.445-.1-.506c-.092-.459-.2-.919-.33-1.37a18.231,18.231,0,0,0-12.778-12.734,17.376,17.376,0,0,1-7.879-28.37l-1.209-1.128a19.03,19.03,0,0,0,8.63,31.086,16.74,16.74,0,0,1,12.272,15.914l0,.151-32.8,9.226-.077-.13a16.739,16.739,0,0,1,2.2-20,19.03,19.03,0,0,0-8.856-31.008l-.444,1.592a17.377,17.377,0,0,1,8.081,28.3,18.254,18.254,0,0,0-4.286,17.548c.144.513.315,1.027.521,1.571l.192.507-.473-.265c-.506-.284-1.008-.537-1.493-.755a18.231,18.231,0,0,0-17.964,1.653,17.376,17.376,0,0,1-26.831-12.125l-1.641.205a19.029,19.029,0,0,0,29.4,13.289,16.684,16.684,0,0,1,20.186.873l.114.094L47.262,222.035l-.146-.018a16.728,16.728,0,0,1-14.559-14.581A19.03,19.03,0,0,0,3.075,194.37l.939,1.361a17.377,17.377,0,0,1,26.906,11.925,18.253,18.253,0,0,0,10.728,14.533c.183.082.368.159.553.235l.525.216-.546.155A18.237,18.237,0,0,0,29.5,235.557a17.376,17.376,0,0,1-28.37,7.879L0,244.644a19.029,19.029,0,0,0,31.086-8.629A16.74,16.74,0,0,1,47,223.743l.151,0,9.226,32.8-.13.077a16.808,16.808,0,0,1-4.013,1.718,16.631,16.631,0,0,1-15.984-3.913,19.03,19.03,0,0,0-31.008,8.856l1.593.444a17.376,17.376,0,0,1,28.3-8.081,18.256,18.256,0,0,0,17.548,4.285c.062-.017.123-.036.185-.055l.682-.2-.385.532c-.074.1-.148.2-.219.308a18.232,18.232,0,0,0-1.591,17.97,17.377,17.377,0,0,1-16.735,24.226l-.092,1.65a19.029,19.029,0,0,0,18.339-26.542A16.685,16.685,0,0,1,57.351,258.1l.115-.1,27.986,19.3-.049.142a16.689,16.689,0,0,1-16.776,11.2,19.029,19.029,0,0,0-18.135,26.666l1.507-.68A17.376,17.376,0,0,1,68.55,290.3a18.26,18.26,0,0,0,16.218-7.951c.3-.44.6-.918.882-1.423l.265-.473.1.532c.106.564.232,1.106.374,1.613a18.232,18.232,0,0,0,12.778,12.734,17.376,17.376,0,0,1,7.879,28.37l1.209,1.128a19.03,19.03,0,0,0-8.63-31.086A16.608,16.608,0,0,1,87.98,282.149a16.81,16.81,0,0,1-.626-4.321l0-.151,32.8-9.226.077.13a16.74,16.74,0,0,1-2.2,20,19.03,19.03,0,0,0,8.856,31.008l.444-1.592a17.377,17.377,0,0,1-8.081-28.3,18.254,18.254,0,0,0,4.285-17.547c-.127-.45-.272-.9-.433-1.341l-.177-.485.455.244c.4.214.8.411,1.189.586a18.226,18.226,0,0,0,17.964-1.653,17.376,17.376,0,0,1,26.831,12.126l1.64-.205a19.029,19.029,0,0,0-29.4-13.29,16.687,16.687,0,0,1-19.993-.714l-.118-.095,13.7-31.182.149.023a16.746,16.746,0,0,1,14.1,14.521,18.993,18.993,0,0,0,29.483,13.066l-.939-1.361a17.377,17.377,0,0,1-26.906-11.925,18.252,18.252,0,0,0-10.728-14.532c-.125-.056-.25-.108-.376-.16l-.582-.242.678-.178c.067-.017.134-.034.2-.053a18.232,18.232,0,0,0,12.734-12.778,17.338,17.338,0,0,1,11.96-11.776m-31.118,24.348-.028.064-13.9,31.644-33.244,9.349-.076-.052-28.553-19.69-9.4-33.425.028-.064,13.686-31.68,33.173-9.329.076.052,28.839,19.712Z" transform="translate(0 -94.197)" fill="#e5e5df"/>
      <path id="Caminho_7788" data-name="Caminho 7788" d="M476.368,391.293a4.913,4.913,0,1,0,6.059,3.4,4.918,4.918,0,0,0-6.059-3.4m2.213,7.868a3.26,3.26,0,1,1,2.256-4.021,3.263,3.263,0,0,1-2.256,4.021" transform="translate(-334.276 -276.528)" fill="#e5e5df"/>
      <path id="Caminho_7789" data-name="Caminho 7789" d="M351.132,627.4c-.149.028-.3.062-.441.1a4.928,4.928,0,1,0,.441-.1m4.1,4.231a3.261,3.261,0,0,1-2.317,3.734c-.1.026-.192.049-.291.068a3.26,3.26,0,0,1-3.285-5.049,3.276,3.276,0,0,1,2.091-1.361,3.26,3.26,0,0,1,3.8,2.608" transform="translate(-245.426 -443.533)" fill="#e5e5df"/>
      <path id="Caminho_7790" data-name="Caminho 7790" d="M897.514,900.214c.1.148.194.256.291.373.082.1.169.2.273.34l.093.116c.133.165.265.33.4.49l.129.15a11.573,11.573,0,0,1-13.01,17.927c-.145-.05-.285-.109-.425-.168l-.171-.072-1.052-.493c-.084-.04-.136-.062-.2-.088s-.117-.05-.209-.093l-1.248-.471a16.213,16.213,0,0,0-17.375,26.052l1.415,1.623-1.9-1.018c-.254-.136-6.117-3.341-8-9.467l-.23.1c2.891,10.345,12.529,13.685,12.61,13.719a19.477,19.477,0,0,0,14.027-.475c2.316-.872,6.232-4.181,6.272-4.215l.123-.1.161.011c1.822.135,19.405,5.857,25.729,7.758l.159-.458-26.756-9.249-.314.374a14.278,14.278,0,0,1-3.666,3.108l-1.179.577c-.4.209-.863.417-1.437.652a14.45,14.45,0,1,1-.084-27.277c.423.146.841.313,1.244.494l.095.043a13.6,13.6,0,0,0,1.828.806,13.344,13.344,0,0,0,15.533-19.917l-.586-.826c-.195-.253-.412-.515-.637-.766a23.427,23.427,0,0,1-2.186-3.221,23.067,23.067,0,0,1-2.177-17.388l27.2-78.621-1.675-.579L893.38,878.6l-.02.068a24.821,24.821,0,0,0,2.333,18.75c.264.471.564.959.943,1.534" transform="translate(-605.439 -565.605)" fill="#e5e5df"/>
      <path id="Caminho_7791" data-name="Caminho 7791" d="M959.375,1085.765l.152-.12h0l-.169.1.017.025" transform="translate(-678.302 -767.591)" fill="#e5e5df"/>
      <path id="Caminho_7792" data-name="Caminho 7792" d="M776.05,963.016a80.914,80.914,0,0,0-20.3-4.128l.1,1.332c.488,2.763,1.451,6.584,2.188,9.128a76.6,76.6,0,0,0,19.086,31.339,82.62,82.62,0,0,0,31.222,19.79h0l.086.03.088.03.073.027.079.027h0l.146.051a80.084,80.084,0,0,0,10.115,2.753A71.092,71.092,0,0,0,808.5,998.552c-7.575-11.175-22.205-25.611-48.892-30.926l-.247-.049-1.587-6.621.538.04a70.877,70.877,0,0,1,17.957,3.666c14.544,5.032,27.208,14.934,37.82,29.6a73.342,73.342,0,0,0-38.032-31.244h0m-15.44,6.628a88.192,88.192,0,0,1,10.378,2.882c18.784,6.5,29.812,17.867,35.975,26.923a68.047,68.047,0,0,1,9.622,21.119l.154.624-.625-.146a66.195,66.195,0,0,1-7.019-2.186c-.58-.2-1.176-.414-1.792-.627a75.609,75.609,0,0,1-47.149-48.083l-.211-.649Z" transform="translate(-534.345 -677.969)" fill="#e5e5df"/>
      <path id="Caminho_7793" data-name="Caminho 7793" d="M958.359,1086.887Z" transform="translate(-677.596 -768.469)" fill="#e5e5df"/>
      <path id="Caminho_7794" data-name="Caminho 7794" d="M735.156,489.742h0a55.714,55.714,0,0,1-4.556,24.434,54.759,54.759,0,0,1-15.011,20.471c-.014.012-.027.025-.04.038a44.241,44.241,0,0,0-6.192,7.721l-.054.088a45.323,45.323,0,1,0,41.944-19.279l-.162-.015-.05,0a12.858,12.858,0,0,0-4.114.6,12.52,12.52,0,0,0,2.754,24.432l.039,0c12.255.359,22.826,8.19,25.7,19.043,4.042,15.253-3.227,29.808-17.284,34.609a28.39,28.39,0,0,1-22.022-1.63c-7.013-3.6-12.006-9.336-14.06-16.146l-.627.189a27.852,27.852,0,0,0,14.013,17.271,29.848,29.848,0,0,0,23.174,1.714c14.811-5.059,22.48-20.361,18.234-36.384-3.04-11.473-14.167-19.754-27.059-20.14a11.043,11.043,0,0,1-2.423-21.55,11.354,11.354,0,0,1,3.587-.536l.146.013A43.864,43.864,0,1,1,710.6,543.21l.153-.247a42.433,42.433,0,0,1,5.8-7.2,56.241,56.241,0,0,0,15.4-21.018c3.033-7.3,4.256-15.489,3.74-25.03Z" transform="translate(-495.781 -346.244)" fill="#e5e5df"/>
      <path id="Caminho_7795" data-name="Caminho 7795" d="M703.353,44.432l.125.041a7.658,7.658,0,0,0,9.983-7.144h-.006l-.011-.4a6.188,6.188,0,0,1,.328-2.161,6.255,6.255,0,0,1,.679-1.4l.538-.826-.95-.264A9.719,9.719,0,0,0,701.854,42.9l.026.2-.145.138A312.815,312.815,0,0,0,648.5,109.8l-.8,1.344.07-1.563a115.422,115.422,0,0,1,5.4-30.011,114.171,114.171,0,0,1,24.767-42.715l.158-.151A173.421,173.421,0,0,0,694.269,15.16l.122-.192.318.014c.114.006.229.011.344.01a7.652,7.652,0,0,0,7.558-7.745,6.108,6.108,0,0,0-.443-2.438l-.009.01-.213-.592a4.014,4.014,0,0,1-.281-1.736,2.017,2.017,0,0,1,.479-1.215c.037-.047.069-.086.093-.119L703.065,0l-1.425.017A9.668,9.668,0,0,0,692.091,9.8a9.732,9.732,0,0,0,1,4.164l.1.2-.119.187a172.055,172.055,0,0,1-16.029,21.356l-.139.134a115.586,115.586,0,0,0-25.111,43.286,116.985,116.985,0,0,0-5.409,29.3l-.105,1.936-.658-1.823a116.522,116.522,0,0,1,4.223-89.119l.089-.191.208-.031c.18-.027.361-.058.539-.1a7.657,7.657,0,0,0,4.781-11.556l-.112-.148a6.183,6.183,0,0,1-.823-1.975,6.247,6.247,0,0,1-.149-1.644l.041-.944-.921.208a8.861,8.861,0,0,0-5.734,4.2,10.127,10.127,0,0,0-1.064,7.4,9.741,9.741,0,0,0,1.783,3.779l.147.19-.1.218a119.494,119.494,0,0,0-5.634,14.325,117.248,117.248,0,0,0-.405,70.556l1.078,3.505-1.8-3.2A188.589,188.589,0,0,1,617.7,19.085l-.011-.281.37-.141c.04-.014.08-.028.119-.044a7.658,7.658,0,0,0,2.7-12.209l-.128-.119a6.205,6.205,0,0,1-1.166-1.811,6.262,6.262,0,0,1-.414-1.465l-.141-.914-.852.358a8.847,8.847,0,0,0-4.978,5.189,10,10,0,0,0,.287,7.273,9.714,9.714,0,0,0,2.625,3.6l.131.112.006.173a189.628,189.628,0,0,0,30.046,95.538,9.291,9.291,0,0,1,2.335,9.149,8.878,8.878,0,0,1-8.519,6.127c-.314-.015-.635-.019-.994-.012h-.069l-.151-.052c-.072-.025-.144-.049-.217-.072a20.717,20.717,0,0,0-17.192,37.363l.333.2-.015.025a19.183,19.183,0,0,1,8.086,22.191c-3.2,9.994-14.055,16.24-24.066,13.255l-.228.711a20.716,20.716,0,0,0,16.655-37.577l-.338-.2.019-.032a19.272,19.272,0,0,1,11.781-35.431l1.62.114-1.493.64a14.183,14.183,0,0,0,1.25,26.549l.143.032a.866.866,0,0,0,.173.007,14.183,14.183,0,0,0,7.384-25.932l-.709-.479.826-.227a10.4,10.4,0,0,0,7.1-6.762,10.781,10.781,0,0,0-2.031-9.874l-.174-.211.137-.236a311.216,311.216,0,0,1,54.687-69.22l.181-.172.339.132c.071.028.143.057.215.082M693.535,9.782A8.231,8.231,0,0,1,699.77,1.7l.565-.139-.081.576c-.01.072-.019.147-.026.224a6.016,6.016,0,0,0,.518,2.768,4.954,4.954,0,0,1,.422,2.137,6.214,6.214,0,0,1-6.132,6.283c-.1,0-.209,0-.314,0l-.234-.009-.1-.21a8.259,8.259,0,0,1-.848-3.543m-45.426,4.538a8.759,8.759,0,0,1,.835-6.252,7.372,7.372,0,0,1,3.526-3.183l.468-.2.077.5q.041.277.1.55a7.606,7.606,0,0,0,1.084,2.54l.077.1a6.207,6.207,0,0,1-3.917,9.31q-.154.035-.309.062l-.231.04-.145-.184a8.278,8.278,0,0,1-1.569-3.288m-30.492,2.967c-.1.041-.194.078-.293.114l-.221.08-.175-.156a8.271,8.271,0,0,1-2.118-2.964,8.564,8.564,0,0,1-.26-6.225,7.332,7.332,0,0,1,2.954-3.7l.417-.269.167.468q.072.2.157.405A7.638,7.638,0,0,0,619.7,7.3l.116.107a6.209,6.209,0,0,1-2.2,9.885m29.37,129.754a12.8,12.8,0,0,1-11.486,8.841l-.074,0-.071-.024a12.741,12.741,0,0,1,3.408-24.8l.074,0,.071.024a12.788,12.788,0,0,1,8.078,15.961M712.015,37.373a6.21,6.21,0,0,1-8.1,5.723l-.1-.033c-.079-.027-.157-.058-.234-.088l-.279-.111-.028-.233a8.284,8.284,0,0,1,8.933-9.226l.523.048-.193.488c-.047.12-.092.242-.134.365a7.647,7.647,0,0,0-.4,2.274" transform="translate(-428.176 0.002)" fill="#e5e5df"/>
      <path id="Caminho_7796" data-name="Caminho 7796" d="M352.073,808.327a35.426,35.426,0,0,0-8.414-18.1,31.047,31.047,0,0,1-4.871-29.047,21.874,21.874,0,0,0-6.1-23.554l-.368-.327.035-.039a7.3,7.3,0,0,1-1.36-8.194,7.423,7.423,0,0,1,.576-1.017,7.316,7.316,0,0,1,.449-.59,7.012,7.012,0,0,0-9.948-9.832l1.173,1.167a5.363,5.363,0,0,1,7.564,7.544l-.258.311c-.121.156-.237.315-.346.477a9.105,9.105,0,0,0-.7,1.243,8.932,8.932,0,0,0-.673,5.6l.2,1-.908-.463q-.439-.223-.888-.429a22.189,22.189,0,0,0-3.75-1.313,7.943,7.943,0,0,0-3.156-.1l-.07.014a6.144,6.144,0,0,1-6.6-8.077c.019-.054.038-.107.058-.161l-1.5-.7c-.043.108-.083.217-.12.326a7.794,7.794,0,0,0,8.334,10.252c.065-.008.13-.017.195-.028l-.011-.058.555-.043a8.018,8.018,0,0,1,1.923.18,20.2,20.2,0,0,1,14.136,26.274,32.39,32.39,0,0,0,.849,23.349l.671,1.577-1.406-.982a35.882,35.882,0,0,0-5.362-3.1,35.369,35.369,0,0,0-12.088-3.214,9.866,9.866,0,0,0-2.484-.075c-.18.018-.357.044-.534.072l-.056.006a8.142,8.142,0,0,1-8.454-7.52h-.017a5.965,5.965,0,0,0-4.317-5.136,5.934,5.934,0,0,0-7.3,4.129,5.961,5.961,0,0,0-.209,1.278l1.656-.052a4.281,4.281,0,0,1,8.45-.544l.037,0,.058.5a9.824,9.824,0,0,0,5.621,8.091c.045.021.092.04.138.059l.918.4-.71.505a9.8,9.8,0,0,0-3.2,3.831,10.241,10.241,0,0,0-.7,2.146,6.413,6.413,0,1,1-12.274-3.6l-1.5-.7a8.061,8.061,0,1,0,15.383,4.641,8.667,8.667,0,0,1,.578-1.8,8.164,8.164,0,0,1,6-4.583l.055-.006c.176-.011.337-.023.488-.038l-.007-.047.551-.023a8.077,8.077,0,0,1,1.385.071l.273.037a33.961,33.961,0,0,1,22.653,11.372l.107.134.122.155.239.252a33.847,33.847,0,0,1,7.589,16.783h0l.06.438a34.291,34.291,0,0,0,8.914,18.851l1.732,1.861-19.839-9.329a2.175,2.175,0,0,0-.246-.15,2.072,2.072,0,0,0-.484-.19l-.088-.03a31.651,31.651,0,0,0-22.087-1.373l-.446.136,0-.008a37.132,37.132,0,0,1-46.53-43.507,8.353,8.353,0,0,0,.188-2.007l-.017-.481h.018a7.353,7.353,0,0,1,1.092-3.691,7.214,7.214,0,0,1,6.5-3.468,6.159,6.159,0,0,0,5.567-3.383c.027-.057.052-.115.077-.174a5.695,5.695,0,0,0-4.206-7.8l-.16,1.65a4.041,4.041,0,0,1,2.846,5.513,4.44,4.44,0,0,1-4.068,2.548,8.835,8.835,0,0,0-7.964,4.252c-.122.2-.243.417-.37.668l-.359.711-.475-.64a7.735,7.735,0,0,0-2.643-2.256,7.96,7.96,0,0,0-1.629-.628,4.785,4.785,0,0,1-1-.384,4.732,4.732,0,0,1,3.9-8.608l.761-1.47a6.381,6.381,0,0,0-5.422,11.543,6.456,6.456,0,0,0,1.346.515,6.3,6.3,0,0,1,1.285.5,6.1,6.1,0,0,1,3.268,5.041,6.609,6.609,0,0,1-.151,1.706,38.731,38.731,0,0,0,1.472,21.394l.561,1.55-1.319-.989a25.441,25.441,0,0,0-24.512-3.352,8.357,8.357,0,0,0-1.514.745c-.019.012-.039.026-.058.04s-.056.04-.084.058a6.681,6.681,0,0,1-7.656-.519,6.928,6.928,0,0,0-10.687,2.579,6.88,6.88,0,0,0-.292,4.835l1.544-.6a5.278,5.278,0,0,1,3.182-6.356,5.3,5.3,0,0,1,5.22.821,8.407,8.407,0,0,0,5.34,1.841l.794-.008-.346.715a8.324,8.324,0,0,0-.482,6.065,9.413,9.413,0,0,1-.023,5.557l-.025.053a6.657,6.657,0,0,1-12.079-.035l-1.548.578a8.3,8.3,0,0,0,15.117.151c.881-1.888.711-4.916.1-6.883a6.677,6.677,0,0,1,2.853-7.5,6.814,6.814,0,0,1,1.227-.6,23.958,23.958,0,0,1,18.716.6,23.685,23.685,0,0,1,9.5,8.027l.042-.028.27.419A38.748,38.748,0,0,0,318.728,820.3l.444-.132v0a29.944,29.944,0,0,1,21.134,1.605l12.494,5.87-2.5-.13a36.5,36.5,0,0,0-30.151,13.433,20.244,20.244,0,0,1-31.467-.74l-.15-.184a7.617,7.617,0,0,0-.669-.737,5.9,5.9,0,0,1-.98-6.729,6.287,6.287,0,0,0-8.6-8.383l.9,1.388a4.639,4.639,0,0,1,6.227,6.252,7.719,7.719,0,0,0-.656,4.926l.147.73-.729-.151a7.528,7.528,0,0,0-6.129,1.389l-.138.1a4.027,4.027,0,0,0-.437.359,5.856,5.856,0,0,1-8.544-8l-1.143-1.194a7.5,7.5,0,0,0,10.83,10.387,2.2,2.2,0,0,1,.242-.2l.2-.149a5.886,5.886,0,0,1,7.413.215,5.755,5.755,0,0,1,.5.483l.019-.015.308.4a21.894,21.894,0,0,0,27.816,6.034l1.364-.735-.82,1.644c-.067.13-.134.261-.2.394-.046.095-.087.19-.129.285l-.289.635-.017-.008A29.192,29.192,0,0,1,278.7,863.762l-.007.015-.437-.185a8.36,8.36,0,0,0-1.343-.452c-.237-.056-.483-.1-.731-.137a6.639,6.639,0,0,1-5.261-5.307,7.155,7.155,0,0,0-4.589-5.336,6.931,6.931,0,0,0-8.631,3.829l1.564.539.026-.057a5.286,5.286,0,0,1,6.5-2.753,5.477,5.477,0,0,1,3.507,4.087,8.368,8.368,0,0,0,2.706,4.723l.6.522-.734.3a8.352,8.352,0,0,0-4.4,4.195,6.726,6.726,0,0,1-3.672,3.6,6.572,6.572,0,0,1-5.107-.028,6.664,6.664,0,0,1-3.676-8.28l-1.519-.651a8.31,8.31,0,0,0,15.47,6.049,6.722,6.722,0,0,1,6.657-3.844l0-.011.221.035.075.01.2.033c.153.026.286.049.42.08a6.669,6.669,0,0,1,1.141.387l.106.04a30.838,30.838,0,0,0,38.682-15.066l.218-.416c.083-.183.167-.367.255-.552a35.277,35.277,0,0,1,4.49-7.149l.107-.133a34.765,34.765,0,0,1,39.179-10.489l37.224,17.486.7-1.493L369.42,833.636A32.9,32.9,0,0,1,352.214,809.3" transform="translate(-159.386 -506.166)" fill="#e5e5df"/>
      <path id="Caminho_7797" data-name="Caminho 7797" d="M455.4,1209.322a35.427,35.427,0,0,0-18.1,8.415,31.048,31.048,0,0,1-29.047,4.871,21.875,21.875,0,0,0-23.555,6.1l-.327.368-.039-.035a7.3,7.3,0,0,1-8.194,1.36,7.454,7.454,0,0,1-1.017-.576,7.267,7.267,0,0,1-.59-.449,7.012,7.012,0,0,0-9.832,9.948l1.167-1.173a5.363,5.363,0,0,1,7.544-7.564l.311.258c.156.121.315.236.477.346a9.113,9.113,0,0,0,1.243.7,8.932,8.932,0,0,0,5.6.673l1-.2-.463.908c-.149.292-.293.588-.429.888a22.2,22.2,0,0,0-1.313,3.75,7.945,7.945,0,0,0-.1,3.156l.014.07a6.144,6.144,0,0,1-8.077,6.6c-.054-.018-.107-.037-.161-.058l-.7,1.5c.108.043.217.082.325.12a7.794,7.794,0,0,0,10.252-8.334c-.008-.065-.017-.13-.028-.195l-.058.011-.043-.555a8.012,8.012,0,0,1,.18-1.923,20.2,20.2,0,0,1,26.274-14.136,32.389,32.389,0,0,0,23.349-.849l1.577-.671-.982,1.406a35.871,35.871,0,0,0-3.1,5.361,35.37,35.37,0,0,0-3.214,12.088,9.867,9.867,0,0,0-.075,2.484c.018.18.044.357.072.534l.006.056a8.142,8.142,0,0,1-7.52,8.454v.017a5.965,5.965,0,0,0-5.136,4.317,5.934,5.934,0,0,0,4.129,7.3,5.961,5.961,0,0,0,1.278.208l-.052-1.656a4.281,4.281,0,0,1-.544-8.45l0-.037.5-.058a9.823,9.823,0,0,0,8.091-5.621c.021-.045.04-.092.059-.138l.4-.917.505.71a9.806,9.806,0,0,0,3.831,3.2,10.224,10.224,0,0,0,2.146.7,6.413,6.413,0,1,1-3.6,12.274l-.7,1.5a8.061,8.061,0,1,0,4.641-15.383,8.672,8.672,0,0,1-1.8-.578,8.163,8.163,0,0,1-4.583-6l-.006-.055c-.011-.176-.023-.337-.038-.489l-.047.007-.023-.55a8.078,8.078,0,0,1,.071-1.385l.037-.273a33.962,33.962,0,0,1,11.371-22.653l.134-.107.155-.122.252-.24a33.847,33.847,0,0,1,16.783-7.589v0l.438-.06a34.29,34.29,0,0,0,18.851-8.914l1.861-1.732-9.329,19.839a2.159,2.159,0,0,0-.15.246,2.07,2.07,0,0,0-.19.484l-.03.088a31.65,31.65,0,0,0-1.373,22.086l.136.446-.008,0a37.132,37.132,0,0,1-43.507,46.53,8.343,8.343,0,0,0-2.007-.188l-.481.017v-.018a7.352,7.352,0,0,1-3.691-1.092,7.215,7.215,0,0,1-3.468-6.5,6.158,6.158,0,0,0-3.383-5.567c-.057-.027-.115-.052-.174-.077a5.7,5.7,0,0,0-7.8,4.206l1.65.16a4.041,4.041,0,0,1,5.513-2.846,4.44,4.44,0,0,1,2.548,4.067,8.835,8.835,0,0,0,4.252,7.964c.2.122.417.243.668.37l.711.359-.64.474a7.736,7.736,0,0,0-2.256,2.643,7.96,7.96,0,0,0-.628,1.629,4.787,4.787,0,0,1-.384,1,4.732,4.732,0,0,1-8.608-3.9l-1.47-.761a6.381,6.381,0,0,0,11.543,5.422,6.469,6.469,0,0,0,.515-1.346,6.3,6.3,0,0,1,.5-1.285,6.1,6.1,0,0,1,5.041-3.268,6.6,6.6,0,0,1,1.706.151,38.727,38.727,0,0,0,21.394-1.472l1.55-.561-.989,1.319a25.439,25.439,0,0,0-3.352,24.512,8.36,8.36,0,0,0,.745,1.514c.012.019.026.039.04.058s.04.056.058.085a6.681,6.681,0,0,1-.519,7.656,6.928,6.928,0,0,0,2.579,10.687,6.88,6.88,0,0,0,4.835.292l-.6-1.544a5.278,5.278,0,0,1-6.356-3.182,5.3,5.3,0,0,1,.821-5.22,8.407,8.407,0,0,0,1.841-5.34l-.008-.794.715.346a8.324,8.324,0,0,0,6.065.482,9.413,9.413,0,0,1,5.557.023l.053.025a6.657,6.657,0,0,1-.035,12.079l.578,1.548a8.3,8.3,0,0,0,.151-15.118c-1.888-.881-4.916-.711-6.883-.1a6.676,6.676,0,0,1-7.5-2.853,6.809,6.809,0,0,1-.6-1.227,23.958,23.958,0,0,1,.6-18.716,23.686,23.686,0,0,1,8.027-9.5l-.028-.042.419-.27a38.749,38.749,0,0,0,16.187-43.587l-.132-.444h0a29.944,29.944,0,0,1,1.605-21.134l5.87-12.494-.13,2.5a36.5,36.5,0,0,0,13.433,30.151,20.244,20.244,0,0,1-.74,31.467l-.184.15a7.619,7.619,0,0,0-.737.669,5.9,5.9,0,0,1-6.729.98,6.287,6.287,0,0,0-8.383,8.6l1.388-.9a4.638,4.638,0,0,1,6.252-6.227,7.719,7.719,0,0,0,4.926.656l.73-.147-.151.73a7.527,7.527,0,0,0,1.389,6.129l.1.138a4.02,4.02,0,0,0,.359.437,5.856,5.856,0,0,1-8,8.544l-1.194,1.143a7.5,7.5,0,0,0,10.387-10.83,2.191,2.191,0,0,1-.2-.242l-.149-.2a5.886,5.886,0,0,1,.215-7.413,5.726,5.726,0,0,1,.483-.5l-.015-.019.4-.308a21.894,21.894,0,0,0,6.034-27.816l-.735-1.364,1.644.82c.13.067.261.134.394.2.095.046.19.087.285.13l.635.288-.008.017a29.192,29.192,0,0,1,14.414,36.308l.015.007-.185.437a8.361,8.361,0,0,0-.452,1.343c-.056.237-.1.482-.137.73a6.638,6.638,0,0,1-5.307,5.261,7.154,7.154,0,0,0-5.336,4.589,6.931,6.931,0,0,0,3.829,8.631l.539-1.564-.057-.026a5.286,5.286,0,0,1-2.753-6.5,5.477,5.477,0,0,1,4.087-3.507,8.369,8.369,0,0,0,4.723-2.706l.522-.6.3.734a8.352,8.352,0,0,0,4.195,4.4,6.726,6.726,0,0,1,3.6,3.672,6.573,6.573,0,0,1-.028,5.107,6.664,6.664,0,0,1-8.28,3.676l-.651,1.519a8.31,8.31,0,0,0,6.049-15.47,6.721,6.721,0,0,1-3.844-6.657l-.011,0,.035-.22c0-.025.006-.05.01-.075l.033-.2c.026-.153.049-.286.08-.419a6.678,6.678,0,0,1,.387-1.141l.04-.106a30.838,30.838,0,0,0-15.066-38.682l-.416-.218c-.183-.083-.367-.167-.552-.255a35.278,35.278,0,0,1-7.149-4.49l-.133-.107a34.764,34.764,0,0,1-10.489-39.179l17.486-37.224-1.493-.7-13.727,29.219a32.9,32.9,0,0,1-24.334,17.206" transform="translate(-256.635 -822.112)" fill="#e5e5df"/>
      <path id="Caminho_7798" data-name="Caminho 7798" d="M1679.107,2414.246a4.913,4.913,0,1,0-6.059-3.4,4.918,4.918,0,0,0,6.059,3.4m-2.212-7.868a3.26,3.26,0,1,1-2.256,4.021,3.264,3.264,0,0,1,2.256-4.021" transform="translate(-1182.778 -1700.145)" fill="#e5e5df"/>
      <path id="Caminho_7799" data-name="Caminho 7799" d="M1789.6,2315.512a4.91,4.91,0,1,0-.108,3.759,4.883,4.883,0,0,0,.108-3.759m-1.616,3.083a3.261,3.261,0,1,1,.071-2.494,3.254,3.254,0,0,1-.071,2.494" transform="translate(-1258.596 -1634.918)" fill="#e5e5df"/>
      <path id="Caminho_7800" data-name="Caminho 7800" d="M1536.462,2390.428a4.881,4.881,0,0,0,3.678.778q.221-.041.436-.1a4.913,4.913,0,1,0-4.115-.677m.091-5.9a3.228,3.228,0,0,1,1.8-1.292q.145-.041.295-.069a3.26,3.26,0,1,1-2.092,1.361" transform="translate(-1084.829 -1683.783)" fill="#e5e5df"/>
      <path id="Caminho_7801" data-name="Caminho 7801" d="M1713.134,2069.575q.224-.042.441-.1a4.935,4.935,0,1,0-.441.1m-4.1-4.231a3.26,3.26,0,0,1,2.317-3.734q.143-.04.291-.068a3.26,3.26,0,0,1,3.285,5.049,3.275,3.275,0,0,1-2.091,1.361,3.259,3.259,0,0,1-3.8-2.608" transform="translate(-1207.141 -1456.38)" fill="#e5e5df"/>
      <path id="Caminho_7802" data-name="Caminho 7802" d="M1471.039,2132.12a4.909,4.909,0,1,0-.107,3.759,4.881,4.881,0,0,0,.107-3.759m-1.615,3.083a3.26,3.26,0,1,1-4.136-4.379c.093-.035.188-.066.282-.093a3.26,3.26,0,0,1,3.854,4.472" transform="translate(-1033.359 -1505.253)" fill="#e5e5df"/>
      <path id="Caminho_7803" data-name="Caminho 7803" d="M1792.042,2186.031a4.913,4.913,0,1,0-6.06-3.4,4.918,4.918,0,0,0,6.06,3.4m-2.213-7.868a3.26,3.26,0,1,1-2.256,4.021,3.264,3.264,0,0,1,2.256-4.021" transform="translate(-1262.626 -1538.787)" fill="#e5e5df"/>
      <path id="Caminho_7804" data-name="Caminho 7804" d="M1342.775,2024.605a17.24,17.24,0,0,1-16.41-3.9l-1.128,1.209a19.03,19.03,0,0,0,31.087-8.63,16.608,16.608,0,0,1,11.593-11.646,16.788,16.788,0,0,1,4.321-.626l.151,0,9.226,32.8-.13.077a16.741,16.741,0,0,1-20-2.2,19.03,19.03,0,0,0-31.008,8.857l1.592.443a17.377,17.377,0,0,1,28.3-8.081,18.254,18.254,0,0,0,17.548,4.286c.31-.087.615-.185.918-.287l.593-.2-.371.5c-.127.172-.252.345-.373.522a18.233,18.233,0,0,0-1.591,17.97,17.377,17.377,0,0,1-16.735,24.226l-.092,1.65a19.029,19.029,0,0,0,18.34-26.541,16.694,16.694,0,0,1,4.232-19.5l.115-.1.126.086,28.055,19.176-.052.144a16.689,16.689,0,0,1-16.714,11.023,19.029,19.029,0,0,0-18.135,26.666l1.507-.68a17.377,17.377,0,0,1,16.551-24.335,18.249,18.249,0,0,0,16.219-7.951c.239-.349.478-.726.709-1.12l.261-.445.1.506c.092.458.2.919.329,1.37a18.231,18.231,0,0,0,12.779,12.734,17.376,17.376,0,0,1,7.879,28.37l1.209,1.128a19.03,19.03,0,0,0-8.63-31.086,16.739,16.739,0,0,1-12.271-15.914l0-.151,32.8-9.226.077.13a16.738,16.738,0,0,1-2.2,20,19.03,19.03,0,0,0,8.856,31.008l.444-1.592a17.377,17.377,0,0,1-8.081-28.3,18.254,18.254,0,0,0,4.286-17.548c-.144-.513-.315-1.027-.521-1.571l-.192-.507.472.265c.506.284,1.008.537,1.493.755a18.231,18.231,0,0,0,17.964-1.653,17.376,17.376,0,0,1,26.831,12.125l1.641-.205a19.029,19.029,0,0,0-29.4-13.29,16.684,16.684,0,0,1-20.186-.873l-.114-.094,13.426-31.078.146.018a16.729,16.729,0,0,1,14.559,14.581,19.029,19.029,0,0,0,29.482,13.066l-.939-1.36a17.378,17.378,0,0,1-26.906-11.925,18.252,18.252,0,0,0-10.727-14.533c-.183-.082-.368-.159-.553-.235l-.525-.216.546-.155a18.237,18.237,0,0,0,12.681-12.762,17.376,17.376,0,0,1,28.37-7.879l1.128-1.208a19.029,19.029,0,0,0-31.086,8.629,16.609,16.609,0,0,1-11.594,11.646,16.782,16.782,0,0,1-4.32.626l-.151,0-9.225-32.8.13-.077a16.8,16.8,0,0,1,4.013-1.718,16.631,16.631,0,0,1,15.984,3.913,19.03,19.03,0,0,0,31.008-8.856l-1.593-.444a17.376,17.376,0,0,1-28.3,8.081,18.255,18.255,0,0,0-17.548-4.285c-.062.017-.123.036-.185.055l-.682.2.385-.532c.074-.1.148-.2.219-.308a18.233,18.233,0,0,0,1.591-17.97,17.377,17.377,0,0,1,16.735-24.226l.092-1.65a19.029,19.029,0,0,0-18.339,26.542,16.686,16.686,0,0,1-4.486,19.713l-.115.1-27.985-19.3.049-.142a16.689,16.689,0,0,1,16.776-11.2,19.03,19.03,0,0,0,18.135-26.666l-1.507.68a17.376,17.376,0,0,1-16.551,24.335,18.26,18.26,0,0,0-16.218,7.951c-.3.44-.6.918-.882,1.423l-.265.472-.1-.532c-.106-.564-.232-1.106-.374-1.613a18.232,18.232,0,0,0-12.779-12.734,17.376,17.376,0,0,1-7.879-28.37l-1.209-1.128a19.03,19.03,0,0,0,8.629,31.086,16.608,16.608,0,0,1,11.646,11.593,16.808,16.808,0,0,1,.626,4.321l0,.151-32.8,9.226-.077-.13a16.739,16.739,0,0,1,2.2-20,19.03,19.03,0,0,0-8.856-31.008l-.443,1.592a17.377,17.377,0,0,1,8.081,28.3,18.254,18.254,0,0,0-4.285,17.547c.126.45.272.9.433,1.341l.177.485-.454-.244c-.4-.214-.8-.411-1.189-.586a18.228,18.228,0,0,0-17.965,1.653,17.376,17.376,0,0,1-26.831-12.126l-1.64.205a19.029,19.029,0,0,0,29.4,13.29,16.686,16.686,0,0,1,19.993.714l.118.095-13.7,31.182-.149-.023a16.747,16.747,0,0,1-14.1-14.521,18.993,18.993,0,0,0-29.483-13.066l.939,1.361a17.377,17.377,0,0,1,26.906,11.925,18.252,18.252,0,0,0,10.728,14.532c.125.055.25.108.376.16l.582.242-.679.177c-.067.017-.134.034-.2.053a18.232,18.232,0,0,0-12.734,12.779,17.339,17.339,0,0,1-11.96,11.776m31.118-24.348.028-.065,13.9-31.644,33.245-9.349.077.052,28.553,19.69,9.4,33.425-.028.064-13.686,31.68-33.173,9.33-.076-.052-28.839-19.712Z" transform="translate(-936.992 -1350.808)" fill="#e5e5df"/>
      <path id="Caminho_7805" data-name="Caminho 7805" d="M1448.135,2282.748a4.913,4.913,0,1,0-6.06-3.4,4.918,4.918,0,0,0,6.06,3.4m-2.213-7.868a3.26,3.26,0,1,1-2.256,4.021,3.264,3.264,0,0,1,2.256-4.021" transform="translate(-1019.471 -1607.17)" fill="#e5e5df"/>
      <path id="Caminho_7806" data-name="Caminho 7806" d="M1573.376,2046.65c.149-.028.3-.062.441-.1a4.929,4.929,0,1,0-.441.1m-4.1-4.231a3.261,3.261,0,0,1,2.317-3.734q.143-.04.291-.068a3.26,3.26,0,0,1,3.285,5.049,3.275,3.275,0,0,1-2.092,1.36,3.26,3.26,0,0,1-3.8-2.608" transform="translate(-1108.327 -1440.172)" fill="#e5e5df"/>
      <path id="Caminho_7807" data-name="Caminho 7807" d="M891.517,1430.105c-.1-.148-.194-.256-.291-.373-.082-.1-.169-.2-.273-.34l-.093-.116c-.133-.165-.265-.33-.4-.49l-.129-.15a11.573,11.573,0,0,1,13.01-17.927c.145.05.285.109.425.168l.171.072,1.052.493c.084.04.136.062.2.088s.117.05.209.093l1.248.471a16.213,16.213,0,0,0,17.375-26.052l-1.415-1.623,1.9,1.018c.255.136,6.117,3.341,8,9.467l.23-.1c-2.891-10.345-12.529-13.685-12.61-13.719a19.476,19.476,0,0,0-14.027.475c-2.317.872-6.232,4.181-6.272,4.214l-.123.1-.16-.011c-1.823-.135-19.406-5.857-25.729-7.758l-.158.459,26.756,9.249.313-.374a14.279,14.279,0,0,1,3.666-3.108l1.179-.578c.4-.209.863-.417,1.437-.652a14.45,14.45,0,1,1,.083,27.277c-.423-.146-.841-.312-1.244-.494l-.095-.043a13.562,13.562,0,0,0-1.828-.807,13.344,13.344,0,0,0-15.532,19.917l.586.826c.195.253.412.515.637.766a23.44,23.44,0,0,1,2.186,3.222,23.067,23.067,0,0,1,2.177,17.387l-27.2,78.621,1.675.579,27.21-78.637.021-.068a24.821,24.821,0,0,0-2.333-18.75c-.264-.471-.564-.959-.943-1.534" transform="translate(-612.836 -974.372)" fill="#e5e5df"/>
      <path id="Caminho_7808" data-name="Caminho 7808" d="M988.437,1611.7l-.152.12h0l.169-.1-.017-.025" transform="translate(-698.755 -1139.535)" fill="#e5e5df"/>
      <path id="Caminho_7809" data-name="Caminho 7809" d="M1019.675,1579.062a80.907,80.907,0,0,0,20.3,4.128l-.1-1.332c-.488-2.763-1.451-6.584-2.187-9.128a76.6,76.6,0,0,0-19.086-31.339,82.623,82.623,0,0,0-31.222-19.79h0l-.086-.031-.088-.029-.073-.027-.079-.027h0l-.146-.051a80.082,80.082,0,0,0-10.115-2.753,71.091,71.091,0,0,0,10.442,24.843c7.574,11.175,22.205,25.611,48.892,30.926l.247.049,1.587,6.621-.538-.04a70.889,70.889,0,0,1-17.957-3.666c-14.544-5.031-27.208-14.934-37.82-29.6a73.34,73.34,0,0,0,38.032,31.244h0m15.44-6.628a88.22,88.22,0,0,1-10.379-2.882c-18.784-6.5-29.812-17.867-35.975-26.924a68.047,68.047,0,0,1-9.622-21.119l-.154-.624.625.146a66.194,66.194,0,0,1,7.019,2.186c.58.2,1.176.414,1.792.627a75.609,75.609,0,0,1,47.149,48.083l.211.65Z" transform="translate(-690.625 -1073.766)" fill="#e5e5df"/>
      <path id="Caminho_7810" data-name="Caminho 7810" d="M989.86,1610.871Z" transform="translate(-699.868 -1138.946)" fill="#e5e5df"/>
      <path id="Caminho_7811" data-name="Caminho 7811" d="M994.194,1908.9h0a55.712,55.712,0,0,1,4.555-24.434A54.763,54.763,0,0,1,1013.76,1864c.014-.012.028-.024.041-.038a44.229,44.229,0,0,0,6.192-7.721l.054-.088A45.323,45.323,0,1,0,978.1,1875.43l.162.015.05,0a12.858,12.858,0,0,0,4.114-.6,12.52,12.52,0,0,0-2.754-24.432l-.038,0c-12.255-.359-22.826-8.19-25.7-19.043-4.042-15.253,3.227-29.808,17.284-34.609a28.392,28.392,0,0,1,22.022,1.63c7.013,3.6,12.006,9.336,14.06,16.146l.627-.189a27.853,27.853,0,0,0-14.012-17.271,29.848,29.848,0,0,0-23.174-1.714c-14.811,5.059-22.479,20.36-18.234,36.384,3.04,11.473,14.167,19.754,27.059,20.14a11.043,11.043,0,0,1,2.423,21.55,11.358,11.358,0,0,1-3.587.536l-.146-.013a43.864,43.864,0,1,1,40.491-18.526l-.153.247a42.464,42.464,0,0,1-5.8,7.2,56.238,56.238,0,0,0-15.4,21.018c-3.033,7.3-4.256,15.489-3.74,25.03Z" transform="translate(-662.814 -1262.058)" fill="#e5e5df"/>
      <path id="Caminho_7812" data-name="Caminho 7812" d="M980.843,2160.732l-.125-.041a7.659,7.659,0,0,0-9.983,7.144h.006l.01.4a6.194,6.194,0,0,1-.328,2.161,6.262,6.262,0,0,1-.679,1.4l-.539.826.95.264a9.719,9.719,0,0,0,12.186-10.621l-.026-.2.145-.138a312.812,312.812,0,0,0,53.234-66.561l.8-1.344-.07,1.563a115.411,115.411,0,0,1-5.4,30.011,114.176,114.176,0,0,1-24.767,42.714l-.158.151A173.474,173.474,0,0,0,989.928,2190l-.122.192-.318-.014c-.114-.005-.229-.011-.344-.01a7.652,7.652,0,0,0-7.558,7.745,6.106,6.106,0,0,0,.443,2.438l.01-.01.213.592a4.015,4.015,0,0,1,.281,1.735,2.017,2.017,0,0,1-.479,1.215c-.038.047-.069.086-.093.119l-.829,1.159,1.425-.017a9.668,9.668,0,0,0,9.549-9.785,9.731,9.731,0,0,0-1-4.165l-.1-.2.119-.187a172.057,172.057,0,0,1,16.029-21.356l.139-.134a115.578,115.578,0,0,0,25.111-43.286,116.97,116.97,0,0,0,5.409-29.3l.105-1.936.658,1.823a116.524,116.524,0,0,1-4.223,89.12l-.089.191-.208.031c-.18.027-.361.058-.539.1a7.656,7.656,0,0,0-4.781,11.555l.112.148a6.178,6.178,0,0,1,.823,1.975,6.241,6.241,0,0,1,.149,1.644l-.041.944.921-.208a8.86,8.86,0,0,0,5.734-4.2,10.126,10.126,0,0,0,1.064-7.4,9.74,9.74,0,0,0-1.783-3.779l-.147-.19.1-.218a119.452,119.452,0,0,0,5.634-14.324,117.247,117.247,0,0,0,.405-70.556l-1.078-3.505,1.8,3.2a188.589,188.589,0,0,1,24.072,84.93l.01.281-.37.141c-.04.014-.08.028-.119.045a7.658,7.658,0,0,0-2.7,12.209l.128.119a6.227,6.227,0,0,1,1.58,3.276l.141.914.852-.358a8.846,8.846,0,0,0,4.978-5.189,10,10,0,0,0-.287-7.273,9.708,9.708,0,0,0-2.624-3.6l-.131-.112-.006-.173a189.633,189.633,0,0,0-30.046-95.539,9.29,9.29,0,0,1-2.335-9.148,8.877,8.877,0,0,1,8.519-6.126c.314.015.635.019.994.011h.069l.151.052c.072.024.144.049.217.072a20.716,20.716,0,0,0,17.192-37.362l-.333-.2.015-.025a19.183,19.183,0,0,1-8.086-22.191c3.2-9.994,14.055-16.24,24.066-13.255l.228-.711a20.716,20.716,0,0,0-16.655,37.577l.338.2-.019.031a19.272,19.272,0,0,1-11.781,35.431l-1.62-.114,1.493-.64a14.184,14.184,0,0,0-1.25-26.549l-.143-.032a.837.837,0,0,0-.173-.007,14.183,14.183,0,0,0-7.384,25.932l.709.479-.826.227a10.4,10.4,0,0,0-7.1,6.763,10.781,10.781,0,0,0,2.031,9.874l.174.211-.137.237a311.216,311.216,0,0,1-54.687,69.22l-.181.172-.339-.133c-.071-.028-.143-.057-.215-.082m9.818,34.649a8.23,8.23,0,0,1-6.234,8.083l-.565.139.081-.576c.01-.072.019-.147.026-.224a6.014,6.014,0,0,0-.518-2.768,4.958,4.958,0,0,1-.422-2.138,6.214,6.214,0,0,1,6.132-6.283c.1,0,.209,0,.314,0l.234.008.1.211a8.258,8.258,0,0,1,.848,3.543m45.426-4.538a8.76,8.76,0,0,1-.835,6.253,7.372,7.372,0,0,1-3.526,3.183l-.469.2-.077-.5q-.041-.277-.1-.551a7.612,7.612,0,0,0-1.084-2.54l-.077-.1a6.207,6.207,0,0,1,3.917-9.31q.154-.035.309-.062l.231-.04.145.184a8.282,8.282,0,0,1,1.569,3.287m30.492-2.967c.1-.041.194-.079.293-.114l.221-.08.175.156a8.267,8.267,0,0,1,2.118,2.964,8.564,8.564,0,0,1,.26,6.225,7.331,7.331,0,0,1-2.955,3.7l-.417.269-.167-.468c-.048-.137-.1-.271-.156-.406a7.657,7.657,0,0,0-1.458-2.257l-.116-.107a6.208,6.208,0,0,1,2.2-9.885m-29.37-129.754a12.8,12.8,0,0,1,11.486-8.841l.074,0,.071.024a12.741,12.741,0,0,1-3.408,24.8l-.074,0-.071-.024a12.788,12.788,0,0,1-8.078-15.961M972.182,2167.79a6.21,6.21,0,0,1,8.1-5.723l.1.033c.08.027.157.058.234.088l.279.111.028.233a8.284,8.284,0,0,1-8.933,9.226l-.523-.048.192-.488c.047-.12.092-.242.134-.365a7.649,7.649,0,0,0,.4-2.274" transform="translate(-685.266 -1414.823)" fill="#e5e5df"/>
      <path id="Caminho_7813" data-name="Caminho 7813" d="M1178.116,1509.062a35.427,35.427,0,0,0,8.415,18.1,31.047,31.047,0,0,1,4.871,29.046,21.874,21.874,0,0,0,6.1,23.554l.368.327-.035.039a7.3,7.3,0,0,1,1.36,8.194,7.453,7.453,0,0,1-.576,1.016,7.215,7.215,0,0,1-.449.59,7.012,7.012,0,0,0,9.948,9.832l-1.173-1.167a5.363,5.363,0,0,1-7.564-7.544l.258-.31q.181-.234.346-.477a9.131,9.131,0,0,0,.7-1.243,8.933,8.933,0,0,0,.673-5.6l-.2-1,.908.462c.292.149.588.293.888.43a22.243,22.243,0,0,0,3.75,1.313,7.948,7.948,0,0,0,3.156.1l.07-.014a6.144,6.144,0,0,1,6.6,8.077c-.018.054-.037.107-.058.161l1.5.7c.043-.108.083-.217.12-.325a7.794,7.794,0,0,0-8.334-10.252c-.065.008-.13.017-.195.028l.011.058-.555.043a7.994,7.994,0,0,1-1.923-.18,20.2,20.2,0,0,1-14.136-26.274,32.39,32.39,0,0,0-.849-23.349l-.671-1.577,1.406.982a35.868,35.868,0,0,0,5.361,3.1,35.368,35.368,0,0,0,12.088,3.214,9.875,9.875,0,0,0,2.484.075c.18-.018.357-.044.534-.072l.056-.005a8.141,8.141,0,0,1,8.454,7.52h.017a5.965,5.965,0,0,0,4.317,5.136,5.934,5.934,0,0,0,7.3-4.129,5.966,5.966,0,0,0,.208-1.278l-1.656.052a4.283,4.283,0,0,1-5.409,3.765,4.313,4.313,0,0,1-3.041-3.221l-.037,0-.058-.5a9.824,9.824,0,0,0-5.621-8.091c-.045-.021-.092-.04-.138-.059l-.918-.4.71-.505a9.807,9.807,0,0,0,3.2-3.831,10.238,10.238,0,0,0,.7-2.146,6.413,6.413,0,1,1,12.274,3.6l1.5.7a8.061,8.061,0,1,0-15.383-4.641,8.663,8.663,0,0,1-.578,1.8,8.164,8.164,0,0,1-6,4.583l-.055.006c-.176.01-.337.023-.488.038l.007.047-.55.023a8.078,8.078,0,0,1-1.385-.071l-.273-.037a33.962,33.962,0,0,1-22.653-11.371l-.107-.134-.122-.155-.24-.252a33.846,33.846,0,0,1-7.589-16.783h0l-.06-.438a34.289,34.289,0,0,0-8.914-18.851l-1.732-1.861,19.839,9.328a2.146,2.146,0,0,0,.245.15,2.056,2.056,0,0,0,.484.19l.088.03a31.65,31.65,0,0,0,22.087,1.372l.446-.136,0,.008a37.132,37.132,0,0,1,46.53,43.507,8.357,8.357,0,0,0-.188,2.007l.017.481h-.018a7.352,7.352,0,0,1-1.092,3.691,7.214,7.214,0,0,1-6.5,3.468,6.159,6.159,0,0,0-5.567,3.382c-.027.057-.052.115-.077.174a5.695,5.695,0,0,0,4.206,7.8l.16-1.65a4.041,4.041,0,0,1-2.846-5.513,4.44,4.44,0,0,1,4.068-2.548,8.835,8.835,0,0,0,7.964-4.252c.122-.2.243-.417.37-.668l.359-.711.475.64a7.734,7.734,0,0,0,2.643,2.256,7.962,7.962,0,0,0,1.629.628,4.791,4.791,0,0,1,1,.384,4.732,4.732,0,0,1-3.9,8.608l-.761,1.47a6.381,6.381,0,0,0,5.422-11.543,6.469,6.469,0,0,0-1.346-.515,6.292,6.292,0,0,1-1.285-.5,6.1,6.1,0,0,1-3.268-5.041,6.6,6.6,0,0,1,.151-1.706,38.732,38.732,0,0,0-1.472-21.394l-.561-1.55,1.319.989a25.439,25.439,0,0,0,24.512,3.352,8.356,8.356,0,0,0,1.514-.745c.019-.012.039-.026.058-.04s.056-.04.084-.058a6.681,6.681,0,0,1,7.656.519,6.928,6.928,0,0,0,10.687-2.579,6.879,6.879,0,0,0,.292-4.835l-1.544.595a5.279,5.279,0,0,1-3.182,6.356,5.3,5.3,0,0,1-5.22-.821,8.407,8.407,0,0,0-5.34-1.841l-.794.009.346-.714a8.324,8.324,0,0,0,.482-6.065,9.413,9.413,0,0,1,.022-5.557l.025-.053a6.657,6.657,0,0,1,12.078.034l1.548-.578a8.3,8.3,0,0,0-15.117-.151c-.881,1.888-.711,4.916-.1,6.883a6.676,6.676,0,0,1-2.853,7.5,6.8,6.8,0,0,1-1.227.6,23.958,23.958,0,0,1-18.716-.6,23.686,23.686,0,0,1-9.5-8.027l-.042.028-.27-.419a38.749,38.749,0,0,0-43.587-16.187l-.444.132v0a29.944,29.944,0,0,1-21.134-1.605l-12.494-5.87,2.5.13a36.5,36.5,0,0,0,30.151-13.433,20.244,20.244,0,0,1,31.467.74l.15.184a7.611,7.611,0,0,0,.669.737,5.9,5.9,0,0,1,.98,6.729,6.287,6.287,0,0,0,8.6,8.383l-.9-1.388a4.639,4.639,0,0,1-6.227-6.252,7.719,7.719,0,0,0,.657-4.926l-.147-.73.73.152a7.527,7.527,0,0,0,6.129-1.389l.138-.1a4.028,4.028,0,0,0,.437-.359,5.856,5.856,0,0,1,8.544,8l1.143,1.194a7.5,7.5,0,0,0-10.83-10.387,2.172,2.172,0,0,1-.242.2l-.2.149a5.886,5.886,0,0,1-7.413-.215,5.735,5.735,0,0,1-.5-.483l-.019.015-.308-.4a21.894,21.894,0,0,0-27.816-6.035l-1.364.735.82-1.644c.067-.13.134-.261.2-.394.046-.095.087-.19.129-.285l.289-.635.017.008a29.193,29.193,0,0,1,36.308-14.414l.007-.015.437.184a8.368,8.368,0,0,0,1.343.452c.237.056.483.1.731.137a6.637,6.637,0,0,1,5.261,5.307,7.155,7.155,0,0,0,4.589,5.336,6.931,6.931,0,0,0,8.631-3.829l-1.564-.539-.026.057a5.286,5.286,0,0,1-6.5,2.753,5.477,5.477,0,0,1-3.507-4.087,8.368,8.368,0,0,0-2.706-4.723l-.6-.522.734-.3a8.352,8.352,0,0,0,4.4-4.195,6.727,6.727,0,0,1,3.672-3.6,6.572,6.572,0,0,1,5.107.028,6.664,6.664,0,0,1,3.676,8.28l1.519.651a8.31,8.31,0,0,0-15.47-6.05,6.722,6.722,0,0,1-6.657,3.844l0,.011-.221-.035-.075-.01-.2-.033c-.153-.026-.286-.049-.419-.08a6.658,6.658,0,0,1-1.141-.387l-.106-.041a30.838,30.838,0,0,0-38.682,15.066l-.218.416c-.083.183-.167.367-.255.552a35.265,35.265,0,0,1-4.49,7.149l-.107.133a34.765,34.765,0,0,1-39.179,10.489l-37.224-17.486-.7,1.493,29.219,13.727a32.9,32.9,0,0,1,17.206,24.334" transform="translate(-800.049 -1020.88)" fill="#e5e5df"/>
      <path id="Caminho_7814" data-name="Caminho 7814" d="M1112.447,1070.406a35.424,35.424,0,0,0,18.1-8.415,31.048,31.048,0,0,1,29.047-4.871,21.874,21.874,0,0,0,23.554-6.1l.327-.368.039.035a7.3,7.3,0,0,1,8.194-1.36,7.441,7.441,0,0,1,1.017.576,7.2,7.2,0,0,1,.59.449,7.012,7.012,0,0,0,9.832-9.948l-1.167,1.173a5.363,5.363,0,0,1-7.544,7.564l-.311-.258c-.156-.121-.315-.236-.476-.346a9.1,9.1,0,0,0-1.243-.7,8.933,8.933,0,0,0-5.6-.673l-1,.2.463-.908q.223-.439.429-.888a22.2,22.2,0,0,0,1.313-3.75,7.95,7.95,0,0,0,.1-3.156l-.014-.07a6.144,6.144,0,0,1,8.077-6.6l.161.058.7-1.5c-.108-.043-.217-.083-.326-.12a7.794,7.794,0,0,0-10.252,8.334c.008.065.017.13.027.195l.058-.011.043.555a8.031,8.031,0,0,1-.18,1.923,20.2,20.2,0,0,1-26.274,14.136,32.39,32.39,0,0,0-23.349.849l-1.577.671.982-1.406a35.87,35.87,0,0,0,3.1-5.362,35.373,35.373,0,0,0,3.214-12.088,9.869,9.869,0,0,0,.075-2.484c-.018-.18-.044-.357-.072-.534l-.006-.056a8.142,8.142,0,0,1,7.521-8.454v-.017a5.965,5.965,0,0,0,5.136-4.317,5.933,5.933,0,0,0-4.129-7.3,5.961,5.961,0,0,0-1.278-.209l.052,1.656a4.283,4.283,0,0,1,3.765,5.409,4.313,4.313,0,0,1-3.221,3.041l0,.037-.5.058a9.824,9.824,0,0,0-8.091,5.621c-.021.046-.04.092-.059.138l-.4.918-.505-.71a9.8,9.8,0,0,0-3.83-3.2,10.249,10.249,0,0,0-2.146-.7,6.413,6.413,0,1,1,3.6-12.274l.7-1.5a8.061,8.061,0,1,0-4.641,15.383,8.675,8.675,0,0,1,1.8.578,8.164,8.164,0,0,1,4.583,6l.006.055c.01.176.023.338.037.488l.047-.007.023.55a8.117,8.117,0,0,1-.071,1.385l-.037.273a33.96,33.96,0,0,1-11.371,22.653l-.134.106-.155.122-.252.24a33.845,33.845,0,0,1-16.782,7.589v0l-.438.06a34.292,34.292,0,0,0-18.851,8.914l-1.861,1.732,9.328-19.839a2.181,2.181,0,0,0,.15-.245,2.072,2.072,0,0,0,.19-.484l.03-.088a31.651,31.651,0,0,0,1.372-22.087l-.135-.446.008,0a37.132,37.132,0,0,1,43.507-46.53,8.351,8.351,0,0,0,2.007.188l.481-.017v.018a7.353,7.353,0,0,1,3.691,1.092,7.214,7.214,0,0,1,3.468,6.5,6.16,6.16,0,0,0,3.383,5.567c.057.027.115.052.174.077a5.695,5.695,0,0,0,7.8-4.206l-1.65-.16a4.049,4.049,0,0,1-2.421,2.865,4.013,4.013,0,0,1-3.092-.018,4.44,4.44,0,0,1-2.548-4.068,8.835,8.835,0,0,0-4.252-7.964c-.2-.122-.417-.243-.668-.37l-.711-.36.641-.475a7.733,7.733,0,0,0,2.256-2.643,7.953,7.953,0,0,0,.628-1.629,4.756,4.756,0,0,1,.384-1,4.732,4.732,0,0,1,8.608,3.9l1.47.761a6.381,6.381,0,0,0-11.543-5.422,6.433,6.433,0,0,0-.515,1.346,6.313,6.313,0,0,1-.5,1.285,6.1,6.1,0,0,1-5.041,3.268,6.608,6.608,0,0,1-1.706-.151,38.732,38.732,0,0,0-21.394,1.472l-1.55.561.989-1.319a25.438,25.438,0,0,0,3.352-24.512,8.346,8.346,0,0,0-.745-1.514c-.012-.019-.026-.039-.041-.058s-.04-.056-.058-.084a6.681,6.681,0,0,1,.519-7.656,6.928,6.928,0,0,0-2.579-10.687,6.879,6.879,0,0,0-4.835-.292l.6,1.544a5.278,5.278,0,0,1,6.356,3.182,5.3,5.3,0,0,1-.821,5.22,8.408,8.408,0,0,0-1.841,5.34l.009.794-.715-.346a8.323,8.323,0,0,0-6.065-.482,9.413,9.413,0,0,1-5.557-.023l-.053-.025a6.657,6.657,0,0,1,.035-12.079l-.578-1.548a8.3,8.3,0,0,0-.151,15.117c1.888.881,4.915.711,6.884.1a6.676,6.676,0,0,1,7.5,2.853,6.8,6.8,0,0,1,.6,1.227,23.959,23.959,0,0,1-.6,18.717,23.685,23.685,0,0,1-8.027,9.5l.028.042-.419.27a38.749,38.749,0,0,0-16.187,43.587l.132.444h0a29.945,29.945,0,0,1-1.605,21.134l-5.87,12.494.13-2.5a36.5,36.5,0,0,0-13.432-30.151,20.244,20.244,0,0,1,.74-31.467l.184-.15a7.6,7.6,0,0,0,.737-.669,5.9,5.9,0,0,1,6.729-.98,6.287,6.287,0,0,0,8.383-8.6l-1.388.9a4.639,4.639,0,0,1-6.252,6.227,7.72,7.72,0,0,0-4.926-.657l-.73.147.151-.73a7.527,7.527,0,0,0-1.389-6.129l-.1-.138a4.014,4.014,0,0,0-.359-.437,5.856,5.856,0,0,1,8-8.544l1.194-1.143a7.5,7.5,0,0,0-10.387,10.83,2.171,2.171,0,0,1,.2.242l.149.2a5.886,5.886,0,0,1-.215,7.413,5.764,5.764,0,0,1-.483.5l.015.019-.4.308a21.894,21.894,0,0,0-6.035,27.816l.735,1.364-1.644-.82c-.13-.067-.261-.134-.394-.2-.095-.046-.19-.087-.285-.129l-.635-.289.008-.017a29.192,29.192,0,0,1-14.414-36.308l-.015-.007.185-.437a8.363,8.363,0,0,0,.452-1.343c.056-.237.1-.482.137-.731a6.638,6.638,0,0,1,5.307-5.261,7.156,7.156,0,0,0,5.336-4.589,6.931,6.931,0,0,0-3.829-8.631l-.539,1.564.057.026a5.286,5.286,0,0,1,2.753,6.5,5.478,5.478,0,0,1-4.087,3.507,8.369,8.369,0,0,0-4.723,2.706l-.522.6-.3-.734a8.353,8.353,0,0,0-4.195-4.4,6.726,6.726,0,0,1-3.6-3.672,6.573,6.573,0,0,1,.028-5.108,6.664,6.664,0,0,1,8.28-3.676l.651-1.519a8.31,8.31,0,0,0-6.049,15.47,6.722,6.722,0,0,1,3.844,6.657l.011,0-.035.221c0,.025-.007.05-.01.075l-.033.2c-.026.153-.049.286-.08.419a6.679,6.679,0,0,1-.387,1.141l-.04.106a30.838,30.838,0,0,0,15.066,38.682l.416.218c.183.083.367.167.551.255a35.272,35.272,0,0,1,7.149,4.49l.133.107a34.764,34.764,0,0,1,10.489,39.179l-17.486,37.224,1.493.7,13.727-29.219a32.9,32.9,0,0,1,24.334-17.206" transform="translate(-740.459 -667.274)" fill="#e5e5df"/>
    </g>
  </svg>
  